<svg width="96" height="96" viewBox="0 0 96 96" fill="none" xmlns="http://www.w3.org/2000/svg">
<mask id="path-1-outside-1_2326_974" maskUnits="userSpaceOnUse" x="12" y="7" width="73" height="82" fill="black">
<rect fill="white" x="12" y="7" width="73" height="82"/>
<path d="M33.0125 14.0454C32.8572 14.8675 32.9393 14.6316 33.702 14.7682C35.7423 15.1338 37.725 16.2831 38.2712 18.4131C38.4936 19.2852 37.1678 19.6233 36.9454 18.7513C36.4495 16.8175 34.1575 16.0474 32.3717 16.0073C28.1061 15.9114 25.7388 20.0939 26.1034 23.9827C26.1922 24.9297 26.1199 24.7328 26.9949 24.7609C31.2192 24.8966 34.9476 26.6997 35.7416 31.3185C35.8934 32.2082 34.5407 32.4389 34.3889 31.5494C33.6112 27.0252 29.4968 25.9106 25.4563 26.1551C17.901 26.6121 15.5483 35.4361 20.9812 41.1402C21.6025 41.7934 20.6095 42.738 19.9882 42.0849C19.3662 41.4319 18.8366 40.7757 18.3919 40.1208C17.9939 39.5349 18.1266 39.5461 17.4313 39.9875C11.4678 43.7735 14.7466 55.2117 22.467 55.3669C23.3672 55.3846 23.3405 56.7533 22.4402 56.7357C19.9452 56.6856 17.8667 55.6766 16.299 54.1432C15.4818 53.3438 15.6317 52.9922 15.1578 54.2505C13.7202 58.0671 14.7665 62.102 17.8203 64.9458C20.6935 67.6212 20.4123 69.0233 20.5665 72.442C20.878 79.3457 37.4772 88.9973 44.684 86.1143C46.5051 85.3859 47.6934 83.7821 47.7708 81.0163V74.4693C47.6174 72.1981 46.9014 70.3053 45.8788 68.8692C44.5337 66.9805 42.6669 65.8899 40.882 65.7898C39.9818 65.7403 40.057 64.3716 40.9572 64.421C43.1446 64.5437 45.4023 65.8379 46.9952 68.0748C47.9008 69.3464 47.7708 69.8438 47.7708 67.8928V50.161C47.7708 48.6265 47.9275 49.0313 47.1559 49.7685C46.1628 50.7173 44.9281 51.1513 43.5634 51.1113C42.6631 51.0866 42.7007 49.7178 43.6009 49.7425C44.7847 49.7779 45.8317 49.3057 46.5718 48.3788C47.2085 47.5815 47.6298 46.4651 47.7708 45.094V27.2464C47.7023 25.5997 47.256 24.273 46.5289 23.3624C45.7888 22.4356 44.7418 21.9634 43.5581 21.9988C42.6578 22.0235 42.6203 20.6547 43.5205 20.63C44.9742 20.5873 46.2516 21.0866 47.2379 22.0959C47.8298 22.7017 47.7596 23.046 47.7596 21.9839V14.7806C47.7596 7.82874 34.2424 7.53208 33.0125 14.0454ZM49.2017 53.1576C49.2017 54.8012 49.5381 56.0635 50.113 56.9551C50.6963 57.8598 51.5383 58.385 52.5237 58.5372C53.4133 58.6748 53.204 60.0275 52.3143 59.8899C51.3183 59.736 50.4288 59.3115 49.7071 58.613C49.0895 58.0154 49.2017 57.8042 49.2017 58.8792V72.6647C49.2017 74.5721 49.0933 74.0295 49.9772 72.7883C51.5701 70.5514 53.8278 69.2572 56.0152 69.1345C56.9155 69.085 56.9906 70.4538 56.0904 70.5032C54.3055 70.6034 52.4387 71.694 51.0937 73.5827C49.3824 75.9858 49.2017 78.2198 49.2017 81.0163C49.2791 83.7821 50.4673 85.3859 52.2884 86.1143C59.4952 88.9973 76.0944 79.3457 76.4059 72.442C76.5601 69.0233 76.2789 67.6212 79.1521 64.9458C81.0604 63.1687 82.065 61.0917 82.3543 59.0127C82.5667 57.486 82.3953 55.9545 81.9144 54.5369C81.4053 53.0363 81.5651 53.2629 80.7067 54.1104C79.1352 55.6622 77.045 56.6852 74.5322 56.7357C73.632 56.7533 73.6052 55.3846 74.5054 55.3669C77.1346 55.34 79.2892 54.015 80.709 52.0651C83.2975 48.5102 83.535 42.509 79.5208 39.975C78.8033 39.5221 78.9663 39.5593 78.5408 40.179C78.1043 40.8146 77.5878 41.4512 76.9842 42.0849C76.3629 42.738 75.3699 41.7934 75.9912 41.1402C81.544 35.3103 78.8957 26.6015 71.5162 26.1551C67.4757 25.9106 63.3612 27.0252 62.5835 31.5494C62.4317 32.4389 61.079 32.2082 61.2308 31.3185C62.0113 26.7785 65.6269 24.9589 69.7618 24.7693C70.7542 24.7238 70.7703 25.0098 70.8665 24.0057C71.2371 20.1385 68.8954 15.9107 64.6008 16.0073C62.815 16.0474 60.5229 16.8175 60.0271 18.7513C59.8047 19.6233 58.4788 19.2852 58.7012 18.4131C59.2487 16.278 61.2397 15.1282 63.2853 14.7655C64.0771 14.6252 64.1324 14.8523 63.9383 13.9375C62.5785 7.52801 49.2017 7.87183 49.2017 14.7958V31.1642C49.2017 32.4254 49.1092 32.018 49.8054 31.3323C50.7817 30.3708 52.0328 29.8959 53.4519 29.9376C54.3521 29.9623 54.3146 31.3311 53.4143 31.3064C52.2306 31.271 51.1836 31.7432 50.4435 32.67C49.7164 33.5806 49.2701 34.9073 49.2017 36.554V53.1576ZM69.3725 68.7861C67.2843 74.0188 62.5277 77.3208 56.7124 76.835C55.8121 76.7609 55.9249 75.3921 56.8251 75.4662C62.0162 75.8988 66.0509 72.9335 68.0631 68.2883C68.448 67.3996 68.5719 67.5197 67.7942 67.23C62.3079 65.1864 59.4998 60.1598 58.4125 54.5323C58.2233 53.4653 59.4825 53.1064 59.7403 54.1789C61.1615 61.6833 65.4519 66.8122 73.4747 66.8122C74.3785 66.8122 74.3785 68.1864 73.4747 68.1864C72.4272 68.1864 71.4354 68.1049 70.4981 67.9471C69.4471 67.7703 69.7972 67.7219 69.3725 68.7861ZM69.9083 35.3673C70.8085 35.385 70.7817 36.7538 69.8815 36.7361C65.6826 36.6485 62.6873 39.007 61.9281 43.0051C61.7696 43.8399 61.7171 43.6614 62.4617 43.8612C66.5982 44.9713 70.2785 48.2276 71.4501 52.3935C71.6937 53.262 70.3732 53.6323 70.1296 52.7639C68.3276 46.3564 58.9041 41.7967 53.9295 47.1389C53.3152 47.7991 52.3114 46.8651 52.9257 46.2049C54.6741 44.3273 57.0127 43.4506 59.4982 43.4556C60.5689 43.4577 60.3922 43.7599 60.5768 42.7773C61.4554 38.0992 65.0201 35.2653 69.9083 35.3673ZM48.9192 11.282C52.6062 6.15321 64.1967 7.04019 65.3289 13.9099C65.4879 14.8752 65.2024 14.5867 66.1687 14.7827C70.3754 15.6358 72.6196 19.9789 72.2373 24.0879C72.1524 25.0007 71.952 24.7737 72.8295 24.9552C78.4011 26.1081 81.8046 32.0381 79.9394 37.4645C79.5471 38.6057 79.3246 38.2237 80.2792 38.8286C84.6968 41.6277 84.861 47.8567 82.3051 52.0755C83.5081 54.1893 84.0605 56.6975 83.7123 59.2006C83.3818 61.5762 82.2438 63.9403 80.0861 65.9495C77.582 68.2813 77.9078 69.5518 77.7747 72.501C77.4226 80.3064 59.8954 90.6335 51.7784 87.3865C50.738 86.9703 49.8592 86.3422 49.1966 85.4719C48.0762 84.0001 48.8898 84.0356 47.7441 85.5126C47.0854 86.3618 46.2181 86.9768 45.194 87.3865C37.0771 90.6335 19.5499 80.3064 19.1977 72.501C19.0646 69.5518 19.3904 68.2813 16.8863 65.9495C13.1533 62.4734 12.0958 57.3724 14.2671 52.8399C14.7648 51.8011 14.7092 52.2586 14.1961 51.2132C12.126 46.9947 12.5789 41.3006 16.8514 38.7309C17.5407 38.3163 17.4571 38.5773 17.1632 37.8202C15.048 32.3707 18.3552 26.2604 23.9707 24.9923C24.9479 24.7716 24.8333 25.0804 24.742 24.1448C24.3369 19.9922 26.587 15.6504 30.7839 14.7868C31.6899 14.6004 31.4981 14.8971 31.6255 14.0261C32.6426 7.06901 44.2831 6.12949 48.0231 11.2407C48.6594 12.1101 48.303 12.1391 48.9192 11.282ZM27.4298 65.4012C29.4489 59.8703 34.2975 56.4053 40.26 56.9034C41.1603 56.9775 41.0475 58.3463 40.1473 58.2722C34.8576 57.8303 30.6063 60.8555 28.7672 65.7402C28.5125 66.4164 28.4882 66.2543 29.1269 66.4895C30.7732 67.096 32.2087 67.9833 33.4414 69.1122C37.8825 73.1792 36.6792 75.5722 38.665 79.4092C39.078 80.2105 37.8595 80.8386 37.4465 80.0372C35.5828 76.436 36.679 73.9316 32.5182 70.1213C30.2967 68.087 27.3118 66.9261 23.4977 66.9261C22.5939 66.9261 22.5939 65.552 23.4977 65.552C24.5987 65.552 25.6383 65.6421 26.6176 65.8161C27.3539 65.9469 27.1818 66.0805 27.4298 65.4012ZM27.0641 50.9932C26.1639 50.9755 26.1907 49.6067 27.091 49.6244C31.2249 49.7106 34.1923 47.4259 35.0075 43.5398C35.2413 42.4254 35.2273 42.7139 34.2238 42.4183C30.2111 41.2362 26.6701 38.0483 25.5223 33.967C25.2787 33.0985 26.5992 32.7282 26.8428 33.5966C28.647 40.0118 38.0848 44.546 43.043 39.2216C43.6572 38.5614 44.661 39.4954 44.0467 40.1556C42.2781 42.0548 39.9056 42.93 37.3881 42.9044C36.2617 42.893 36.5886 42.6603 36.3553 43.7878C35.4122 48.3437 31.8807 51.0937 27.0641 50.9932Z"/>
</mask>
<path d="M33.0125 14.0454C32.8572 14.8675 32.9393 14.6316 33.702 14.7682C35.7423 15.1338 37.725 16.2831 38.2712 18.4131C38.4936 19.2852 37.1678 19.6233 36.9454 18.7513C36.4495 16.8175 34.1575 16.0474 32.3717 16.0073C28.1061 15.9114 25.7388 20.0939 26.1034 23.9827C26.1922 24.9297 26.1199 24.7328 26.9949 24.7609C31.2192 24.8966 34.9476 26.6997 35.7416 31.3185C35.8934 32.2082 34.5407 32.4389 34.3889 31.5494C33.6112 27.0252 29.4968 25.9106 25.4563 26.1551C17.901 26.6121 15.5483 35.4361 20.9812 41.1402C21.6025 41.7934 20.6095 42.738 19.9882 42.0849C19.3662 41.4319 18.8366 40.7757 18.3919 40.1208C17.9939 39.5349 18.1266 39.5461 17.4313 39.9875C11.4678 43.7735 14.7466 55.2117 22.467 55.3669C23.3672 55.3846 23.3405 56.7533 22.4402 56.7357C19.9452 56.6856 17.8667 55.6766 16.299 54.1432C15.4818 53.3438 15.6317 52.9922 15.1578 54.2505C13.7202 58.0671 14.7665 62.102 17.8203 64.9458C20.6935 67.6212 20.4123 69.0233 20.5665 72.442C20.878 79.3457 37.4772 88.9973 44.684 86.1143C46.5051 85.3859 47.6934 83.7821 47.7708 81.0163V74.4693C47.6174 72.1981 46.9014 70.3053 45.8788 68.8692C44.5337 66.9805 42.6669 65.8899 40.882 65.7898C39.9818 65.7403 40.057 64.3716 40.9572 64.421C43.1446 64.5437 45.4023 65.8379 46.9952 68.0748C47.9008 69.3464 47.7708 69.8438 47.7708 67.8928V50.161C47.7708 48.6265 47.9275 49.0313 47.1559 49.7685C46.1628 50.7173 44.9281 51.1513 43.5634 51.1113C42.6631 51.0866 42.7007 49.7178 43.6009 49.7425C44.7847 49.7779 45.8317 49.3057 46.5718 48.3788C47.2085 47.5815 47.6298 46.4651 47.7708 45.094V27.2464C47.7023 25.5997 47.256 24.273 46.5289 23.3624C45.7888 22.4356 44.7418 21.9634 43.5581 21.9988C42.6578 22.0235 42.6203 20.6547 43.5205 20.63C44.9742 20.5873 46.2516 21.0866 47.2379 22.0959C47.8298 22.7017 47.7596 23.046 47.7596 21.9839V14.7806C47.7596 7.82874 34.2424 7.53208 33.0125 14.0454ZM49.2017 53.1576C49.2017 54.8012 49.5381 56.0635 50.113 56.9551C50.6963 57.8598 51.5383 58.385 52.5237 58.5372C53.4133 58.6748 53.204 60.0275 52.3143 59.8899C51.3183 59.736 50.4288 59.3115 49.7071 58.613C49.0895 58.0154 49.2017 57.8042 49.2017 58.8792V72.6647C49.2017 74.5721 49.0933 74.0295 49.9772 72.7883C51.5701 70.5514 53.8278 69.2572 56.0152 69.1345C56.9155 69.085 56.9906 70.4538 56.0904 70.5032C54.3055 70.6034 52.4387 71.694 51.0937 73.5827C49.3824 75.9858 49.2017 78.2198 49.2017 81.0163C49.2791 83.7821 50.4673 85.3859 52.2884 86.1143C59.4952 88.9973 76.0944 79.3457 76.4059 72.442C76.5601 69.0233 76.2789 67.6212 79.1521 64.9458C81.0604 63.1687 82.065 61.0917 82.3543 59.0127C82.5667 57.486 82.3953 55.9545 81.9144 54.5369C81.4053 53.0363 81.5651 53.2629 80.7067 54.1104C79.1352 55.6622 77.045 56.6852 74.5322 56.7357C73.632 56.7533 73.6052 55.3846 74.5054 55.3669C77.1346 55.34 79.2892 54.015 80.709 52.0651C83.2975 48.5102 83.535 42.509 79.5208 39.975C78.8033 39.5221 78.9663 39.5593 78.5408 40.179C78.1043 40.8146 77.5878 41.4512 76.9842 42.0849C76.3629 42.738 75.3699 41.7934 75.9912 41.1402C81.544 35.3103 78.8957 26.6015 71.5162 26.1551C67.4757 25.9106 63.3612 27.0252 62.5835 31.5494C62.4317 32.4389 61.079 32.2082 61.2308 31.3185C62.0113 26.7785 65.6269 24.9589 69.7618 24.7693C70.7542 24.7238 70.7703 25.0098 70.8665 24.0057C71.2371 20.1385 68.8954 15.9107 64.6008 16.0073C62.815 16.0474 60.5229 16.8175 60.0271 18.7513C59.8047 19.6233 58.4788 19.2852 58.7012 18.4131C59.2487 16.278 61.2397 15.1282 63.2853 14.7655C64.0771 14.6252 64.1324 14.8523 63.9383 13.9375C62.5785 7.52801 49.2017 7.87183 49.2017 14.7958V31.1642C49.2017 32.4254 49.1092 32.018 49.8054 31.3323C50.7817 30.3708 52.0328 29.8959 53.4519 29.9376C54.3521 29.9623 54.3146 31.3311 53.4143 31.3064C52.2306 31.271 51.1836 31.7432 50.4435 32.67C49.7164 33.5806 49.2701 34.9073 49.2017 36.554V53.1576ZM69.3725 68.7861C67.2843 74.0188 62.5277 77.3208 56.7124 76.835C55.8121 76.7609 55.9249 75.3921 56.8251 75.4662C62.0162 75.8988 66.0509 72.9335 68.0631 68.2883C68.448 67.3996 68.5719 67.5197 67.7942 67.23C62.3079 65.1864 59.4998 60.1598 58.4125 54.5323C58.2233 53.4653 59.4825 53.1064 59.7403 54.1789C61.1615 61.6833 65.4519 66.8122 73.4747 66.8122C74.3785 66.8122 74.3785 68.1864 73.4747 68.1864C72.4272 68.1864 71.4354 68.1049 70.4981 67.9471C69.4471 67.7703 69.7972 67.7219 69.3725 68.7861ZM69.9083 35.3673C70.8085 35.385 70.7817 36.7538 69.8815 36.7361C65.6826 36.6485 62.6873 39.007 61.9281 43.0051C61.7696 43.8399 61.7171 43.6614 62.4617 43.8612C66.5982 44.9713 70.2785 48.2276 71.4501 52.3935C71.6937 53.262 70.3732 53.6323 70.1296 52.7639C68.3276 46.3564 58.9041 41.7967 53.9295 47.1389C53.3152 47.7991 52.3114 46.8651 52.9257 46.2049C54.6741 44.3273 57.0127 43.4506 59.4982 43.4556C60.5689 43.4577 60.3922 43.7599 60.5768 42.7773C61.4554 38.0992 65.0201 35.2653 69.9083 35.3673ZM48.9192 11.282C52.6062 6.15321 64.1967 7.04019 65.3289 13.9099C65.4879 14.8752 65.2024 14.5867 66.1687 14.7827C70.3754 15.6358 72.6196 19.9789 72.2373 24.0879C72.1524 25.0007 71.952 24.7737 72.8295 24.9552C78.4011 26.1081 81.8046 32.0381 79.9394 37.4645C79.5471 38.6057 79.3246 38.2237 80.2792 38.8286C84.6968 41.6277 84.861 47.8567 82.3051 52.0755C83.5081 54.1893 84.0605 56.6975 83.7123 59.2006C83.3818 61.5762 82.2438 63.9403 80.0861 65.9495C77.582 68.2813 77.9078 69.5518 77.7747 72.501C77.4226 80.3064 59.8954 90.6335 51.7784 87.3865C50.738 86.9703 49.8592 86.3422 49.1966 85.4719C48.0762 84.0001 48.8898 84.0356 47.7441 85.5126C47.0854 86.3618 46.2181 86.9768 45.194 87.3865C37.0771 90.6335 19.5499 80.3064 19.1977 72.501C19.0646 69.5518 19.3904 68.2813 16.8863 65.9495C13.1533 62.4734 12.0958 57.3724 14.2671 52.8399C14.7648 51.8011 14.7092 52.2586 14.1961 51.2132C12.126 46.9947 12.5789 41.3006 16.8514 38.7309C17.5407 38.3163 17.4571 38.5773 17.1632 37.8202C15.048 32.3707 18.3552 26.2604 23.9707 24.9923C24.9479 24.7716 24.8333 25.0804 24.742 24.1448C24.3369 19.9922 26.587 15.6504 30.7839 14.7868C31.6899 14.6004 31.4981 14.8971 31.6255 14.0261C32.6426 7.06901 44.2831 6.12949 48.0231 11.2407C48.6594 12.1101 48.303 12.1391 48.9192 11.282ZM27.4298 65.4012C29.4489 59.8703 34.2975 56.4053 40.26 56.9034C41.1603 56.9775 41.0475 58.3463 40.1473 58.2722C34.8576 57.8303 30.6063 60.8555 28.7672 65.7402C28.5125 66.4164 28.4882 66.2543 29.1269 66.4895C30.7732 67.096 32.2087 67.9833 33.4414 69.1122C37.8825 73.1792 36.6792 75.5722 38.665 79.4092C39.078 80.2105 37.8595 80.8386 37.4465 80.0372C35.5828 76.436 36.679 73.9316 32.5182 70.1213C30.2967 68.087 27.3118 66.9261 23.4977 66.9261C22.5939 66.9261 22.5939 65.552 23.4977 65.552C24.5987 65.552 25.6383 65.6421 26.6176 65.8161C27.3539 65.9469 27.1818 66.0805 27.4298 65.4012ZM27.0641 50.9932C26.1639 50.9755 26.1907 49.6067 27.091 49.6244C31.2249 49.7106 34.1923 47.4259 35.0075 43.5398C35.2413 42.4254 35.2273 42.7139 34.2238 42.4183C30.2111 41.2362 26.6701 38.0483 25.5223 33.967C25.2787 33.0985 26.5992 32.7282 26.8428 33.5966C28.647 40.0118 38.0848 44.546 43.043 39.2216C43.6572 38.5614 44.661 39.4954 44.0467 40.1556C42.2781 42.0548 39.9056 42.93 37.3881 42.9044C36.2617 42.893 36.5886 42.6603 36.3553 43.7878C35.4122 48.3437 31.8807 51.0937 27.0641 50.9932Z" fill="#351C0C"/>
<path d="M33.0125 14.0454C32.8572 14.8675 32.9393 14.6316 33.702 14.7682C35.7423 15.1338 37.725 16.2831 38.2712 18.4131C38.4936 19.2852 37.1678 19.6233 36.9454 18.7513C36.4495 16.8175 34.1575 16.0474 32.3717 16.0073C28.1061 15.9114 25.7388 20.0939 26.1034 23.9827C26.1922 24.9297 26.1199 24.7328 26.9949 24.7609C31.2192 24.8966 34.9476 26.6997 35.7416 31.3185C35.8934 32.2082 34.5407 32.4389 34.3889 31.5494C33.6112 27.0252 29.4968 25.9106 25.4563 26.1551C17.901 26.6121 15.5483 35.4361 20.9812 41.1402C21.6025 41.7934 20.6095 42.738 19.9882 42.0849C19.3662 41.4319 18.8366 40.7757 18.3919 40.1208C17.9939 39.5349 18.1266 39.5461 17.4313 39.9875C11.4678 43.7735 14.7466 55.2117 22.467 55.3669C23.3672 55.3846 23.3405 56.7533 22.4402 56.7357C19.9452 56.6856 17.8667 55.6766 16.299 54.1432C15.4818 53.3438 15.6317 52.9922 15.1578 54.2505C13.7202 58.0671 14.7665 62.102 17.8203 64.9458C20.6935 67.6212 20.4123 69.0233 20.5665 72.442C20.878 79.3457 37.4772 88.9973 44.684 86.1143C46.5051 85.3859 47.6934 83.7821 47.7708 81.0163V74.4693C47.6174 72.1981 46.9014 70.3053 45.8788 68.8692C44.5337 66.9805 42.6669 65.8899 40.882 65.7898C39.9818 65.7403 40.057 64.3716 40.9572 64.421C43.1446 64.5437 45.4023 65.8379 46.9952 68.0748C47.9008 69.3464 47.7708 69.8438 47.7708 67.8928V50.161C47.7708 48.6265 47.9275 49.0313 47.1559 49.7685C46.1628 50.7173 44.9281 51.1513 43.5634 51.1113C42.6631 51.0866 42.7007 49.7178 43.6009 49.7425C44.7847 49.7779 45.8317 49.3057 46.5718 48.3788C47.2085 47.5815 47.6298 46.4651 47.7708 45.094V27.2464C47.7023 25.5997 47.256 24.273 46.5289 23.3624C45.7888 22.4356 44.7418 21.9634 43.5581 21.9988C42.6578 22.0235 42.6203 20.6547 43.5205 20.63C44.9742 20.5873 46.2516 21.0866 47.2379 22.0959C47.8298 22.7017 47.7596 23.046 47.7596 21.9839V14.7806C47.7596 7.82874 34.2424 7.53208 33.0125 14.0454ZM49.2017 53.1576C49.2017 54.8012 49.5381 56.0635 50.113 56.9551C50.6963 57.8598 51.5383 58.385 52.5237 58.5372C53.4133 58.6748 53.204 60.0275 52.3143 59.8899C51.3183 59.736 50.4288 59.3115 49.7071 58.613C49.0895 58.0154 49.2017 57.8042 49.2017 58.8792V72.6647C49.2017 74.5721 49.0933 74.0295 49.9772 72.7883C51.5701 70.5514 53.8278 69.2572 56.0152 69.1345C56.9155 69.085 56.9906 70.4538 56.0904 70.5032C54.3055 70.6034 52.4387 71.694 51.0937 73.5827C49.3824 75.9858 49.2017 78.2198 49.2017 81.0163C49.2791 83.7821 50.4673 85.3859 52.2884 86.1143C59.4952 88.9973 76.0944 79.3457 76.4059 72.442C76.5601 69.0233 76.2789 67.6212 79.1521 64.9458C81.0604 63.1687 82.065 61.0917 82.3543 59.0127C82.5667 57.486 82.3953 55.9545 81.9144 54.5369C81.4053 53.0363 81.5651 53.2629 80.7067 54.1104C79.1352 55.6622 77.045 56.6852 74.5322 56.7357C73.632 56.7533 73.6052 55.3846 74.5054 55.3669C77.1346 55.34 79.2892 54.015 80.709 52.0651C83.2975 48.5102 83.535 42.509 79.5208 39.975C78.8033 39.5221 78.9663 39.5593 78.5408 40.179C78.1043 40.8146 77.5878 41.4512 76.9842 42.0849C76.3629 42.738 75.3699 41.7934 75.9912 41.1402C81.544 35.3103 78.8957 26.6015 71.5162 26.1551C67.4757 25.9106 63.3612 27.0252 62.5835 31.5494C62.4317 32.4389 61.079 32.2082 61.2308 31.3185C62.0113 26.7785 65.6269 24.9589 69.7618 24.7693C70.7542 24.7238 70.7703 25.0098 70.8665 24.0057C71.2371 20.1385 68.8954 15.9107 64.6008 16.0073C62.815 16.0474 60.5229 16.8175 60.0271 18.7513C59.8047 19.6233 58.4788 19.2852 58.7012 18.4131C59.2487 16.278 61.2397 15.1282 63.2853 14.7655C64.0771 14.6252 64.1324 14.8523 63.9383 13.9375C62.5785 7.52801 49.2017 7.87183 49.2017 14.7958V31.1642C49.2017 32.4254 49.1092 32.018 49.8054 31.3323C50.7817 30.3708 52.0328 29.8959 53.4519 29.9376C54.3521 29.9623 54.3146 31.3311 53.4143 31.3064C52.2306 31.271 51.1836 31.7432 50.4435 32.67C49.7164 33.5806 49.2701 34.9073 49.2017 36.554V53.1576ZM69.3725 68.7861C67.2843 74.0188 62.5277 77.3208 56.7124 76.835C55.8121 76.7609 55.9249 75.3921 56.8251 75.4662C62.0162 75.8988 66.0509 72.9335 68.0631 68.2883C68.448 67.3996 68.5719 67.5197 67.7942 67.23C62.3079 65.1864 59.4998 60.1598 58.4125 54.5323C58.2233 53.4653 59.4825 53.1064 59.7403 54.1789C61.1615 61.6833 65.4519 66.8122 73.4747 66.8122C74.3785 66.8122 74.3785 68.1864 73.4747 68.1864C72.4272 68.1864 71.4354 68.1049 70.4981 67.9471C69.4471 67.7703 69.7972 67.7219 69.3725 68.7861ZM69.9083 35.3673C70.8085 35.385 70.7817 36.7538 69.8815 36.7361C65.6826 36.6485 62.6873 39.007 61.9281 43.0051C61.7696 43.8399 61.7171 43.6614 62.4617 43.8612C66.5982 44.9713 70.2785 48.2276 71.4501 52.3935C71.6937 53.262 70.3732 53.6323 70.1296 52.7639C68.3276 46.3564 58.9041 41.7967 53.9295 47.1389C53.3152 47.7991 52.3114 46.8651 52.9257 46.2049C54.6741 44.3273 57.0127 43.4506 59.4982 43.4556C60.5689 43.4577 60.3922 43.7599 60.5768 42.7773C61.4554 38.0992 65.0201 35.2653 69.9083 35.3673ZM48.9192 11.282C52.6062 6.15321 64.1967 7.04019 65.3289 13.9099C65.4879 14.8752 65.2024 14.5867 66.1687 14.7827C70.3754 15.6358 72.6196 19.9789 72.2373 24.0879C72.1524 25.0007 71.952 24.7737 72.8295 24.9552C78.4011 26.1081 81.8046 32.0381 79.9394 37.4645C79.5471 38.6057 79.3246 38.2237 80.2792 38.8286C84.6968 41.6277 84.861 47.8567 82.3051 52.0755C83.5081 54.1893 84.0605 56.6975 83.7123 59.2006C83.3818 61.5762 82.2438 63.9403 80.0861 65.9495C77.582 68.2813 77.9078 69.5518 77.7747 72.501C77.4226 80.3064 59.8954 90.6335 51.7784 87.3865C50.738 86.9703 49.8592 86.3422 49.1966 85.4719C48.0762 84.0001 48.8898 84.0356 47.7441 85.5126C47.0854 86.3618 46.2181 86.9768 45.194 87.3865C37.0771 90.6335 19.5499 80.3064 19.1977 72.501C19.0646 69.5518 19.3904 68.2813 16.8863 65.9495C13.1533 62.4734 12.0958 57.3724 14.2671 52.8399C14.7648 51.8011 14.7092 52.2586 14.1961 51.2132C12.126 46.9947 12.5789 41.3006 16.8514 38.7309C17.5407 38.3163 17.4571 38.5773 17.1632 37.8202C15.048 32.3707 18.3552 26.2604 23.9707 24.9923C24.9479 24.7716 24.8333 25.0804 24.742 24.1448C24.3369 19.9922 26.587 15.6504 30.7839 14.7868C31.6899 14.6004 31.4981 14.8971 31.6255 14.0261C32.6426 7.06901 44.2831 6.12949 48.0231 11.2407C48.6594 12.1101 48.303 12.1391 48.9192 11.282ZM27.4298 65.4012C29.4489 59.8703 34.2975 56.4053 40.26 56.9034C41.1603 56.9775 41.0475 58.3463 40.1473 58.2722C34.8576 57.8303 30.6063 60.8555 28.7672 65.7402C28.5125 66.4164 28.4882 66.2543 29.1269 66.4895C30.7732 67.096 32.2087 67.9833 33.4414 69.1122C37.8825 73.1792 36.6792 75.5722 38.665 79.4092C39.078 80.2105 37.8595 80.8386 37.4465 80.0372C35.5828 76.436 36.679 73.9316 32.5182 70.1213C30.2967 68.087 27.3118 66.9261 23.4977 66.9261C22.5939 66.9261 22.5939 65.552 23.4977 65.552C24.5987 65.552 25.6383 65.6421 26.6176 65.8161C27.3539 65.9469 27.1818 66.0805 27.4298 65.4012ZM27.0641 50.9932C26.1639 50.9755 26.1907 49.6067 27.091 49.6244C31.2249 49.7106 34.1923 47.4259 35.0075 43.5398C35.2413 42.4254 35.2273 42.7139 34.2238 42.4183C30.2111 41.2362 26.6701 38.0483 25.5223 33.967C25.2787 33.0985 26.5992 32.7282 26.8428 33.5966C28.647 40.0118 38.0848 44.546 43.043 39.2216C43.6572 38.5614 44.661 39.4954 44.0467 40.1556C42.2781 42.0548 39.9056 42.93 37.3881 42.9044C36.2617 42.893 36.5886 42.6603 36.3553 43.7878C35.4122 48.3437 31.8807 51.0937 27.0641 50.9932Z" stroke="#351C0C" stroke-width="0.4" mask="url(#path-1-outside-1_2326_974)"/>
</svg>
