<svg width="96" height="96" viewBox="0 0 96 96" fill="none" xmlns="http://www.w3.org/2000/svg">
<path d="M79.1813 34.4104C84.6413 34.4104 89.0813 29.9704 89.0813 24.5104C89.0813 19.0504 84.6413 14.6104 79.1813 14.6104C73.7213 14.6104 69.2812 19.0504 69.2812 24.5104C69.2812 29.9704 73.7213 34.4104 79.1813 34.4104ZM79.1813 16.4304C83.6413 16.4304 87.2613 20.0604 87.2613 24.5104C87.2613 28.9604 83.6313 32.5904 79.1813 32.5904C74.7313 32.5904 71.1012 28.9604 71.1012 24.5104C71.1012 20.0604 74.7313 16.4304 79.1813 16.4304Z" fill="#351C0C"/>
<path d="M87.1557 44.4605H76.1957L73.8557 37.8605C73.6557 37.2905 73.3457 36.7605 72.9457 36.3005L56.5257 17.4005C55.6057 16.3405 54.2657 15.7305 52.8657 15.7305H37.9457C35.2757 15.7305 33.0957 17.9005 33.0957 20.5805C33.0957 23.2605 35.2657 25.4305 37.9457 25.4305H50.6557L53.9357 29.2105L39.4957 43.0605L38.1457 44.2805L5.64569 72.9005C4.69569 73.7305 4.11569 74.8905 4.01569 76.1505C3.91569 77.4105 4.29569 78.6405 5.09569 79.6205C6.01569 80.7505 7.38569 81.4005 8.84569 81.4005C9.91569 81.4005 10.9257 81.0605 11.7857 80.4105L40.3057 58.6805L48.8357 67.0505L34.6157 70.7405C32.0257 71.4105 30.4657 74.0605 31.1457 76.6505C31.7057 78.7905 33.6257 80.2805 35.8357 80.2805C36.2457 80.2805 36.6557 80.2305 37.0557 80.1205L59.5057 74.2905C59.5057 74.2905 59.5257 74.2905 59.5357 74.2905H59.5657C59.5657 74.2905 59.5857 74.2805 59.5957 74.2705C59.6757 74.2505 59.7457 74.2305 59.8257 74.2005H59.8557C59.9357 74.1605 60.0157 74.1305 60.0957 74.1005C60.0957 74.1005 60.1057 74.1005 60.1157 74.1005C60.4657 73.9605 60.7957 73.7905 61.1057 73.5705L61.1457 73.5405C61.2057 73.5005 61.2657 73.4505 61.3157 73.4105C61.3357 73.4005 61.3557 73.3805 61.3757 73.3605C61.4257 73.3205 61.4757 73.2805 61.5257 73.2405C61.5257 73.2405 61.5657 73.2005 61.5857 73.1805C61.6257 73.1405 61.6757 73.1005 61.7157 73.0605H61.7257C61.7257 73.0605 61.7557 73.0205 61.7757 73.0005C61.7757 73.0005 61.7857 72.9905 61.7957 72.9805C61.8457 72.9305 61.8857 72.8905 61.9257 72.8405C61.9357 72.8305 61.9457 72.8205 61.9557 72.8005C62.0157 72.7305 62.0757 72.6605 62.1257 72.5905C62.1257 72.5905 62.1357 72.5705 62.1457 72.5605C62.1957 72.5005 62.2457 72.4305 62.2957 72.3605C62.2957 72.3605 62.3057 72.3405 62.3157 72.3305C62.3657 72.2605 62.4057 72.1905 62.4557 72.1205V72.1005C62.5157 72.0205 62.5557 71.9505 62.5957 71.8705C62.5957 71.8705 62.5957 71.8705 62.5957 71.8605C62.7357 71.6105 62.8457 71.3405 62.9357 71.0705C62.9657 70.9805 62.9857 70.8905 63.0057 70.8105C63.0057 70.7905 63.0057 70.7805 63.0157 70.7705C63.0357 70.6905 63.0557 70.6105 63.0657 70.5305V70.4905C63.1057 70.3105 63.1357 70.1305 63.1457 69.9505C63.1457 69.9305 63.1457 69.9105 63.1457 69.8905V69.8705C63.1457 69.8105 63.1457 69.7505 63.1457 69.6805C63.1457 69.6505 63.1457 69.6205 63.1457 69.5905C63.1457 69.5305 63.1457 69.4705 63.1457 69.4105C63.1457 69.4105 63.1457 69.3505 63.1457 69.3205C63.1457 69.2505 63.1457 69.1805 63.1257 69.1105C63.1257 69.0905 63.1257 69.0805 63.1257 69.0605C63.1257 68.9705 63.1057 68.8805 63.0957 68.7905C63.0957 68.7805 63.0957 68.7705 63.0957 68.7605C63.0857 68.6805 63.0657 68.6005 63.0557 68.5305C63.0557 68.5205 63.0557 68.5005 63.0557 68.4905C63.0357 68.4105 63.0157 68.3305 62.9957 68.2605V68.2205C62.9557 68.1405 62.9357 68.0505 62.9057 67.9705C62.8157 67.7005 62.6957 67.4405 62.5557 67.1905C62.5157 67.1105 62.4657 67.0305 62.4257 66.9605C62.4257 66.9605 62.4257 66.9405 62.4157 66.9405L62.3757 66.8805L53.3857 52.9305L65.8057 44.1705L68.1957 50.9205C68.8757 52.8505 70.7157 54.1505 72.7657 54.1505H87.1457C89.8157 54.1505 91.9957 51.9805 91.9957 49.3005C91.9957 46.6205 89.8257 44.4505 87.1457 44.4505L87.1557 44.4605ZM10.6857 78.9505C10.1557 79.3605 9.51569 79.5705 8.85569 79.5705C7.94569 79.5705 7.08569 79.1705 6.51569 78.4605C5.47569 77.1905 5.62569 75.3505 6.85569 74.2705L35.3957 49.1405C35.3257 49.5605 35.2857 49.9805 35.2857 50.4105C35.2757 52.5505 36.1057 54.5605 37.6357 56.0605L38.9957 57.3905L10.6857 78.9605V78.9505ZM87.1557 52.3305H72.7757C71.4957 52.3305 70.3457 51.5205 69.9257 50.3105L67.1357 42.4305C67.0357 42.1605 66.8257 41.9505 66.5557 41.8705C66.2857 41.7805 65.9857 41.8305 65.7557 41.9905L51.6457 51.9405C51.2457 52.2205 51.1457 52.7705 51.4057 53.1805L60.8657 67.8705L60.8957 67.9205C60.8957 67.9205 60.8957 67.9305 60.9057 67.9405C60.9357 67.9905 60.9657 68.0405 60.9957 68.0905C61.0857 68.2405 61.1557 68.4105 61.2157 68.5705C61.2357 68.6205 61.2457 68.6705 61.2657 68.7305V68.7505C61.2657 68.7505 61.2957 68.8405 61.3057 68.8905V68.9205C61.3257 68.9705 61.3357 69.0205 61.3457 69.0705C61.3457 69.1305 61.3657 69.1905 61.3657 69.2405C61.3657 69.2505 61.3657 69.2605 61.3657 69.2705C61.3657 69.3105 61.3657 69.3605 61.3657 69.4005C61.3657 69.4105 61.3657 69.4305 61.3657 69.4405V69.4605C61.3657 69.4605 61.3657 69.5305 61.3657 69.5705C61.3657 69.5905 61.3657 69.6105 61.3657 69.6305C61.3657 69.6705 61.3657 69.7105 61.3657 69.7505V69.8005C61.3557 69.9105 61.3357 70.0205 61.3157 70.1305V70.1605C61.3157 70.1605 61.2857 70.2605 61.2757 70.3105V70.3305C61.2557 70.3805 61.2357 70.4405 61.2257 70.4805C61.1757 70.6605 61.1057 70.8205 61.0157 70.9805C61.0157 70.9805 61.0157 70.9805 61.0157 70.9905C60.9857 71.0405 60.9657 71.0805 60.9357 71.1305V71.1505C60.9357 71.1505 60.8657 71.2405 60.8357 71.2805V71.3005C60.8357 71.3005 60.7557 71.3905 60.7257 71.4305C60.6957 71.4705 60.6557 71.5105 60.6257 71.5505C60.6257 71.5505 60.6057 71.5705 60.5957 71.5805C60.5757 71.6105 60.5457 71.6305 60.5257 71.6605C60.5257 71.6605 60.5157 71.6705 60.5057 71.6805C60.5057 71.6805 60.4957 71.6905 60.4857 71.7005L60.4657 71.7205C60.4657 71.7205 60.4157 71.7705 60.3857 71.8005C60.3757 71.8005 60.3657 71.8205 60.3557 71.8305H60.3457C60.3457 71.8305 60.2857 71.8905 60.2557 71.9205L60.2157 71.9505C60.2157 71.9505 60.1457 72.0105 60.1057 72.0305L60.0757 72.0505C59.8857 72.1805 59.6857 72.2905 59.4657 72.3805H59.4557C59.4057 72.4005 59.3557 72.4205 59.2957 72.4405H59.2857C59.2357 72.4605 59.1757 72.4805 59.1357 72.4905C59.1357 72.4905 59.1357 72.4905 59.1257 72.4905C59.1257 72.4905 59.1257 72.4905 59.1157 72.4905H59.0957C59.0957 72.4905 59.0957 72.4905 59.0857 72.4905L36.6257 78.3205C36.3757 78.3905 36.1157 78.4205 35.8657 78.4205C34.4857 78.4205 33.2857 77.4905 32.9357 76.1505C32.5157 74.5305 33.4857 72.8805 35.1057 72.4605L50.8757 68.3605C51.1957 68.2805 51.4457 68.0305 51.5257 67.7105C51.6057 67.3905 51.5257 67.0605 51.2857 66.8305L38.9357 54.7205C37.7657 53.5705 37.1157 52.0305 37.1257 50.3805C37.1257 48.7405 37.7957 47.2005 38.9857 46.0605L55.8557 29.8805C56.2057 29.5405 56.2357 28.9905 55.9157 28.6305L51.7957 23.8905C51.6257 23.6905 51.3757 23.5805 51.1057 23.5805H37.9757C36.3057 23.5805 34.9457 22.2205 34.9457 20.5505C34.9457 18.8805 36.3057 17.5205 37.9757 17.5205H52.8957C53.7757 17.5205 54.6057 17.9005 55.1857 18.5605L71.6057 37.4605C71.8557 37.7505 72.0457 38.0805 72.1757 38.4305L74.7257 45.6305C74.8557 45.9905 75.1957 46.2405 75.5857 46.2405H87.1857C88.8557 46.2405 90.2157 47.6005 90.2157 49.2705C90.2157 50.9405 88.8557 52.3005 87.1857 52.3005L87.1557 52.3305Z" fill="#351C0C"/>
</svg>
