<svg width="120" height="120" viewBox="0 0 120 120" fill="none" xmlns="http://www.w3.org/2000/svg">
<path fill-rule="evenodd" clip-rule="evenodd" d="M65.9209 12.5271C66.1745 14.4728 65.3102 15.8805 67.4165 17.5124C68.2786 18.1803 69.1042 19.1686 69.3615 21.2426C72.7141 22.5175 73.3094 23.464 73.3094 33.7367C72.9025 41.0644 72.728 41.1524 73.9568 48.3877C74.0638 51.1186 74.1709 55.329 74.2779 58.0592C75.0968 62.9771 76.0719 65.1875 73.7735 67.8576C71.7104 70.2557 71.8256 69.406 72.9106 66.8737C73.8431 62.8305 72.8314 62.5563 72.22 64.8209C71.7127 66.7029 71.1107 68.1934 70.9795 64.7036C70.9407 63.689 70.8945 63.4419 72.1892 61.112C71.8043 57.4537 71.0426 52.7807 70.2618 49.1912C68.5778 40.961 68.676 37.5798 68.9722 29.7213C68.1547 35.1304 66.2024 41.5036 67.687 46.8496C70.9934 56.9625 71.3703 58.8518 69.4539 69.0753C68.7046 72.395 67.9546 75.7945 67.2053 79.1142C67.7222 88.9389 66.7127 93.3436 65.1203 99.8429C63.97 104.542 63.316 108.365 62.9077 114.162C63.8923 116.13 65.5616 116.937 66.8835 118.699C64.025 120.239 63.9744 119.984 60.7794 119.984C60.3732 109.827 60.0118 100.317 60.7823 90.1075C61.143 85.7754 60.9187 83.09 60.2977 78.9521C60.3234 76.362 60.7662 61.4412 59.5998 60.3107C58.7508 61.3349 58.8762 76.362 58.9011 78.9521C58.2809 83.09 58.0565 85.8282 58.4172 90.1603C59.1878 100.37 58.8256 109.826 58.4194 119.984C55.2244 119.984 55.1746 120.239 52.3153 118.699C53.6379 116.937 55.3073 116.129 56.2911 114.162C55.8769 108.122 55.212 104.9 54.0558 100.172C52.481 93.7314 51.4796 88.8913 51.9942 79.1134C51.245 75.7938 50.495 72.3942 49.7457 69.0746C47.8293 58.851 48.2061 56.5387 51.5126 46.4258C52.9979 41.0798 51.0455 35.1289 50.2281 29.7199C50.5243 38.4237 50.7281 40.854 49.0448 49.0842C48.264 52.6736 47.396 57.4522 47.0118 61.1105C48.3784 63.5709 48.1137 63.7616 47.9129 65.2374C47.4796 68.4074 47.2105 67.0035 46.701 65.0951C46.0786 62.7616 45.2948 62.7916 46.2369 66.873C47.7105 70.3107 46.5947 69.4588 45.0859 67.4324C43.2333 64.9426 44.1482 62.7132 44.9239 58.0585C45.0309 55.3276 45.2442 51.0116 45.3513 48.2814C46.58 41.0461 46.2992 41.0637 45.8923 33.736C45.8923 21.8431 46.5382 22.8269 52.7142 20.3951C52.036 19.3841 51.9796 16.9816 52.481 16.1055C54.4062 12.7456 53.2501 9.06742 53.5235 6.44573C53.8835 2.99339 55.6247 0.0769793 59.602 0C65.6137 0.0571846 65.6203 7.31596 65.9209 12.5271Z" fill="#351C0C"/>
</svg>
