<svg width="96" height="96" viewBox="0 0 96 96" fill="none" xmlns="http://www.w3.org/2000/svg">
<path d="M92 73.2213C88.4625 54.5447 80.7567 36.7772 68.3385 18.6436L68.2473 18.5524C63.623 13.5669 58.2767 9.57716 52.4742 6.85675C49.9359 5.76993 47.941 5.22648 46.2195 5.04419C43.32 4.77073 40.4172 5.76993 38.331 7.94366L33.0721 13.2026C31.6206 14.6541 31.6206 16.9189 32.9809 18.2792C33.342 18.7315 33.9766 19.0961 34.5236 19.2749C34.5236 19.4573 34.4324 19.7272 34.4324 19.9095C34.4324 20.9052 34.7936 21.8133 35.5193 22.539C35.9715 22.9913 36.515 23.2647 37.1495 23.447C36.7884 24.625 36.9672 25.9853 37.8753 26.8934L41.5916 30.6097C42.3173 31.1531 43.043 31.4265 43.6776 31.4265C44.4033 31.4265 45.1291 31.1531 45.7636 30.6097L45.8548 30.5185L48.302 27.9802C48.8454 27.4368 49.21 26.8022 49.2977 25.9853V25.803C51.836 27.0722 54.3743 27.3456 56.9127 26.6199L59.9032 37.0464C58.7252 43.8445 58.3606 51.2803 58.9952 58.1697C53.8274 53.363 46.2126 51.4593 36.1504 52.4585C25.9061 46.1127 15.8439 45.2047 4.60056 49.6467C4.14829 49.829 3.87483 50.3725 4.05714 50.8247C4.23944 51.277 4.78287 51.5505 5.23514 51.3682C16.0234 47.1084 25.6332 48.0129 35.4253 54.1799C35.6076 54.2711 35.7864 54.3622 35.9687 54.2711C46.9392 53.0931 54.6453 55.4491 59.36 61.2514C59.4512 61.4337 59.5424 61.5249 59.6335 61.6125C60.8115 63.1552 61.8983 65.0589 62.6241 67.1415C62.8064 67.5026 63.0763 67.6849 63.441 67.6849C63.5321 67.6849 63.6233 67.6849 63.8021 67.5938C64.2544 67.4115 64.5278 66.868 64.3455 66.4158C63.4375 64.1509 62.3506 62.156 60.9903 60.431C60.0823 52.9984 60.2645 44.4757 61.6249 37.0397V36.5874L58.2696 25.0739C58.1785 24.8005 57.9962 24.6217 57.8174 24.5305C57.5439 24.4394 57.3651 24.4394 57.0916 24.5305C53.7364 25.7997 50.4724 24.9828 46.9388 21.9922C46.5777 21.7187 46.0308 21.7187 45.6696 22.0834L43.6747 24.1694C43.3136 24.5305 43.3136 25.0774 43.6747 25.4386C44.0358 25.7998 44.5827 25.7997 44.9439 25.4386L45.305 25.0775C45.3961 25.0775 45.4873 24.9863 45.5784 24.8952C46.0307 24.5341 46.7564 24.5341 47.1211 24.9863C47.3034 25.1686 47.3946 25.4386 47.3946 25.8032C47.3946 26.0767 47.2123 26.3466 46.9423 26.6201L44.404 29.2496C43.7694 29.793 43.226 29.793 42.5003 29.2496L38.9663 25.7156C38.4228 25.1722 38.4228 24.1729 38.9663 23.5384L44.2252 18.2794C44.4987 18.0059 44.7687 17.9183 45.2209 17.8271L46.6724 17.736C47.2158 17.736 47.5804 17.2837 47.4893 16.7402C47.3982 16.1968 47.037 15.8322 46.4936 15.9234L44.9509 16.0145H44.8598C44.3163 16.1057 43.4995 16.288 42.8648 17.0102L38.0581 21.8169C37.5147 21.9081 36.9713 21.7258 36.5155 21.3647C36.1544 21.0035 35.972 20.5478 35.972 20.0955C35.972 19.6432 36.1543 19.0997 36.5155 18.8263L42.5002 12.8416C42.7736 12.5681 43.2259 12.3893 43.7694 12.2981L45.5819 12.1158C46.0342 12.0247 46.49 11.6636 46.3988 11.1201C46.6723 10.4855 46.2165 10.1209 45.7642 10.1209L43.9517 10.3032C43.0437 10.3944 42.2302 10.7555 41.5957 11.39L35.611 17.3747C35.5198 17.4659 35.4287 17.557 35.4287 17.6482C35.0675 17.6482 34.7029 17.4659 34.4329 17.1048C33.7072 16.379 33.7072 15.201 34.4329 14.4753L39.6007 9.21631C41.3222 7.49486 43.6817 6.58683 46.0377 6.8603C47.5804 7.04261 49.3929 7.58604 51.7489 8.49057C57.369 11.1201 62.4457 14.9275 66.8875 19.7303C79.0356 37.4987 86.6511 54.9968 90.0967 73.2211C81.0299 90.0848 56.5516 87.9074 32.164 84.2823C22.0112 80.927 19.9244 84.8257 18.1123 88.272L17.7512 88.9066C17.4777 89.3589 17.66 89.9023 18.1123 90.1758C18.2946 90.267 18.3858 90.267 18.5646 90.267C18.9257 90.267 19.1992 90.0847 19.3815 89.8147L19.7426 89.1801C21.464 85.9161 22.9155 83.1954 31.6169 86.0984H31.7992C57.0035 89.9059 82.2959 92.0831 91.8141 73.8588C91.9999 73.673 92 73.4036 92 73.2213Z" fill="#351C0C"/>
</svg>
