<svg width="96" height="96" viewBox="0 0 96 96" fill="none" xmlns="http://www.w3.org/2000/svg">
<path d="M18.5154 27.4318C18.7556 26.9944 19.3049 26.8345 19.7422 27.0747C20.1796 27.3148 20.3395 27.8642 20.0993 28.3015C15.5037 36.6275 15.5726 52.4377 15.6127 61.6146C15.6236 64.1185 15.6324 66.1398 15.5476 67.3937C15.4405 68.9782 14.8189 70.15 14.1348 71.4393C13.349 72.9203 12.4696 74.5779 12.3935 77.2164C12.329 79.4543 13.3744 80.9164 14.7299 81.5721C15.5212 81.9549 16.4174 82.0712 17.2587 81.913C18.0835 81.7578 18.8538 81.3359 19.4129 80.6397C20.491 79.2973 20.8139 76.9203 19.3861 73.4061C19.0065 72.4719 18.6096 71.7402 18.2539 71.0843C17.6057 69.8893 17.0809 68.9218 16.9028 67.3355C16.8845 67.1725 16.8382 66.8677 16.7776 66.4691C16.4814 64.5188 15.8411 60.304 15.8323 53.6338C15.8303 52.1152 15.8607 50.4811 15.935 48.7334C16.0115 46.9335 16.1298 45.0428 16.3007 43.0709C16.3436 42.5729 16.7821 42.2041 17.28 42.2471C17.778 42.29 18.1468 42.7285 18.1038 43.2265C17.9281 45.2553 17.8102 47.1102 17.7382 48.8041C17.6639 50.5503 17.6335 52.1585 17.6354 53.6338C17.644 60.127 18.2748 64.2791 18.5666 66.2003C18.6253 66.587 18.6703 66.8826 18.6989 67.1375C18.8365 68.3624 19.2876 69.1942 19.8449 70.2216C20.2198 70.9127 20.6379 71.6837 21.0619 72.7272C22.7797 76.9551 22.2699 79.9659 20.8201 81.7711C19.9767 82.8213 18.8226 83.4562 17.5911 83.6879C16.3761 83.9164 15.0839 83.7495 13.945 83.1985C12.0022 82.2588 10.5021 80.2259 10.5903 77.1669C10.6788 74.0996 11.66 72.2502 12.5366 70.5978C13.1269 69.4853 13.6632 68.4744 13.7445 67.2735C13.8287 66.0273 13.8201 64.0594 13.8095 61.6216C13.7687 52.2699 13.6984 36.1586 18.5154 27.4318ZM81.423 9.98052C81.6632 9.54314 82.2125 9.38325 82.6499 9.62343C83.0873 9.8636 83.2471 10.4129 83.007 10.8503C78.4113 19.1762 78.4803 34.9863 78.5203 44.1632C78.5313 46.6672 78.5401 48.6885 78.4553 49.9425C78.3481 51.5271 77.7265 52.6987 77.0424 53.9881C76.2567 55.4691 75.3773 57.1267 75.3012 59.7651C75.2367 62.0031 76.282 63.4652 77.6376 64.1209C78.4289 64.5037 79.3251 64.6199 80.1664 64.4617C80.9911 64.3066 81.7614 63.8847 82.3206 63.1885C83.3987 61.8461 83.7216 59.469 82.2937 55.9548C81.9141 55.0207 81.5173 54.289 81.1615 53.6331C80.5133 52.4381 79.9886 51.4706 79.8104 49.8843C79.7921 49.7212 79.7458 49.4165 79.6852 49.0178C79.389 47.0676 78.7487 42.8527 78.7399 36.1826C78.7379 34.664 78.7684 33.0298 78.8426 31.2822C78.9192 29.4823 79.0375 27.5915 79.2083 25.6196C79.2513 25.1217 79.6898 24.7529 80.1877 24.7958C80.6856 24.8388 81.0544 25.2773 81.0115 25.7752C80.8357 27.8041 80.7178 29.6589 80.6458 31.3529C80.5716 33.0991 80.5411 34.7072 80.5431 36.1826C80.5516 42.6757 81.1824 46.8279 81.4743 48.7491C81.533 49.1357 81.5779 49.4315 81.6065 49.6863C81.7441 50.9112 82.1953 51.743 82.7526 52.7704C83.1274 53.4615 83.5456 54.2325 83.9696 55.276C85.6874 59.5038 85.1776 62.5146 83.7278 64.3199C82.8844 65.37 81.7302 66.005 80.4987 66.2366C79.2837 66.4652 77.9916 66.2982 76.8526 65.7473C74.9098 64.8075 73.4098 62.7746 73.498 59.7156C73.5865 56.6484 74.5676 54.799 75.4443 53.1466C76.0345 52.0341 76.5709 51.0231 76.6521 49.8223C76.7364 48.5761 76.7278 46.6081 76.7171 44.1702C76.6763 34.8185 76.606 18.7074 81.423 9.98052ZM68.0607 70.1284H69.1978V70.1307C72.1836 70.0203 72.968 71.1579 73.0177 72.3991C73.0454 73.0898 72.7989 73.7145 72.6273 74.149C72.5836 74.2599 72.5455 74.3562 72.5417 74.3682C72.2193 75.3728 72.0541 76.3842 72.0431 77.362C72.0248 79.0017 72.4361 80.5523 73.2627 81.8194C74.0768 83.0674 75.3046 84.0473 76.9327 84.5698C77.7441 84.8302 78.6542 84.9787 79.6614 84.9929C80.3423 84.9652 80.9699 84.8683 81.5447 84.7115C83.3251 84.2257 84.6377 83.1544 85.4879 81.7806C86.3566 80.3768 86.7535 78.6525 86.6841 76.9C86.6543 76.1481 86.5392 75.3943 86.3393 74.6615C86.3323 74.6358 86.3027 74.5512 86.2674 74.4501C86.1147 74.0127 85.8768 73.3312 85.8933 72.6042C85.9231 71.3 86.6152 70.0763 89.2856 70.1317V70.1284H94.8941C95.394 70.1284 95.7992 70.5337 95.7992 71.0335C95.7992 71.5334 95.394 71.9387 94.8941 71.9387H89.2856L89.2679 71.9351C88.0226 71.9067 87.7051 72.2601 87.6965 72.6395C87.6873 73.042 87.8605 73.5379 87.9716 73.8561C88.0134 73.9759 88.0485 74.0764 88.0788 74.1877C88.316 75.0569 88.4523 75.9463 88.4873 76.8293C88.5704 78.9289 88.0843 81.0121 87.0223 82.7281C85.9418 84.4742 84.276 85.8351 82.0185 86.451C81.3076 86.645 80.5419 86.764 79.7218 86.7965H79.6794C78.4661 86.7829 77.3658 86.6041 76.3811 86.2881C74.3348 85.6314 72.7845 84.389 71.7494 82.8023C70.7268 81.2347 70.2177 79.3377 70.24 77.3478C70.253 76.1847 70.4463 74.9916 70.8233 73.8167C70.8675 73.679 70.9034 73.5882 70.9444 73.4843C71.0601 73.191 71.2265 72.7694 71.2145 72.4698C71.2019 72.1538 70.803 71.8722 69.2331 71.9351L69.1978 71.9387H68.0607H59.0075H57.4522L57.4345 71.9351C56.1892 71.9067 55.8718 72.2601 55.8631 72.6395C55.854 73.042 56.0271 73.5379 56.1382 73.8561C56.1801 73.9759 56.2151 74.0764 56.2455 74.1877C56.4826 75.0569 56.6189 75.9463 56.6539 76.8293C56.7371 78.9289 56.2509 81.0121 55.189 82.7281C54.1085 84.4741 52.4426 85.8352 50.1851 86.451C49.4742 86.645 48.7085 86.764 47.8884 86.7965H47.846C46.6327 86.7829 45.5324 86.6041 44.5477 86.2881C42.5014 85.6314 40.9511 84.389 39.916 82.8023C38.8934 81.2347 38.3843 79.3377 38.4066 77.3478C38.4196 76.1847 38.6129 74.9916 38.99 73.8167C39.0282 73.6976 39.0667 73.6 39.111 73.4878C39.2268 73.1944 39.3933 72.7726 39.3812 72.4698C39.3685 72.1538 38.9697 71.8722 37.3998 71.9351L37.3644 71.9387H36.9909H27.1741H26.3824L26.3647 71.9351C25.1194 71.9067 24.802 72.2601 24.7933 72.6395C24.7842 73.0419 24.9573 73.5378 25.0684 73.856C25.1102 73.9759 25.1452 74.0762 25.1756 74.1877C25.4128 75.0569 25.5491 75.9463 25.5841 76.8294C25.6673 78.929 25.1811 81.0121 24.1191 82.7281C23.0387 84.4741 21.3728 85.8351 19.1154 86.451C18.4045 86.645 17.6387 86.764 16.8186 86.7965H16.7762C15.5629 86.7829 14.4626 86.6041 13.4779 86.2881C11.4316 85.6314 9.88132 84.389 8.84625 82.8023C7.82362 81.2347 7.31449 79.3377 7.33677 77.3478C7.34981 76.1847 7.54312 74.9916 7.92017 73.8167C7.95837 73.6976 7.99692 73.6 8.04119 73.4878C8.15702 73.1944 8.32347 72.7726 8.31137 72.4698C8.29872 72.1538 7.89985 71.8722 6.32998 71.9351L6.29462 71.9387H1.10434C0.604464 71.9387 0.199219 71.5334 0.199219 71.0335C0.199219 70.5337 0.604464 70.1284 1.10434 70.1284H6.29462V70.1307C9.28041 70.0203 10.0648 71.1579 10.1145 72.3991C10.1421 73.0866 9.89565 73.711 9.72417 74.1454C9.68369 74.248 9.64834 74.3376 9.6385 74.3682C9.3161 75.3728 9.15093 76.3842 9.13996 77.362C9.12158 79.0017 9.53292 80.5523 10.3595 81.8194C11.1737 83.0674 12.4015 84.0473 14.0295 84.5698C14.8409 84.8302 15.751 84.9787 16.7583 84.9929C17.4392 84.9652 18.0668 84.8683 18.6416 84.7115C20.422 84.2257 21.7345 83.1544 22.5847 81.7806C23.4534 80.3768 23.8503 78.6524 23.7809 76.9001C23.7511 76.1481 23.636 75.3943 23.4361 74.6615C23.4291 74.6359 23.3995 74.5512 23.3642 74.45C23.2115 74.0126 22.9736 73.3311 22.9901 72.6042C23.0199 71.3 23.712 70.0763 26.3824 70.1317V70.1284H27.1741H36.9909H37.3644V70.1307C40.3503 70.0203 41.1346 71.1579 41.1843 72.3991C41.2119 73.0866 40.9655 73.711 40.794 74.1454C40.7535 74.248 40.7182 74.3376 40.7083 74.3682C40.3859 75.3728 40.2208 76.3842 40.2098 77.362C40.1914 79.0017 40.6028 80.5523 41.4293 81.8194C42.2435 83.0674 43.4713 84.0473 45.0993 84.5698C45.9107 84.8302 46.8208 84.9787 47.8281 84.9929C48.509 84.9652 49.1365 84.8683 49.7113 84.7115C51.4918 84.2258 52.8044 83.1544 53.6545 81.7806C54.5232 80.3768 54.9201 78.6524 54.8507 76.9C54.8209 76.148 54.7058 75.3942 54.5059 74.6615C54.4989 74.6358 54.4694 74.5512 54.4341 74.4501C54.2814 74.0127 54.0434 73.3312 54.06 72.6042C54.0897 71.3 54.7819 70.0763 57.4522 70.1317V70.1284H59.0075H68.0607ZM49.8641 19.472C50.1043 19.0346 50.6536 18.8747 51.091 19.1149C51.5283 19.3551 51.6882 19.9044 51.4481 20.3418C46.8524 28.6677 46.9214 44.4778 46.9614 53.6547C46.9723 56.1587 46.9811 58.18 46.8963 59.434C46.7892 61.0185 46.1676 62.1902 45.4835 63.4796C44.6978 64.9606 43.8183 66.6182 43.7423 69.2566C43.6778 71.4946 44.7231 72.9567 46.0786 73.6124C46.87 73.9952 47.7661 74.1115 48.6074 73.9532C49.4322 73.7981 50.2025 73.3762 50.7616 72.68C51.8397 71.3376 52.1626 68.9605 50.7348 65.4463C50.3552 64.5122 49.9584 63.7805 49.6026 63.1246C48.9544 61.9295 48.4296 60.9621 48.2515 59.3758C48.2332 59.2127 48.1869 58.9079 48.1263 58.5093C47.8301 56.5591 47.1898 52.3442 47.181 45.6741C47.179 44.1555 47.2094 42.5213 47.2837 40.7737C47.3602 38.9738 47.4786 37.083 47.6494 35.1111C47.6923 34.6132 48.1308 34.2444 48.6288 34.2873C49.1267 34.3303 49.4955 34.7688 49.4526 35.2667C49.2768 37.2956 49.1589 39.1505 49.0869 40.8444C49.0127 42.5906 48.9822 44.1987 48.9841 45.6741C48.9927 52.1672 49.6235 56.3194 49.9153 58.2406C49.9741 58.6272 50.019 58.923 50.0476 59.1778C50.1852 60.4027 50.6363 61.2345 51.1936 62.2619C51.5685 62.953 51.9867 63.724 52.4107 64.7675C54.1285 68.9953 53.6187 72.0061 52.1688 73.8114C51.3254 74.8615 50.1713 75.4965 48.9398 75.7281C47.7248 75.9567 46.4327 75.7897 45.2937 75.2388C43.3509 74.299 41.8509 72.2661 41.9391 69.2071C42.0275 66.1399 43.0087 64.2905 43.8854 62.6381C44.4756 61.5256 45.012 60.5146 45.0932 59.3138C45.1774 58.0676 45.1689 56.0996 45.1582 53.6618C45.1174 44.31 45.0471 28.1989 49.8641 19.472Z" fill="#351C0C"/>
</svg>
