<svg width="96" height="96" viewBox="0 0 96 96" fill="none" xmlns="http://www.w3.org/2000/svg">
<path d="M18.8725 38.5971C16.1772 39.0703 13.3724 38.7203 11.1036 37.5632C10.2112 37.108 10.3811 37.1704 10.8471 38.3619C12.4597 42.4865 13.687 44.6996 12.7749 49.8669C12.5791 50.982 11.1747 50.6227 11.3705 49.5074C11.7042 47.6173 11.6793 46.058 11.464 44.7094C11.0769 42.2838 11.1236 43.2045 10.8901 44.6449C10.6909 45.875 10.4173 47.3209 10.129 48.738C9.36727 52.4815 8.46919 55.8083 8.44739 59.7852C8.35262 76.5348 35.9583 74.7305 39.4478 64.5062C40.8441 60.2975 39.8356 54.9157 38.8656 50.5945C38.4153 48.5888 37.9617 46.5073 37.6466 44.5212C37.4696 43.4055 37.5338 42.389 37.1483 44.312C36.8601 45.7497 36.7893 47.4262 37.1683 49.5006C37.3715 50.6114 35.9727 50.9843 35.7696 49.8737C34.871 44.9556 36.1386 42.0729 37.261 39.5205C37.4416 39.1097 37.6181 38.7084 37.7781 38.311C38.3756 36.8273 38.142 37.3151 37.2322 37.7357C35.0297 38.7542 32.3748 39.0459 29.8185 38.5971C23.6395 37.5123 25.0663 37.5097 18.8725 38.5971ZM74.4911 55.9291C74.4911 54.7872 75.9291 54.7872 75.9291 55.9291V56.973C75.9291 58.1149 74.4911 58.1149 74.4911 56.973V55.9291ZM63.745 36.1399C63.8874 36.8081 64.0404 37.447 64.1905 38.0735C66.0433 45.8078 64.8509 49.427 62.6539 56.6347C62.0037 58.768 61.3533 60.9019 60.8778 63.0557C60.4718 64.8948 60.3298 64.678 61.8401 65.3675C68.87 68.5772 82.7293 68.2883 89.0362 65.1481C90.0844 64.6262 89.9036 64.7519 89.6141 63.3864C89.1336 61.1202 88.4499 58.8772 87.7663 56.6346C85.5694 49.4268 84.3771 45.808 86.2298 38.0735C86.3841 37.4295 86.5415 36.7724 86.6873 36.0817C87.0156 34.527 87.0781 34.8389 86.0043 35.2518C83.7896 36.1033 81.2617 36.126 79.0317 35.497C74.4352 34.2006 74.9102 35.0147 70.5175 35.7669C68.4349 36.1236 66.2837 35.9085 64.4474 35.1316C63.2799 34.6376 63.3217 34.1532 63.745 36.1399ZM88.3262 35.2275C88.1165 36.4242 87.8574 37.5062 87.6061 38.5551C85.8561 45.8606 87.0394 49.2296 89.1146 56.0377C90.3332 60.036 91.2138 63.3769 91.66 66.9475C92.3899 72.7876 91.9362 79.2492 90.3792 84.8433C90.08 85.9227 88.7205 85.3735 89.0197 84.2939C90.4986 78.9805 90.8576 73.3571 90.2882 67.8088C90.1232 66.2011 90.3356 66.4019 89.2292 66.9142C82.3967 70.078 68.6588 70.2973 61.3452 66.9861C60.0191 66.3859 60.2855 66.1873 60.0958 68.1807C59.5787 73.612 59.9544 79.098 61.4006 84.2939C61.6998 85.3735 60.3403 85.9227 60.0411 84.8433C58.5161 79.3641 58.1232 73.5881 58.6829 67.8623C59.0997 63.5985 60.0552 60.1407 61.3057 56.0378C63.3808 49.2298 64.5642 45.8605 62.8142 38.555C62.5269 37.3558 62.2292 36.113 62.0064 34.6932C61.7932 33.334 61.8447 33.603 61.2454 32.7716C60.3867 31.5802 59.7421 30.2557 59.5532 28.6475C59.1449 25.1727 60.0735 22.5144 61.0442 19.7358C61.7868 17.6102 62.5559 15.4087 62.6824 12.7529C62.7991 9.89237 67.0904 8.86604 67.5278 11.597C67.9741 14.3823 68.4947 16.5865 69.47 18.0997C71.7137 21.581 79.0362 21.5805 81.2794 18.0984C82.2542 16.5853 82.7746 14.3815 83.2208 11.597C83.3768 10.6229 83.8691 10.2208 84.5211 10.116C85.965 9.88376 87.9662 10.6548 88.0662 12.7529C88.1926 15.4087 88.9618 17.6102 89.7044 19.7358C90.6925 22.5644 91.6063 25.8367 91.1922 28.7867C90.981 30.2904 90.4249 31.7104 89.3575 32.9452C88.3367 34.1261 88.6326 33.4784 88.3262 35.2275ZM70.3208 34.0509C74.9225 33.2631 74.5291 32.4463 79.3575 33.8082C81.6249 34.4477 84.263 34.3489 86.4079 33.2233C88.1338 32.3177 89.501 30.7343 89.7742 28.4101C90.128 25.3988 89.2754 22.9582 88.3843 20.4073C87.5934 18.1435 86.7743 15.7988 86.6337 12.8478C86.6485 12.3244 86.1667 12.1801 85.6401 12.0187C85.1827 11.8786 84.6496 11.8303 84.5287 12.541C84.0614 15.2879 83.48 17.5088 82.4142 19.1632C79.5948 23.5396 71.1551 23.5398 68.3352 19.1646C67.1901 17.3878 66.604 14.9571 66.1178 11.9226C66.068 11.5379 64.1606 11.8868 64.1148 12.8478C63.9743 15.7988 63.1552 18.1435 62.3643 20.4073C61.4731 22.9582 60.6206 25.3988 60.9744 28.4101C61.2476 30.7344 62.6148 32.3177 64.3407 33.2233C66.0691 34.1303 68.2249 34.4099 70.3208 34.0509ZM55.1021 46.8266L51.9015 50.252C51.1967 51.0049 50.2474 49.7094 50.9522 48.9565L52.3445 47.4664C52.9144 46.8565 52.9125 46.9701 52.1546 46.9701H47.0209C46.0751 46.9701 46.0751 45.2338 47.0209 45.2338H52.147C52.9082 45.2338 52.9181 45.3513 52.345 44.738L50.9522 43.2473C50.2474 42.4945 51.1967 41.199 51.9015 41.9519L55.1094 45.3851C55.5307 45.8362 55.5201 46.3792 55.1021 46.8266ZM44.127 84.7341C43.9386 85.8493 42.5342 85.5035 42.7226 84.3883C43.6457 78.9253 42.9984 71.9769 41.8983 65.3544C41.2244 61.2981 41.618 62.6221 40.7792 65.1506C37.1043 76.2277 12.6474 77.8103 7.87598 65.4329C6.97292 63.0903 7.37653 61.3584 6.70937 65.3797C5.61174 71.9946 4.96727 78.9322 5.8892 84.3883C6.07759 85.5035 4.67321 85.8493 4.48482 84.7341C2.66731 73.9781 6.37999 59.1422 8.68864 48.4047C9.04937 46.7271 9.3973 45.0407 9.62015 43.3904C9.84101 41.7551 10.0542 40.4226 9.47234 38.8966C9.27607 38.3819 9.1031 37.8647 8.97249 37.3274C8.55176 35.5967 8.99024 36.3356 7.96011 34.958C7.06823 33.7652 6.50465 32.3328 6.31338 30.7447C5.84807 26.8819 6.90904 23.9192 8.018 20.8225C8.87148 18.4392 9.75544 15.9708 9.90132 12.9829C10.0065 10.8287 10.9889 10.6083 11.9666 10.3889L13.0924 10.1423C14.0612 9.92998 15.0321 10.3906 15.2478 11.704C15.7617 14.8334 16.3621 17.311 17.4886 19.0162C20.1025 22.9725 28.59 22.9721 31.2033 19.0146C32.3292 17.3097 32.9293 14.8325 33.4432 11.704C33.7916 9.58261 35.5027 10.1148 36.7243 10.3889C37.702 10.6083 38.6845 10.8287 38.7897 12.9829C38.9355 15.9708 39.8195 18.4392 40.673 20.8225C41.782 23.9192 42.8429 26.8819 42.3776 30.7447C42.1779 32.4028 41.5809 33.8499 40.6672 35.0413C39.6585 36.3566 40.0749 35.6332 39.6607 37.307C39.4543 38.1412 39.1424 38.9243 38.7974 39.7236C38.6811 40.9391 38.7803 42.3172 38.9967 43.7942C39.3122 45.9472 39.8207 48.0705 40.2833 50.1941C42.4975 60.3591 45.8773 74.3754 44.127 84.7341ZM23.4622 57.3689C23.4622 56.2269 24.9003 56.2269 24.9003 57.3689V58.5154C24.9003 59.6573 23.4622 59.6573 23.4622 58.5154V57.3689ZM18.6703 36.8811C25.0517 35.7612 23.6533 35.7637 30.0207 36.8811C32.4724 37.3116 35.0039 37.0033 37.0312 35.9693C39.0189 34.9556 40.6339 33.176 40.9564 30.5005C41.3648 27.11 40.3838 24.3707 39.3585 21.5075C38.4541 18.9821 37.5174 16.3666 37.3572 13.0846C37.3085 12.0864 36.4735 12.0857 35.8381 11.9264C35.3301 11.7989 34.9233 11.7851 34.779 12.4799C34.1267 15.6208 33.5728 18.2062 32.3268 20.093C29.1347 24.9269 19.5579 24.9272 16.3651 20.0946C15.0976 18.176 14.4307 15.5667 13.8849 12.3199C13.8041 11.8392 13.7869 11.8119 13.381 11.8427C13.0098 11.8709 12.5588 12.0165 12.225 12.0913C11.8001 12.1867 11.3729 12.2826 11.3338 13.0846C11.1735 16.3666 10.2369 18.9821 9.33253 21.5075C8.30717 24.3707 7.32623 27.11 7.73461 30.5005C8.05712 33.176 9.67212 34.9556 11.6598 35.9693C13.6871 37.0033 16.2186 37.3116 18.6703 36.8811Z" fill="#351C0C"/>
</svg>
