<svg width="96" height="96" viewBox="0 0 96 96" fill="none" xmlns="http://www.w3.org/2000/svg">
<path fill-rule="evenodd" clip-rule="evenodd" d="M58.0046 70.3558C57.5048 65.2773 53.2102 61.2947 48.0005 61.2947C47.603 61.2947 47.2125 61.3235 46.826 61.3692L29.4855 43.9182C28.6664 43.0939 27.3372 44.0942 27.9024 45.1095L39.5187 65.9728C38.6959 67.2666 38.1544 68.7541 37.9964 70.3558C37.9964 71.4534 38.8861 72.3432 39.9837 72.3432H56.0173C57.1149 72.3432 58.0046 71.4534 58.0046 70.3558ZM33.1195 50.3953L40.8541 64.2876C41.8885 63.2403 43.1544 62.4275 44.5644 61.9137L33.1195 50.3953ZM54.8695 70.3558C55.4704 70.3558 55.9401 69.8268 55.7836 69.2468C54.8573 65.8152 51.7214 63.282 48.0005 63.282C44.2796 63.282 41.1447 65.8151 40.2177 69.2465C40.061 69.8267 40.5308 70.3558 41.1318 70.3558H54.8695Z" fill="#351C0C"/>
<path d="M48.0005 23.1572C21.5335 23.1572 0 44.7762 0 71.3495C0 71.8983 0.4476 72.3432 0.996379 72.3432C1.54818 72.3432 1.99824 71.8958 1.99824 71.344V70.3558C2.16716 62.3669 4.37308 54.8757 8.10326 48.3712L11.7062 50.6676C12.1694 50.9628 12.7841 50.8265 13.0791 50.3633C13.374 49.9002 13.2378 49.2858 12.7747 48.9908L9.12573 46.6661C12.5588 41.2328 17.0869 36.5656 22.399 32.9805L25.0068 36.3895C25.3402 36.8254 25.9638 36.9085 26.3997 36.5752C26.8358 36.2418 26.9189 35.6179 26.5854 35.1819L24.0773 31.9034C30.7874 27.7837 38.6244 25.3492 47.0068 25.1704V29.3676C47.0068 29.9164 47.4517 30.3612 48.0005 30.3612C48.5493 30.3612 48.9942 29.9164 48.9942 29.3676V25.1694C57.3319 25.3482 65.1311 27.7559 71.8184 31.8358L69.2583 35.1815C68.9249 35.6172 69.0078 36.2407 69.4436 36.574C69.8793 36.9074 70.5028 36.8244 70.8361 36.3887L73.4987 32.908C78.8336 36.4881 83.3806 41.1593 86.8306 46.5985L83.0747 48.9911C82.6119 49.286 82.4756 49.9 82.7701 50.363C83.065 50.8263 83.6797 50.9628 84.1429 50.6676L87.857 48.3007C91.611 54.822 93.8328 62.338 94.0027 70.3558V71.3445C94.0027 71.8961 94.4523 72.3432 95.0039 72.3432C95.5526 72.3432 96 71.8983 96 71.3495C96.001 44.7762 74.4685 23.1572 48.0005 23.1572Z" fill="#351C0C"/>
</svg>
