<svg width="120" height="120" viewBox="0 0 120 120" fill="none" xmlns="http://www.w3.org/2000/svg">
<g clip-path="url(#clip0_93_1004)">
<path fill-rule="evenodd" clip-rule="evenodd" d="M63.006 14.5622C63.0295 14.8679 62.7458 16.9603 63.2949 17.0754C64.6747 17.365 66.8309 18.6142 67.9724 19.6546C74.7598 22.4596 78.0927 22.8276 76.2532 35.1759C76.7122 43.7354 75.9973 51.7472 75.0545 60.4181C75.5795 63.3308 76.2327 66.0794 73.7789 69.6095C69.4694 72.7495 71.7598 70.4827 71.3859 67.8551C71.4387 66.4724 71.4922 65.0904 71.5457 63.7077C73.3918 58.4342 70.6007 48.2897 69.6513 42.4333C69.4988 38 70.0266 33.7082 70.5904 29.9912C67.3587 44.5836 68.2568 47.94 69.1036 50.4246C71.6036 57.7604 70.3866 65.1696 69.3323 74.3353C68.9606 78.3229 68.5875 83.6067 68.2165 87.5942C68.8954 93.0253 69.5904 93.8061 68.6945 99.5379C67.2443 104.059 65.8939 108.339 64.7069 112.936C64.3836 116.174 66.4555 116.879 68.8543 118.679C65.7326 120.359 64.4401 119.669 60.8785 119.476C61.1057 113.972 61.7956 107.328 61.2949 101.951C60.8198 96.8348 61.1182 93.3054 62.1549 88.3721C60.6365 82.6015 60.3389 66.7114 59.7069 59.9093C59.0742 66.7114 58.7773 82.6015 57.2589 88.3721C58.2069 93.128 58.5742 96.793 58.1152 101.94C57.6321 107.363 58.3066 113.938 58.5346 119.476C54.973 119.67 53.6805 120.36 50.5595 118.679C52.9583 116.88 55.0309 116.175 54.7069 112.937C53.5199 108.339 52.1695 104.06 50.7193 99.5386C49.8234 93.8069 50.5191 91.7299 51.1973 86.2988C50.8256 82.3112 50.4532 78.3236 50.0807 74.3361C49.0265 64.4723 48.2662 57.5024 50.3095 50.0265C50.9634 47.6328 52.3381 43.3688 49.0221 29.9919C49.786 34.7559 49.9649 34.6605 49.7618 42.4341C48.9502 48.2215 46.6577 58.2164 48.0668 63.7084C48.1196 65.0911 48.1731 66.4731 48.2259 67.8558C48.3007 70.3338 50.1423 72.7503 45.8336 69.6102C43.5785 67.1769 44.1327 62.8323 44.6569 59.9203C43.7148 51.2486 43.0997 42.739 43.558 34.1796C41.7376 21.9566 45.5954 22.439 51.7017 19.6656C52.7384 18.7939 54.7956 17.4177 55.9151 17.0922C56.4341 16.9419 56.1878 15.961 56.1665 14.5893C55.4444 13.5519 55.1174 12.7586 54.7677 11.3209C53.7047 10.5863 53.5382 9.69481 53.7237 8.27471C54.1929 8.04084 54.2714 8.03204 54.5514 8.21973C53.1731 3.22116 54.2948 -0.0376636 59.6013 -0.21875C65.0838 -0.132239 65.561 3.71236 64.5332 8.23952C64.8374 8.03131 64.9064 8.03204 65.3902 8.27471C65.5794 9.72194 65.4034 10.62 64.2839 11.3627C64.1153 12.5123 63.6651 13.513 63.0038 14.4903L63.006 14.5622Z" fill="#351C0C"/>
</g>
<defs>
<clipPath id="clip0_93_1004">
<rect width="120" height="120" fill="white"/>
</clipPath>
</defs>
</svg>
