<svg width="326" height="254" viewBox="0 0 326 254" fill="none" xmlns="http://www.w3.org/2000/svg">
<g clip-path="url(#clip0_173_571)">
<path d="M310.289 0H15.7108C7.03397 0 0 7.03397 0 15.7108V238.281C0 246.958 7.03397 253.992 15.7108 253.992H310.289C318.966 253.992 326 246.958 326 238.281V15.7108C326 7.03397 318.966 0 310.289 0Z" fill="#FEFEFE"/>
<path d="M43.124 46.21C42.1207 46.21 41.269 45.9883 40.569 45.545C39.869 45.1017 39.3347 44.4857 38.966 43.697C38.602 42.9083 38.42 41.996 38.42 40.96C38.42 39.924 38.602 39.0117 38.966 38.223C39.3347 37.4343 39.869 36.8183 40.569 36.375C41.269 35.9317 42.1207 35.71 43.124 35.71C44.2907 35.71 45.2497 36.0063 46.001 36.599C46.757 37.1917 47.2773 37.9897 47.562 38.993L46.295 39.329C46.0897 38.5777 45.7233 37.985 45.196 37.551C44.6687 37.117 43.978 36.9 43.124 36.9C42.3727 36.9 41.7473 37.0703 41.248 37.411C40.7487 37.7517 40.373 38.2277 40.121 38.839C39.869 39.4457 39.7407 40.1527 39.736 40.96C39.7313 41.7627 39.855 42.4697 40.107 43.081C40.359 43.6877 40.737 44.1637 41.241 44.509C41.745 44.8497 42.3727 45.02 43.124 45.02C43.978 45.02 44.6687 44.803 45.196 44.369C45.7233 43.9303 46.0897 43.3377 46.295 42.591L47.562 42.927C47.2773 43.9257 46.757 44.7237 46.001 45.321C45.2497 45.9137 44.2907 46.21 43.124 46.21ZM52.6532 46.21C51.8739 46.21 51.1855 46.049 50.5882 45.727C49.9909 45.405 49.5219 44.9547 49.1812 44.376C48.8452 43.7927 48.6772 43.109 48.6772 42.325V35.927L49.9372 35.92V42.22C49.9372 42.696 50.0165 43.1113 50.1752 43.466C50.3385 43.816 50.5532 44.1077 50.8192 44.341C51.0852 44.5743 51.3769 44.7493 51.6942 44.866C52.0162 44.978 52.3359 45.034 52.6532 45.034C52.9752 45.034 53.2972 44.9757 53.6192 44.859C53.9412 44.7423 54.2329 44.5697 54.4942 44.341C54.7602 44.1077 54.9725 43.8137 55.1312 43.459C55.2899 43.1043 55.3692 42.6913 55.3692 42.22V35.92H56.6292V42.325C56.6292 43.1043 56.4589 43.7857 56.1182 44.369C55.7822 44.9523 55.3155 45.405 54.7182 45.727C54.1209 46.049 53.4325 46.21 52.6532 46.21ZM58.1693 46V35.92H62.1523C62.2503 35.92 62.367 35.9247 62.5023 35.934C62.6376 35.9387 62.7683 35.9527 62.8943 35.976C63.4403 36.06 63.8976 36.2467 64.2663 36.536C64.6396 36.8253 64.9196 37.1917 65.1063 37.635C65.293 38.0737 65.3863 38.5613 65.3863 39.098C65.3863 39.8773 65.1833 40.554 64.7773 41.128C64.3713 41.6973 63.7763 42.0543 62.9923 42.199L62.5163 42.276H59.4153V46H58.1693ZM64.1683 46L62.1803 41.898L63.4123 41.52L65.5963 46H64.1683ZM59.4153 41.093H62.1103C62.199 41.093 62.2993 41.0883 62.4113 41.079C62.528 41.0697 62.6376 41.0533 62.7403 41.03C63.0623 40.9553 63.3236 40.82 63.5243 40.624C63.7296 40.4233 63.879 40.19 63.9723 39.924C64.0656 39.6533 64.1123 39.378 64.1123 39.098C64.1123 38.818 64.0656 38.545 63.9723 38.279C63.879 38.0083 63.7296 37.7727 63.5243 37.572C63.3236 37.3713 63.0623 37.236 62.7403 37.166C62.6376 37.138 62.528 37.1217 62.4113 37.117C62.2993 37.1077 62.199 37.103 62.1103 37.103H59.4153V41.093ZM66.718 46V35.92H70.701C70.799 35.92 70.9157 35.9247 71.051 35.934C71.1864 35.9387 71.317 35.9527 71.443 35.976C71.989 36.06 72.4464 36.2467 72.815 36.536C73.1884 36.8253 73.4684 37.1917 73.655 37.635C73.8417 38.0737 73.935 38.5613 73.935 39.098C73.935 39.8773 73.732 40.554 73.326 41.128C72.92 41.6973 72.325 42.0543 71.541 42.199L71.065 42.276H67.964V46H66.718ZM72.717 46L70.729 41.898L71.961 41.52L74.145 46H72.717ZM67.964 41.093H70.659C70.7477 41.093 70.848 41.0883 70.96 41.079C71.0767 41.0697 71.1864 41.0533 71.289 41.03C71.611 40.9553 71.8724 40.82 72.073 40.624C72.2784 40.4233 72.4277 40.19 72.521 39.924C72.6144 39.6533 72.661 39.378 72.661 39.098C72.661 38.818 72.6144 38.545 72.521 38.279C72.4277 38.0083 72.2784 37.7727 72.073 37.572C71.8724 37.3713 71.611 37.236 71.289 37.166C71.1864 37.138 71.0767 37.1217 70.96 37.117C70.848 37.1077 70.7477 37.103 70.659 37.103H67.964V41.093ZM75.2668 46V35.92H81.6368V37.103H76.5128V40.26H80.7968V41.443H76.5128V44.817H81.6368V46H75.2668ZM82.8995 46V35.92H84.1595L89.4165 43.795V35.92H90.6765V46H89.4165L84.1595 38.118V46H82.8995ZM94.8109 46V37.103H91.3739V35.92H99.4939V37.103H96.0569V46H94.8109ZM104.296 46L101.377 35.92H102.679L104.919 43.893L107.152 35.927L108.461 35.92L110.701 43.893L112.934 35.92H114.243L111.324 46H110.078L107.81 38.097L105.542 46H104.296ZM115.016 46V35.92H121.386V37.103H116.262V40.26H120.546V41.443H116.262V44.817H121.386V46H115.016ZM122.789 46V35.92H124.035V46H122.789ZM129.796 46.21C129.106 46.21 128.476 46.0887 127.906 45.846C127.337 45.6033 126.847 45.2557 126.436 44.803C126.026 44.3457 125.708 43.795 125.484 43.151C125.265 42.5023 125.155 41.772 125.155 40.96C125.155 39.8867 125.347 38.958 125.729 38.174C126.112 37.39 126.651 36.7857 127.346 36.361C128.042 35.9317 128.858 35.717 129.796 35.717C130.926 35.717 131.836 35.9807 132.526 36.508C133.217 37.0307 133.693 37.747 133.954 38.657L132.694 38.916C132.484 38.3047 132.139 37.817 131.658 37.453C131.178 37.089 130.578 36.907 129.859 36.907C129.108 36.9023 128.483 37.0703 127.983 37.411C127.489 37.747 127.115 38.2207 126.863 38.832C126.611 39.4433 126.483 40.1527 126.478 40.96C126.474 41.7627 126.597 42.4673 126.849 43.074C127.101 43.6807 127.477 44.1567 127.976 44.502C128.48 44.8427 129.108 45.0153 129.859 45.02C130.508 45.0247 131.054 44.901 131.497 44.649C131.941 44.397 132.284 44.033 132.526 43.557C132.769 43.081 132.916 42.5093 132.967 41.842H130.825V40.813H134.283C134.297 40.9063 134.304 41.0183 134.304 41.149C134.309 41.275 134.311 41.3613 134.311 41.408C134.311 42.3273 134.139 43.151 133.793 43.879C133.453 44.6023 132.946 45.1717 132.274 45.587C131.607 46.0023 130.781 46.21 129.796 46.21ZM135.29 46V35.92H136.536V40.365H141.842V35.92H143.088V46H141.842V41.548H136.536V46H135.29ZM147.228 46V37.103H143.791V35.92H151.911V37.103H148.474V46H147.228Z" fill="#132638"/>
<path d="M209.129 97L206.21 86.92H207.512L209.752 94.893L211.985 86.927L213.294 86.92L215.534 94.893L217.767 86.92H219.076L216.157 97H214.911L212.643 89.097L210.375 97H209.129ZM219.989 97V86.92H221.235V97H219.989ZM225.512 97V88.103H222.075V86.92H230.195V88.103H226.758V97H225.512ZM230.89 97V86.92H232.136V91.365H237.442V86.92H238.688V97H237.442V92.548H232.136V97H230.89ZM244.376 97.21C243.372 97.21 242.521 96.9883 241.821 96.545C241.121 96.1017 240.586 95.4857 240.218 94.697C239.854 93.9083 239.672 92.996 239.672 91.96C239.672 90.924 239.854 90.0117 240.218 89.223C240.586 88.4343 241.121 87.8183 241.821 87.375C242.521 86.9317 243.372 86.71 244.376 86.71C245.384 86.71 246.238 86.9317 246.938 87.375C247.638 87.8183 248.17 88.4343 248.534 89.223C248.898 90.0117 249.08 90.924 249.08 91.96C249.08 92.996 248.898 93.9083 248.534 94.697C248.17 95.4857 247.638 96.1017 246.938 96.545C246.238 96.9883 245.384 97.21 244.376 97.21ZM244.376 96.02C245.127 96.0247 245.752 95.8567 246.252 95.516C246.756 95.1707 247.131 94.6923 247.379 94.081C247.631 93.4697 247.757 92.7627 247.757 91.96C247.757 91.1527 247.631 90.4457 247.379 89.839C247.131 89.2323 246.756 88.7587 246.252 88.418C245.752 88.0773 245.127 87.9047 244.376 87.9C243.624 87.8953 242.999 88.0633 242.5 88.404C242.005 88.7447 241.632 89.2207 241.38 89.832C241.128 90.4433 240.999 91.1527 240.995 91.96C240.99 92.7627 241.114 93.4673 241.366 94.074C241.618 94.6807 241.993 95.1567 242.493 95.502C242.997 95.8427 243.624 96.0153 244.376 96.02ZM254.042 97.21C253.262 97.21 252.574 97.049 251.977 96.727C251.379 96.405 250.91 95.9547 250.57 95.376C250.234 94.7927 250.066 94.109 250.066 93.325V86.927L251.326 86.92V93.22C251.326 93.696 251.405 94.1113 251.564 94.466C251.727 94.816 251.942 95.1077 252.208 95.341C252.474 95.5743 252.765 95.7493 253.083 95.866C253.405 95.978 253.724 96.034 254.042 96.034C254.364 96.034 254.686 95.9757 255.008 95.859C255.33 95.7423 255.621 95.5697 255.883 95.341C256.149 95.1077 256.361 94.8137 256.52 94.459C256.678 94.1043 256.758 93.6913 256.758 93.22V86.92H258.018V93.325C258.018 94.1043 257.847 94.7857 257.507 95.369C257.171 95.9523 256.704 96.405 256.107 96.727C255.509 97.049 254.821 97.21 254.042 97.21ZM262.155 97V88.103H258.718V86.92H266.838V88.103H263.401V97H262.155ZM269.631 97V86.92H270.877V97H269.631ZM277.94 97V93.213C277.94 92.8537 277.908 92.5083 277.842 92.177C277.782 91.8457 277.672 91.5493 277.513 91.288C277.359 91.022 277.149 90.812 276.883 90.658C276.622 90.504 276.291 90.427 275.889 90.427C275.577 90.427 275.292 90.4807 275.035 90.588C274.783 90.6907 274.566 90.8493 274.384 91.064C274.202 91.2787 274.06 91.5493 273.957 91.876C273.859 92.198 273.81 92.5783 273.81 93.017L272.991 92.765C272.991 92.0323 273.122 91.4047 273.383 90.882C273.649 90.3547 274.02 89.951 274.496 89.671C274.977 89.3863 275.542 89.244 276.19 89.244C276.68 89.244 277.098 89.321 277.443 89.475C277.789 89.629 278.076 89.8343 278.304 90.091C278.533 90.343 278.713 90.6277 278.843 90.945C278.974 91.2577 279.065 91.5773 279.116 91.904C279.172 92.226 279.2 92.5317 279.2 92.821V97H277.94ZM272.55 97V89.44H273.67V91.463H273.81V97H272.55ZM283.456 97.203C282.556 97.203 281.816 97.007 281.237 96.615C280.663 96.2183 280.311 95.6653 280.18 94.956L281.454 94.753C281.557 95.1637 281.793 95.4903 282.161 95.733C282.53 95.971 282.987 96.09 283.533 96.09C284.051 96.09 284.457 95.9827 284.751 95.768C285.045 95.5533 285.192 95.2617 285.192 94.893C285.192 94.6783 285.143 94.5057 285.045 94.375C284.947 94.2397 284.744 94.1137 284.436 93.997C284.133 93.8803 283.673 93.7403 283.057 93.577C282.39 93.3997 281.865 93.2153 281.482 93.024C281.1 92.8327 280.827 92.611 280.663 92.359C280.5 92.107 280.418 91.8013 280.418 91.442C280.418 90.9987 280.54 90.6113 280.782 90.28C281.025 89.944 281.363 89.685 281.797 89.503C282.236 89.321 282.745 89.23 283.323 89.23C283.897 89.23 284.411 89.321 284.863 89.503C285.316 89.685 285.68 89.944 285.955 90.28C286.235 90.6113 286.401 90.9987 286.452 91.442L285.178 91.673C285.118 91.267 284.922 90.9473 284.59 90.714C284.264 90.4807 283.841 90.357 283.323 90.343C282.833 90.3243 282.434 90.4107 282.126 90.602C281.823 90.7933 281.671 91.0523 281.671 91.379C281.671 91.561 281.727 91.7173 281.839 91.848C281.956 91.9787 282.168 92.1023 282.476 92.219C282.789 92.3357 283.242 92.4687 283.834 92.618C284.502 92.786 285.027 92.9703 285.409 93.171C285.797 93.367 286.072 93.6003 286.235 93.871C286.399 94.137 286.48 94.466 286.48 94.858C286.48 95.586 286.212 96.16 285.675 96.58C285.139 96.9953 284.399 97.203 283.456 97.203ZM291.825 97C291.377 97.0887 290.934 97.1237 290.495 97.105C290.061 97.091 289.674 97.0047 289.333 96.846C288.992 96.6827 288.733 96.4307 288.556 96.09C288.407 95.7913 288.325 95.4903 288.311 95.187C288.302 94.879 288.297 94.5313 288.297 94.144V87.34H289.543V94.088C289.543 94.396 289.545 94.6597 289.55 94.879C289.559 95.0983 289.608 95.2873 289.697 95.446C289.865 95.7447 290.131 95.9197 290.495 95.971C290.864 96.0223 291.307 96.0083 291.825 95.929V97ZM286.764 90.469V89.44H291.825V90.469H286.764ZM295.089 97.21C294.524 97.21 294.051 97.1073 293.668 96.902C293.29 96.692 293.003 96.4167 292.807 96.076C292.616 95.7353 292.52 95.362 292.52 94.956C292.52 94.5593 292.595 94.2163 292.744 93.927C292.898 93.633 293.113 93.3903 293.388 93.199C293.663 93.003 293.992 92.849 294.375 92.737C294.734 92.639 295.136 92.555 295.579 92.485C296.027 92.4103 296.48 92.3427 296.937 92.282C297.394 92.2213 297.821 92.163 298.218 92.107L297.77 92.366C297.784 91.694 297.649 91.197 297.364 90.875C297.084 90.553 296.599 90.392 295.908 90.392C295.451 90.392 295.049 90.497 294.704 90.707C294.363 90.9123 294.123 91.2483 293.983 91.715L292.8 91.358C292.982 90.6953 293.334 90.175 293.857 89.797C294.38 89.419 295.068 89.23 295.922 89.23C296.608 89.23 297.196 89.3537 297.686 89.601C298.181 89.8437 298.535 90.2123 298.75 90.707C298.857 90.9403 298.925 91.1947 298.953 91.47C298.981 91.7407 298.995 92.0253 298.995 92.324V97H297.889V95.187L298.148 95.355C297.863 95.9663 297.464 96.4283 296.951 96.741C296.442 97.0537 295.822 97.21 295.089 97.21ZM295.278 96.167C295.726 96.167 296.113 96.0877 296.44 95.929C296.771 95.7657 297.037 95.5533 297.238 95.292C297.439 95.026 297.569 94.7367 297.63 94.424C297.7 94.1907 297.737 93.9317 297.742 93.647C297.751 93.3577 297.756 93.136 297.756 92.982L298.19 93.171C297.784 93.227 297.385 93.2807 296.993 93.332C296.601 93.3833 296.23 93.4393 295.88 93.5C295.53 93.556 295.215 93.6237 294.935 93.703C294.73 93.7683 294.536 93.8523 294.354 93.955C294.177 94.0577 294.032 94.1907 293.92 94.354C293.813 94.5127 293.759 94.711 293.759 94.949C293.759 95.1543 293.81 95.3503 293.913 95.537C294.02 95.7237 294.184 95.8753 294.403 95.992C294.627 96.1087 294.919 96.167 295.278 96.167ZM300.395 97V86.92H304.378C304.476 86.92 304.593 86.9247 304.728 86.934C304.863 86.9387 304.994 86.9527 305.12 86.976C305.666 87.06 306.123 87.2467 306.492 87.536C306.865 87.8253 307.145 88.1917 307.332 88.635C307.519 89.0737 307.612 89.5613 307.612 90.098C307.612 90.8773 307.409 91.554 307.003 92.128C306.597 92.6973 306.002 93.0543 305.218 93.199L304.742 93.276H301.641V97H300.395ZM306.394 97L304.406 92.898L305.638 92.52L307.822 97H306.394ZM301.641 92.093H304.336C304.425 92.093 304.525 92.0883 304.637 92.079C304.754 92.0697 304.863 92.0533 304.966 92.03C305.288 91.9553 305.549 91.82 305.75 91.624C305.955 91.4233 306.105 91.19 306.198 90.924C306.291 90.6533 306.338 90.378 306.338 90.098C306.338 89.818 306.291 89.545 306.198 89.279C306.105 89.0083 305.955 88.7727 305.75 88.572C305.549 88.3713 305.288 88.236 304.966 88.166C304.863 88.138 304.754 88.1217 304.637 88.117C304.525 88.1077 304.425 88.103 304.336 88.103H301.641V92.093ZM308.104 97L310.995 93.178L308.167 89.44H309.651L311.723 92.212L313.774 89.44H315.258L312.43 93.178L315.328 97H313.837L311.723 94.144L309.595 97H308.104Z" fill="#7D8FA0"/>
<path d="M249.43 232.27V222.19H250.753L254.407 229.771L258.04 222.19H259.377V232.263H257.991V225.368L254.736 232.27H254.071L250.809 225.368V232.27H249.43ZM264.201 232.48C263.445 232.48 262.79 232.31 262.234 231.969C261.679 231.628 261.25 231.159 260.946 230.562C260.648 229.96 260.498 229.267 260.498 228.483C260.498 227.694 260.652 227.001 260.96 226.404C261.268 225.802 261.7 225.335 262.255 225.004C262.811 224.668 263.459 224.5 264.201 224.5C264.957 224.5 265.613 224.67 266.168 225.011C266.724 225.352 267.153 225.821 267.456 226.418C267.76 227.015 267.911 227.704 267.911 228.483C267.911 229.272 267.757 229.967 267.449 230.569C267.146 231.166 266.717 231.635 266.161 231.976C265.606 232.312 264.953 232.48 264.201 232.48ZM264.201 231.101C264.925 231.101 265.464 230.858 265.818 230.373C266.178 229.883 266.357 229.253 266.357 228.483C266.357 227.694 266.175 227.064 265.811 226.593C265.452 226.117 264.915 225.879 264.201 225.879C263.711 225.879 263.308 225.991 262.99 226.215C262.673 226.434 262.437 226.74 262.283 227.132C262.129 227.519 262.052 227.97 262.052 228.483C262.052 229.276 262.234 229.911 262.598 230.387C262.962 230.863 263.497 231.101 264.201 231.101ZM274.336 232.27V228.553C274.336 228.259 274.31 227.958 274.259 227.65C274.212 227.337 274.119 227.048 273.979 226.782C273.843 226.516 273.65 226.301 273.398 226.138C273.15 225.975 272.826 225.893 272.425 225.893C272.163 225.893 271.916 225.937 271.683 226.026C271.449 226.11 271.244 226.248 271.067 226.439C270.894 226.63 270.756 226.882 270.654 227.195C270.556 227.508 270.507 227.888 270.507 228.336L269.597 227.993C269.597 227.307 269.725 226.703 269.982 226.18C270.238 225.653 270.607 225.242 271.088 224.948C271.568 224.654 272.149 224.507 272.831 224.507C273.353 224.507 273.792 224.591 274.147 224.759C274.501 224.927 274.788 225.149 275.008 225.424C275.232 225.695 275.402 225.991 275.519 226.313C275.635 226.635 275.715 226.95 275.757 227.258C275.799 227.566 275.82 227.837 275.82 228.07V232.27H274.336ZM269.023 232.27V224.71H270.332V226.894H270.507V232.27H269.023ZM281.549 232.27C281.073 232.363 280.606 232.403 280.149 232.389C279.692 232.375 279.283 232.286 278.924 232.123C278.565 231.96 278.294 231.703 278.112 231.353C277.949 231.04 277.86 230.723 277.846 230.401C277.837 230.074 277.832 229.706 277.832 229.295V222.61H279.302V229.225C279.302 229.528 279.304 229.792 279.309 230.016C279.318 230.24 279.367 230.429 279.456 230.583C279.624 230.872 279.89 231.038 280.254 231.08C280.623 231.117 281.054 231.101 281.549 231.031V232.27ZM276.383 225.886V224.71H281.549V225.886H276.383ZM288.029 232.27V228.553C288.029 228.259 288.003 227.958 287.952 227.65C287.905 227.337 287.812 227.048 287.672 226.782C287.537 226.516 287.343 226.301 287.091 226.138C286.844 225.975 286.519 225.893 286.118 225.893C285.857 225.893 285.609 225.937 285.376 226.026C285.143 226.11 284.937 226.248 284.76 226.439C284.587 226.63 284.45 226.882 284.347 227.195C284.249 227.508 284.2 227.888 284.2 228.336L283.29 227.993C283.29 227.307 283.418 226.703 283.675 226.18C283.932 225.653 284.3 225.242 284.781 224.948C285.262 224.654 285.843 224.507 286.524 224.507C287.047 224.507 287.485 224.591 287.84 224.759C288.195 224.927 288.482 225.149 288.701 225.424C288.925 225.695 289.095 225.991 289.212 226.313C289.329 226.635 289.408 226.95 289.45 227.258C289.492 227.566 289.513 227.837 289.513 228.07V232.27H288.029ZM282.716 232.27V222.19H284.025V227.629H284.2V232.27H282.716ZM295.056 232.27V223.8L293.159 224.955V223.324L295.056 222.19H296.547V232.27H295.056ZM298.505 232.263L298.512 230.961L302.901 227.027C303.256 226.714 303.496 226.416 303.622 226.131C303.753 225.846 303.818 225.562 303.818 225.277C303.818 224.918 303.739 224.596 303.58 224.311C303.421 224.022 303.202 223.793 302.922 223.625C302.642 223.457 302.32 223.373 301.956 223.373C301.583 223.373 301.249 223.462 300.955 223.639C300.666 223.812 300.439 224.043 300.276 224.332C300.113 224.621 300.033 224.934 300.038 225.27H298.54C298.54 224.617 298.687 224.045 298.981 223.555C299.28 223.06 299.688 222.675 300.206 222.4C300.724 222.12 301.317 221.98 301.984 221.98C302.619 221.98 303.188 222.125 303.692 222.414C304.196 222.699 304.593 223.091 304.882 223.59C305.176 224.089 305.323 224.659 305.323 225.298C305.323 225.76 305.262 226.152 305.141 226.474C305.02 226.796 304.838 227.095 304.595 227.37C304.352 227.645 304.049 227.944 303.685 228.266L300.297 231.29L300.136 230.87H305.323V232.263H298.505Z" fill="#7D8FA0"/>
<path d="M22.815 232.27V222.19H24.138L27.792 229.771L31.425 222.19H32.762V232.263H31.376V225.368L28.121 232.27H27.456L24.194 225.368V232.27H22.815ZM37.5862 232.48C36.8302 232.48 36.1745 232.31 35.6192 231.969C35.0638 231.628 34.6345 231.159 34.3312 230.562C34.0325 229.96 33.8832 229.267 33.8832 228.483C33.8832 227.694 34.0372 227.001 34.3452 226.404C34.6532 225.802 35.0848 225.335 35.6402 225.004C36.1955 224.668 36.8442 224.5 37.5862 224.5C38.3422 224.5 38.9978 224.67 39.5532 225.011C40.1085 225.352 40.5378 225.821 40.8412 226.418C41.1445 227.015 41.2962 227.704 41.2962 228.483C41.2962 229.272 41.1422 229.967 40.8342 230.569C40.5308 231.166 40.1015 231.635 39.5462 231.976C38.9908 232.312 38.3375 232.48 37.5862 232.48ZM37.5862 231.101C38.3095 231.101 38.8485 230.858 39.2032 230.373C39.5625 229.883 39.7422 229.253 39.7422 228.483C39.7422 227.694 39.5602 227.064 39.1962 226.593C38.8368 226.117 38.3002 225.879 37.5862 225.879C37.0962 225.879 36.6925 225.991 36.3752 226.215C36.0578 226.434 35.8222 226.74 35.6682 227.132C35.5142 227.519 35.4372 227.97 35.4372 228.483C35.4372 229.276 35.6192 229.911 35.9832 230.387C36.3472 230.863 36.8815 231.101 37.5862 231.101ZM47.7204 232.27V228.553C47.7204 228.259 47.6947 227.958 47.6434 227.65C47.5967 227.337 47.5034 227.048 47.3634 226.782C47.2281 226.516 47.0344 226.301 46.7824 226.138C46.5351 225.975 46.2107 225.893 45.8094 225.893C45.5481 225.893 45.3007 225.937 45.0674 226.026C44.8341 226.11 44.6287 226.248 44.4514 226.439C44.2787 226.63 44.1411 226.882 44.0384 227.195C43.9404 227.508 43.8914 227.888 43.8914 228.336L42.9814 227.993C42.9814 227.307 43.1097 226.703 43.3664 226.18C43.6231 225.653 43.9917 225.242 44.4724 224.948C44.9531 224.654 45.5341 224.507 46.2154 224.507C46.7381 224.507 47.1767 224.591 47.5314 224.759C47.8861 224.927 48.1731 225.149 48.3924 225.424C48.6164 225.695 48.7867 225.991 48.9034 226.313C49.0201 226.635 49.0994 226.95 49.1414 227.258C49.1834 227.566 49.2044 227.837 49.2044 228.07V232.27H47.7204ZM42.4074 232.27V224.71H43.7164V226.894H43.8914V232.27H42.4074ZM54.9337 232.27C54.4577 232.363 53.991 232.403 53.5337 232.389C53.0764 232.375 52.668 232.286 52.3087 232.123C51.9494 231.96 51.6787 231.703 51.4967 231.353C51.3334 231.04 51.2447 230.723 51.2307 230.401C51.2214 230.074 51.2167 229.706 51.2167 229.295V222.61H52.6867V229.225C52.6867 229.528 52.689 229.792 52.6937 230.016C52.703 230.24 52.752 230.429 52.8407 230.583C53.0087 230.872 53.2747 231.038 53.6387 231.08C54.0074 231.117 54.439 231.101 54.9337 231.031V232.27ZM49.7677 225.886V224.71H54.9337V225.886H49.7677ZM61.4136 232.27V228.553C61.4136 228.259 61.388 227.958 61.3366 227.65C61.29 227.337 61.1966 227.048 61.0566 226.782C60.9213 226.516 60.7276 226.301 60.4756 226.138C60.2283 225.975 59.904 225.893 59.5026 225.893C59.2413 225.893 58.994 225.937 58.7606 226.026C58.5273 226.11 58.322 226.248 58.1446 226.439C57.972 226.63 57.8343 226.882 57.7316 227.195C57.6336 227.508 57.5846 227.888 57.5846 228.336L56.6746 227.993C56.6746 227.307 56.803 226.703 57.0596 226.18C57.3163 225.653 57.685 225.242 58.1656 224.948C58.6463 224.654 59.2273 224.507 59.9086 224.507C60.4313 224.507 60.87 224.591 61.2246 224.759C61.5793 224.927 61.8663 225.149 62.0856 225.424C62.3096 225.695 62.48 225.991 62.5966 226.313C62.7133 226.635 62.7926 226.95 62.8346 227.258C62.8766 227.566 62.8976 227.837 62.8976 228.07V232.27H61.4136ZM56.1006 232.27V222.19H57.4096V227.629H57.5846V232.27H56.1006ZM68.4406 232.27V223.8L66.5436 224.955V223.324L68.4406 222.19H69.9316V232.27H68.4406Z" fill="#7D8FA0"/>
<path d="M19.6802 214.327V39.6616C92.7688 136.067 241.307 158.128 306.44 157.109V214.327H19.6802Z" fill="url(#paint0_linear_173_571)"/>
<path d="M19.6802 39.5415C42.7266 76.8719 132.344 152.709 306.44 157.414" stroke="#F958F9" stroke-width="4.56127" stroke-linecap="round"/>
<path d="M21.6146 47.7356C25.1944 47.7356 28.0964 44.8336 28.0964 41.2538C28.0964 37.674 25.1944 34.772 21.6146 34.772C18.0348 34.772 15.1328 37.674 15.1328 41.2538C15.1328 44.8336 18.0348 47.7356 21.6146 47.7356Z" fill="#F958F9" stroke="#F958F9" stroke-width="4.08114"/>
<path d="M21.2749 41.5684C27.712 53.0242 95.9669 109.845 308.325 111.94" stroke="#A3B0BC" stroke-width="0.654619" stroke-dasharray="1.31 1.31"/>
<path d="M306.374 163.603C309.954 163.603 312.856 160.701 312.856 157.121C312.856 153.541 309.954 150.639 306.374 150.639C302.794 150.639 299.892 153.541 299.892 157.121C299.892 160.701 302.794 163.603 306.374 163.603Z" fill="#F958F9" stroke="#F958F9" stroke-width="4.08114"/>
<path d="M309.307 116.522C312.38 116.522 314.871 114.031 314.871 110.958C314.871 107.885 312.38 105.394 309.307 105.394C306.234 105.394 303.743 107.885 303.743 110.958C303.743 114.031 306.234 116.522 309.307 116.522Z" fill="#A3B0BC"/>
<path d="M303.474 123.068H209.237C206.345 123.068 204 125.413 204 128.305V136.377C204 139.269 206.345 141.614 209.237 141.614H303.474C306.366 141.614 308.711 139.269 308.711 136.377V128.305C308.711 125.413 306.366 123.068 303.474 123.068Z" fill="#0FA1D2"/>
<path d="M213.33 137.5L210.173 126.7H212.07L214.223 134.5L216.368 126.715L218.265 126.7L220.418 134.5L222.563 126.7H224.46L221.31 137.5H219.525L217.313 129.82L215.115 137.5H213.33ZM225.384 137.5V126.7H227.191V137.5H225.384ZM231.583 137.5V128.395H228.088V126.7H236.885V128.395H233.39V137.5H231.583ZM237.635 137.5V126.7H239.442V131.245H244.557V126.7H246.357V137.5H244.557V132.94H239.442V137.5H237.635ZM250.713 137.5V126.7H252.52V137.5H250.713ZM259.919 137.5V133.6C259.919 133.345 259.902 133.062 259.867 132.752C259.832 132.442 259.749 132.145 259.619 131.86C259.494 131.57 259.304 131.332 259.049 131.147C258.799 130.962 258.459 130.87 258.029 130.87C257.799 130.87 257.572 130.907 257.347 130.982C257.122 131.057 256.917 131.187 256.732 131.372C256.552 131.552 256.407 131.802 256.297 132.122C256.187 132.437 256.132 132.842 256.132 133.337L255.059 132.88C255.059 132.19 255.192 131.565 255.457 131.005C255.727 130.445 256.122 130 256.642 129.67C257.162 129.335 257.802 129.167 258.562 129.167C259.162 129.167 259.657 129.267 260.047 129.467C260.437 129.667 260.747 129.922 260.977 130.232C261.207 130.542 261.377 130.872 261.487 131.222C261.597 131.572 261.667 131.905 261.697 132.22C261.732 132.53 261.749 132.782 261.749 132.977V137.5H259.919ZM254.302 137.5V129.4H255.914V131.912H256.132V137.5H254.302ZM266.384 137.725C265.384 137.725 264.571 137.5 263.946 137.05C263.321 136.6 262.941 135.967 262.806 135.152L264.651 134.867C264.746 135.267 264.956 135.582 265.281 135.812C265.606 136.042 266.016 136.157 266.511 136.157C266.946 136.157 267.281 136.072 267.516 135.902C267.756 135.727 267.876 135.49 267.876 135.19C267.876 135.005 267.831 134.857 267.741 134.747C267.656 134.632 267.466 134.522 267.171 134.417C266.876 134.312 266.424 134.18 265.814 134.02C265.134 133.84 264.594 133.647 264.194 133.442C263.794 133.232 263.506 132.985 263.331 132.7C263.156 132.415 263.069 132.07 263.069 131.665C263.069 131.16 263.201 130.72 263.466 130.345C263.731 129.97 264.101 129.682 264.576 129.482C265.051 129.277 265.611 129.175 266.256 129.175C266.886 129.175 267.444 129.272 267.929 129.467C268.419 129.662 268.814 129.94 269.114 130.3C269.414 130.66 269.599 131.082 269.669 131.567L267.824 131.897C267.779 131.552 267.621 131.28 267.351 131.08C267.086 130.88 266.731 130.767 266.286 130.742C265.861 130.717 265.519 130.782 265.259 130.937C264.999 131.087 264.869 131.3 264.869 131.575C264.869 131.73 264.921 131.862 265.026 131.972C265.131 132.082 265.341 132.192 265.656 132.302C265.976 132.412 266.451 132.547 267.081 132.707C267.726 132.872 268.241 133.062 268.626 133.277C269.016 133.487 269.296 133.74 269.466 134.035C269.641 134.33 269.729 134.687 269.729 135.107C269.729 135.922 269.431 136.562 268.836 137.027C268.246 137.493 267.429 137.725 266.384 137.725ZM275.669 137.5C275.134 137.6 274.609 137.643 274.094 137.628C273.584 137.618 273.127 137.525 272.722 137.35C272.317 137.17 272.009 136.887 271.799 136.502C271.614 136.152 271.517 135.795 271.507 135.43C271.497 135.065 271.492 134.652 271.492 134.192V127.15H273.292V134.087C273.292 134.412 273.294 134.697 273.299 134.942C273.309 135.187 273.362 135.387 273.457 135.542C273.637 135.842 273.924 136.01 274.319 136.045C274.714 136.08 275.164 136.06 275.669 135.985V137.5ZM270.022 130.817V129.4H275.669V130.817H270.022ZM279.226 137.725C278.641 137.725 278.146 137.615 277.741 137.395C277.336 137.17 277.028 136.872 276.818 136.502C276.613 136.132 276.511 135.725 276.511 135.28C276.511 134.89 276.576 134.54 276.706 134.23C276.836 133.915 277.036 133.645 277.306 133.42C277.576 133.19 277.926 133.002 278.356 132.857C278.681 132.752 279.061 132.657 279.496 132.572C279.936 132.487 280.411 132.41 280.921 132.34C281.436 132.265 281.973 132.185 282.533 132.1L281.888 132.467C281.893 131.907 281.768 131.495 281.513 131.23C281.258 130.965 280.828 130.832 280.223 130.832C279.858 130.832 279.506 130.917 279.166 131.087C278.826 131.257 278.588 131.55 278.453 131.965L276.803 131.447C277.003 130.762 277.383 130.212 277.943 129.797C278.508 129.382 279.268 129.175 280.223 129.175C280.943 129.175 281.576 129.292 282.121 129.527C282.671 129.762 283.078 130.147 283.343 130.682C283.488 130.967 283.576 131.26 283.606 131.56C283.636 131.855 283.651 132.177 283.651 132.527V137.5H282.068V135.745L282.331 136.03C281.966 136.615 281.538 137.045 281.048 137.32C280.563 137.59 279.956 137.725 279.226 137.725ZM279.586 136.285C279.996 136.285 280.346 136.212 280.636 136.067C280.926 135.922 281.156 135.745 281.326 135.535C281.501 135.325 281.618 135.127 281.678 134.942C281.773 134.712 281.826 134.45 281.836 134.155C281.851 133.855 281.858 133.612 281.858 133.427L282.413 133.592C281.868 133.677 281.401 133.752 281.011 133.817C280.621 133.882 280.286 133.945 280.006 134.005C279.726 134.06 279.478 134.122 279.263 134.192C279.053 134.267 278.876 134.355 278.731 134.455C278.586 134.555 278.473 134.67 278.393 134.8C278.318 134.93 278.281 135.082 278.281 135.257C278.281 135.457 278.331 135.635 278.431 135.79C278.531 135.94 278.676 136.06 278.866 136.15C279.061 136.24 279.301 136.285 279.586 136.285ZM285.154 137.5V126.7H289.616C289.721 126.7 289.856 126.705 290.021 126.715C290.186 126.72 290.339 126.735 290.479 126.76C291.104 126.855 291.619 127.062 292.024 127.382C292.434 127.702 292.736 128.107 292.931 128.597C293.131 129.082 293.231 129.622 293.231 130.217C293.231 131.097 293.009 131.855 292.564 132.49C292.119 133.12 291.436 133.51 290.516 133.66L289.744 133.727H286.961V137.5H285.154ZM291.356 137.5L289.226 133.105L291.064 132.7L293.404 137.5H291.356ZM286.961 132.04H289.541C289.641 132.04 289.754 132.035 289.879 132.025C290.004 132.015 290.119 131.995 290.224 131.965C290.524 131.89 290.759 131.757 290.929 131.567C291.104 131.377 291.226 131.162 291.296 130.922C291.371 130.682 291.409 130.447 291.409 130.217C291.409 129.987 291.371 129.752 291.296 129.512C291.226 129.267 291.104 129.05 290.929 128.86C290.759 128.67 290.524 128.537 290.224 128.462C290.119 128.432 290.004 128.415 289.879 128.41C289.754 128.4 289.641 128.395 289.541 128.395H286.961V132.04ZM293.706 137.5L296.668 133.405L293.766 129.4H295.896L297.718 131.987L299.511 129.4H301.641L298.738 133.405L301.716 137.5H299.586L297.718 134.822L295.836 137.5H293.706Z" fill="white"/>
</g>
<defs>
<linearGradient id="paint0_linear_173_571" x1="163.06" y1="39.6616" x2="163.06" y2="214.06" gradientUnits="userSpaceOnUse">
<stop stop-color="#FFCCFF" stop-opacity="0.7"/>
<stop offset="1" stop-color="#FFCCFF" stop-opacity="0"/>
</linearGradient>
<clipPath id="clip0_173_571">
<rect width="326" height="254" fill="white"/>
</clipPath>
</defs>
</svg>
