<svg width="96" height="96" viewBox="0 0 96 96" fill="none" xmlns="http://www.w3.org/2000/svg">
<path d="M42.1477 57.0429C42.4071 57.0429 42.6566 56.9232 42.8163 56.6937C42.8651 56.6219 42.917 56.5455 42.9713 56.4648C44.0505 54.8603 46.0776 51.522 43.2654 48.3012C40.8803 45.5669 37.8167 42.9024 37.697 42.7927C37.4176 42.5532 37.0184 42.5332 36.719 42.7328C36.709 42.7328 35.8009 43.3415 34.7232 43.5211C33.7153 43.6908 32.0787 43.5211 32.0587 43.5112C31.7294 43.4713 31.4101 43.6409 31.2604 43.9403C30.3822 45.5968 28.8953 48.1315 28.3365 48.5906C28.2866 48.6305 28.2267 48.6704 28.1569 48.7103C27.608 48.3012 26.6301 47.6924 25.5124 47.4729C24.8937 47.3532 24.3049 47.3731 23.806 47.443C24.4147 46.2954 25.8417 43.7607 26.8496 41.9943C27.2089 41.6251 28.8953 39.8987 30.3523 38.7311C31.6296 37.7033 34.6034 36.1765 36.0404 35.448C36.4596 35.2285 36.7889 35.0688 36.9485 34.969C37.6072 34.6097 38.8246 34.5399 39.0641 34.7195C39.4733 35.1087 41.8483 37.8031 43.3452 39.5195C43.6146 39.8288 44.0737 39.8887 44.413 39.6592C44.7522 39.4297 44.862 38.9806 44.6724 38.6214C44.6225 38.5216 39.5132 28.6721 37.9664 22.3154C37.5872 20.7586 36.9785 18.9025 36.3997 17.1162C35.5614 14.5616 34.7032 11.9171 34.7631 10.8593C34.8729 8.90338 36.2999 7.48634 37.0284 7.0273C37.8467 8.53415 40.092 13.9628 42.0379 18.9325L45.5306 26.0875C45.7302 26.4867 46.2092 26.6563 46.6084 26.4568C47.0075 26.2572 47.1772 25.7782 46.9776 25.379L43.5148 18.2838C38.4953 5.43063 37.9864 5.35079 37.4375 5.27096C36.8388 5.19113 36.1402 5.64019 35.6512 6.03936C35.1024 6.48842 33.2962 8.15494 33.1465 10.7595C33.0666 12.1167 33.8949 14.6614 34.8629 17.6152C35.4417 19.3815 36.0304 21.1977 36.3997 22.6946C37.2579 26.2073 39.104 30.638 40.6608 34.0509C40.4412 33.8114 40.2716 33.6318 40.1718 33.542C39.1839 32.6239 37.0783 33.053 36.1702 33.552C36.0105 33.6418 35.7111 33.7915 35.3119 34.001C33.7253 34.8193 30.7614 36.3361 29.3544 37.4638C27.638 38.8409 25.702 40.8567 25.6222 40.9465C25.5723 40.9964 25.5323 41.0463 25.5024 41.1062C25.1831 41.655 22.4188 46.5349 22.0696 47.3132C21.9366 47.6173 21.7854 47.9665 21.6507 48.318C21.6439 48.3357 21.6372 48.3533 21.6305 48.371C21.5207 48.6704 21.5906 49.0097 21.8101 49.2392C22.1884 49.6275 22.6363 49.4595 22.8762 49.3696L22.8779 49.3689C22.945 49.3438 23.0275 49.3129 23.1228 49.28C23.5941 49.1173 24.3813 48.9036 25.203 49.0696C25.4485 49.1183 25.6874 49.1947 25.9132 49.2863C26.844 49.6639 27.5501 50.299 27.5581 50.307C27.8375 50.5565 28.2467 50.5864 28.556 50.3768C28.6658 50.307 28.7656 50.2471 28.8654 50.1872C29.0369 50.0789 29.1921 49.9787 29.3236 49.8793C29.3375 49.8689 29.351 49.8584 29.3644 49.8479C30.2325 49.1394 31.7693 46.3952 32.4379 45.1777C33.0766 45.2176 34.1643 45.2675 34.9926 45.1278C35.8408 44.9881 36.5893 44.6588 37.0783 44.4093C38.0063 45.2376 40.2616 47.3132 42.0679 49.3789C43.9439 51.5344 42.9061 53.7398 41.499 55.8055C41.4521 55.8749 41.4172 55.9489 41.3939 56.025C41.2932 56.3535 41.4088 56.7206 41.7086 56.9232C41.8284 57.003 41.988 57.0429 42.1477 57.0429Z" fill="#351C0C"/>
<path d="M50.7298 42.643C50.8595 42.643 50.9992 42.613 51.119 42.5432C51.5082 42.3236 51.6479 41.8347 51.4383 41.4455C51.0292 40.697 49.9314 38.4617 49.7917 37.0946C49.672 35.907 48.3946 30.7777 46.9776 25.1794C46.5585 23.5229 46.2092 22.1358 46.0396 21.4073C45.7901 20.3495 45.5306 19.152 45.2512 17.8846C44.9019 16.278 44.5227 14.5416 44.1036 12.8152C43.4949 10.3005 43.5248 6.91752 44.6325 5.82979C44.872 5.59029 45.0516 5.61025 45.1814 5.64019C45.7502 5.78988 46.6383 6.7878 47.2969 9.10296C47.6662 10.4202 51.3884 21.1778 51.5481 21.6268L55.7393 34.4563C55.7847 34.5598 55.8486 34.4574 55.9254 34.2441C56.1156 33.7154 56.3846 32.5048 56.6468 32.0523C56.6973 31.965 56.7477 31.9059 56.7971 31.8854C57.0722 31.7646 57.2481 32.8694 57.2822 33.4818C57.2971 33.7496 57.2849 33.9233 57.2421 33.8591C57.2372 33.8518 57.2319 33.8414 57.2262 33.8276L56.6468 32.0523L56.2327 30.7839L53.0549 21.048C53.035 20.9882 49.2129 9.93124 48.8537 8.66388C48.1252 6.06929 46.9676 4.44269 45.6005 4.07346C44.8421 3.87388 44.1036 4.08344 43.5048 4.67221C41.6986 6.43852 41.9381 10.7395 42.5369 13.1944C42.956 14.9108 43.3252 16.6273 43.6845 18.2339C43.9639 19.5112 44.2233 20.7187 44.4828 21.7865C44.6624 22.525 45.0117 23.9121 45.4308 25.5786C46.4886 29.7599 48.0853 36.0867 48.205 37.2542C48.4046 39.2301 49.9714 42.1041 50.0412 42.2239C50.161 42.4933 50.4404 42.643 50.7298 42.643Z" fill="#351C0C"/>
<path d="M46.3789 42.643C46.5784 42.643 46.778 42.5731 46.9377 42.4135C47.257 42.1041 47.267 41.5952 46.9576 41.2758C46.1793 40.4675 44.2333 37.9428 44.2134 37.9128C43.9439 37.5636 43.435 37.4937 43.0757 37.7632C42.7265 38.0326 42.6566 38.5415 42.9261 38.9008C43.0059 39.0106 44.9419 41.5153 45.7801 42.3935C45.9597 42.5631 46.1693 42.643 46.3789 42.643Z" fill="#351C0C"/>
<path d="M42.1477 57.0429C42.4071 57.0429 42.6566 56.9232 42.8163 56.6937C42.8651 56.6219 42.917 56.5455 42.9713 56.4648C42.9507 56.5686 42.9093 56.6702 42.8462 56.7635C42.0778 57.9011 40.8005 58.6895 39.3535 58.929C38.156 59.1286 37.0284 58.909 36.25 58.3203C34.7731 57.2126 31.2704 54.0392 27.9074 50.7561C27.1644 50.0304 26.5013 49.5659 25.9132 49.2863C26.844 49.6639 27.5501 50.299 27.5581 50.307C27.8375 50.5565 28.2467 50.5864 28.556 50.3768C28.6658 50.307 28.7656 50.2471 28.8654 50.1872C29.0369 50.0789 29.1921 49.9787 29.3236 49.8793C32.5036 52.9678 35.862 56.006 37.218 57.023C37.6471 57.3423 38.3456 57.4521 39.0941 57.3323C40.016 57.1848 40.8614 56.6966 41.3939 56.025C41.2932 56.3535 41.4088 56.7206 41.7086 56.9232C41.8284 57.003 41.988 57.0429 42.1477 57.0429Z" fill="#351C0C"/>
<path d="M55.3701 36.2663C55.5558 34.3443 55.7329 35.1231 55.9254 34.2441C56.1156 33.7154 56.3846 32.5048 56.6468 32.0523L57.2262 33.8276C57.2319 33.8414 57.2372 33.8518 57.2421 33.8591C57.1586 34.6569 57.0746 35.5298 56.9867 36.426C56.7472 38.8709 56.4977 41.4056 56.1884 43.1918C56.1086 43.6309 55.6894 43.9303 55.2503 43.8505C54.8113 43.7706 54.5119 43.3515 54.5917 42.9124C54.8911 41.176 55.1406 38.6813 55.3701 36.2663Z" fill="#351C0C"/>
<path d="M21.6305 48.371C21.5207 48.6704 21.5906 49.0097 21.8101 49.2392C22.1884 49.6275 22.6363 49.4595 22.8762 49.3696L22.8779 49.3689C22.945 49.3438 23.0275 49.3129 23.1228 49.28C22.8646 49.4238 22.6577 49.5846 22.4987 49.7082C21.7602 50.287 21.1814 51.3847 22.6484 53.3606C24.5145 55.8754 35.3119 67.8304 35.9406 68.519C35.9806 68.5689 36.0304 68.6188 36.0604 68.6786C36.1103 68.7685 36.1502 68.8683 36.1602 68.968C36.3099 69.2774 36.6791 70.0258 37.6171 71.872C38.5452 73.6982 40.2317 75.694 42.2375 77.3705C43.5248 78.4383 43.7303 85.9809 43.3651 86.9905C43 88 41.2096 88.5 41.7485 86.8507C42.2874 85.2015 41.7186 79.1967 41.2096 78.6079C39.0342 76.8017 37.208 74.6063 36.1801 72.6005L36.1411 72.5238C35.3661 71.003 34.8989 70.086 34.6633 69.5069C33.4458 68.1597 23.2371 56.8533 21.3511 54.3186C19.3453 51.6242 20.1137 49.5087 21.5008 48.4309C21.5507 48.3923 21.6006 48.3546 21.6507 48.318L21.6305 48.371Z" fill="#351C0C"/>
<path d="M63.5131 78.7676C64.2116 81.9809 65 86.4599 65 87.2299C65 88 63.7468 88.4799 63.3734 87.2399C63 86 62.569 82.1186 61.9212 79.1486L61.9164 79.1268C61.3277 76.4325 60.9684 74.736 60.9584 74.0375C60.8786 69.4969 60.1202 52.4226 60.1102 52.2529C60.1102 52.1631 60.1202 52.0833 60.1401 52.0034C60.699 49.8978 62.1559 44.09 62.1559 42.5033C62.1559 40.697 61.9663 23.922 61.9264 20.2597C61.0283 20.2098 59.4216 20.3794 58.7031 22.046C58.3705 22.8091 58.2201 24.6754 58.0733 26.4974L58.0645 26.6064C57.9447 28.1732 57.815 29.7998 57.5655 31.2867C57.4679 31.8677 57.375 32.6232 57.2822 33.4818C57.2481 32.8694 57.0722 31.7646 56.7971 31.8854C56.7477 31.9059 56.6973 31.965 56.6468 32.0523L56.2327 30.7839C56.3221 29.1174 56.3915 27.3278 56.4578 26.4767C56.6275 24.3013 56.7772 22.4252 57.2162 21.4073C58.4437 18.5433 61.4773 18.4235 62.9044 18.7528C63.2736 18.8426 63.5331 19.162 63.5331 19.5312C63.5331 19.7408 63.7726 40.4675 63.7726 42.4933C63.7726 44.4991 62.0561 51.0754 61.7368 52.2928C61.8067 53.8596 62.5052 69.6466 62.585 73.9976C62.595 74.5763 63.064 76.7019 63.5131 78.7676Z" fill="#351C0C"/>
</svg>
