<svg width="96" height="96" viewBox="0 0 96 96" fill="none" xmlns="http://www.w3.org/2000/svg">
<path d="M4.94106 48.1365H28.9278C30.8517 48.1365 32.6711 47.3836 34.0304 46.0243L43.7129 36.3418C45.7937 34.261 49.1711 34.261 51.2519 36.3418L60.6939 45.7838C62.0532 47.1431 63.8726 47.896 65.7966 47.896H91.0589C91.5817 47.896 92 47.4777 92 46.9549C92 46.4321 91.5817 46.0139 91.0589 46.0139H65.7966C64.3745 46.0139 63.0361 45.4597 62.0219 44.4559L52.5798 35.0138C49.7671 32.2011 45.1873 32.2011 42.3745 35.0138L32.692 44.6964C31.6882 45.7002 30.3498 46.2543 28.9173 46.2543H4.94106C4.41825 46.2543 4 46.6726 4 47.1954C4 47.7182 4.41825 48.1365 4.94106 48.1365Z" fill="#351C0C"/>
<path d="M91.0589 62.5977C87.211 62.5977 85.2766 63.7269 83.4049 64.8144C81.6692 65.8286 80.038 66.7802 76.7025 66.7802C73.3669 66.7802 71.7253 65.8286 70 64.8144C68.1283 63.7269 66.1939 62.5977 62.346 62.5977C58.4981 62.5977 56.5637 63.7269 54.692 64.8144C52.9563 65.8286 51.3251 66.7802 47.9895 66.7802C44.654 66.7802 43.0228 65.8286 41.2871 64.8144C39.4154 63.7269 37.481 62.5977 33.6331 62.5977C29.7852 62.5977 27.8612 63.7269 25.9895 64.8144C24.2538 65.8286 22.6226 66.7802 19.2871 66.7802C15.9515 66.7802 14.3203 65.8286 12.5846 64.8144C10.7129 63.7269 8.77852 62.5977 4.94106 62.5977C4.41825 62.5977 4 63.0159 4 63.5387C4 64.0615 4.41825 64.4798 4.94106 64.4798C8.27662 64.4798 9.90779 65.4313 11.6435 66.4456C13.5152 67.533 15.4496 68.6623 19.2871 68.6623C23.1245 68.6623 25.0589 67.533 26.9306 66.4456C28.6663 65.4313 30.2975 64.4798 33.6331 64.4798C36.9686 64.4798 38.5998 65.4313 40.3356 66.4456C42.2072 67.533 44.1416 68.6623 47.9895 68.6623C51.8375 68.6623 53.7614 67.533 55.6331 66.4456C57.3688 65.4313 59 64.4798 62.3356 64.4798C65.6711 64.4798 67.3127 65.4313 69.038 66.4456C70.9097 67.533 72.8441 68.6623 76.692 68.6623C80.5399 68.6623 82.4743 67.533 84.346 66.4456C86.0817 65.4313 87.7129 64.4798 91.0485 64.4798C91.5713 64.4798 91.9895 64.0615 91.9895 63.5387C91.9895 63.0159 91.5713 62.5977 91.0485 62.5977H91.0589Z" fill="#351C0C"/>
<path d="M46.9544 39.9702C46.1807 41.0681 39.3945 50.8656 39.3945 55.1213C39.3945 59.7116 43.1274 63.455 47.7282 63.455C52.3289 63.455 56.0618 59.7221 56.0618 55.1213C56.0618 50.8656 49.2757 41.0681 48.5019 39.9702C48.1464 39.4683 47.3099 39.4683 46.9649 39.9702H46.9544ZM47.7282 61.5728C44.173 61.5728 41.2767 58.6764 41.2767 55.1213C41.2767 52.3609 45.3964 45.6375 47.7282 42.1764C50.0495 45.6375 54.1797 52.3609 54.1797 55.1213C54.1797 58.6764 51.2833 61.5728 47.7282 61.5728Z" fill="#351C0C"/>
<path d="M45.6367 26.2519C45.6367 26.7747 46.055 27.193 46.5778 27.193C47.1006 27.193 47.5188 26.7747 47.5188 26.2519C47.5188 25.52 47.8325 25.1854 48.3135 24.673C48.8677 24.0875 49.6101 23.2928 49.6101 21.808C49.6101 20.3232 48.8573 19.5285 48.3031 18.943C47.8325 18.4411 47.5188 18.1065 47.5188 17.3745C47.5188 16.6426 47.8325 16.308 48.3031 15.8061C48.8573 15.2205 49.6101 14.4259 49.6101 12.9411C49.6101 12.4183 49.1918 12 48.669 12C48.1462 12 47.728 12.4183 47.728 12.9411C47.728 13.673 47.4143 14.0076 46.9438 14.5095C46.3896 15.0951 45.6367 15.8897 45.6367 17.3745C45.6367 18.8593 46.3896 19.654 46.9438 20.2395C47.4143 20.7414 47.728 21.076 47.728 21.808C47.728 22.5399 47.4143 22.8745 46.9438 23.3764C46.3896 23.962 45.6367 24.7567 45.6367 26.2414V26.2519Z" fill="#351C0C"/>
<path d="M56.1552 29.765C56.2284 29.786 56.3121 29.7964 56.3853 29.7964C56.8035 29.7964 57.1904 29.5141 57.295 29.0854C57.4727 28.3744 57.8596 28.1234 58.4452 27.7574C59.1248 27.3287 60.045 26.7432 60.4109 25.3002C60.7769 23.8677 60.2436 22.9057 59.8568 22.2052C59.5222 21.5987 59.3026 21.2014 59.4803 20.4903C59.6581 19.7793 60.045 19.5388 60.6305 19.1624C61.3102 18.7337 62.2303 18.1481 62.5963 16.7052C62.7218 16.2033 62.4185 15.6909 61.9166 15.5654C61.4147 15.4399 60.9024 15.7432 60.7769 16.2451C60.5991 16.9561 60.2123 17.1966 59.6267 17.573C58.9471 18.0017 58.0269 18.5873 57.6609 20.0302C57.295 21.4628 57.8282 22.4247 58.2151 23.1253C58.5497 23.7318 58.7693 24.1291 58.5915 24.8401C58.4138 25.5512 58.0269 25.8021 57.4414 26.1681C56.7617 26.5968 55.8415 27.1823 55.4756 28.6253C55.3501 29.1272 55.6533 29.6396 56.1552 29.765Z" fill="#351C0C"/>
<path d="M34.6152 19.1526C35.2007 19.5186 35.5876 19.7695 35.7654 20.4806C35.9431 21.1916 35.7235 21.5889 35.3889 22.1954C35.0021 22.896 34.4688 23.8579 34.8348 25.2904C35.2007 26.723 36.1209 27.319 36.8005 27.7477C37.3861 28.1241 37.773 28.3646 37.9507 29.0756C38.0553 29.5043 38.4422 29.7866 38.8604 29.7866C38.9336 29.7866 39.0173 29.7866 39.0905 29.7553C39.5924 29.6298 39.8956 29.1174 39.7701 28.6155C39.4042 27.183 38.484 26.587 37.8043 26.1583C37.2188 25.7819 36.8319 25.5414 36.6542 24.8304C36.4764 24.1193 36.696 23.722 37.0306 23.1155C37.4175 22.415 37.9507 21.453 37.5848 20.0205C37.2188 18.588 36.2986 17.992 35.619 17.5633C35.0334 17.1973 34.6466 16.9463 34.4688 16.2353C34.3433 15.7334 33.831 15.4302 33.3291 15.5557C32.8272 15.6811 32.5239 16.1935 32.6494 16.6954C33.0154 18.1279 33.9355 18.7239 34.6152 19.1526Z" fill="#351C0C"/>
<path d="M29.9945 53.125C27.7569 53.125 25.9375 54.9444 25.9375 57.182C25.9375 59.4197 27.7569 61.2391 29.9945 61.2391C32.2322 61.2391 34.0516 59.4197 34.0516 57.182C34.0516 54.9444 32.2322 53.125 29.9945 53.125ZM29.9945 59.3569C28.7921 59.3569 27.8196 58.3845 27.8196 57.182C27.8196 55.9796 28.7921 55.0071 29.9945 55.0071C31.197 55.0071 32.1694 55.9796 32.1694 57.182C32.1694 58.3845 31.197 59.3569 29.9945 59.3569Z" fill="#351C0C"/>
<path d="M17.5512 75.8564C15.3135 75.8564 13.4941 77.6758 13.4941 79.9135C13.4941 82.1511 15.3135 83.9705 17.5512 83.9705C19.7888 83.9705 21.6082 82.1511 21.6082 79.9135C21.6082 77.6758 19.7888 75.8564 17.5512 75.8564ZM17.5512 82.0884C16.3487 82.0884 15.3763 81.116 15.3763 79.9135C15.3763 78.711 16.3487 77.7386 17.5512 77.7386C18.7536 77.7386 19.7261 78.711 19.7261 79.9135C19.7261 81.116 18.7536 82.0884 17.5512 82.0884Z" fill="#351C0C"/>
<path d="M76.1801 73.1592C73.9424 73.1592 72.123 74.9786 72.123 77.2162C72.123 79.4539 73.9424 81.2732 76.1801 81.2732C78.4177 81.2732 80.2371 79.4539 80.2371 77.2162C80.2371 74.9786 78.4177 73.1592 76.1801 73.1592ZM76.1801 79.3911C74.9776 79.3911 74.0052 78.4187 74.0052 77.2162C74.0052 76.0137 74.9776 75.0413 76.1801 75.0413C77.3825 75.0413 78.355 76.0137 78.355 77.2162C78.355 78.4187 77.3825 79.3911 76.1801 79.3911Z" fill="#351C0C"/>
<path d="M51.1156 76.2744C48.878 76.2744 47.0586 78.0938 47.0586 80.3315C47.0586 82.5691 48.878 84.3885 51.1156 84.3885C53.3533 84.3885 55.1727 82.5691 55.1727 80.3315C55.1727 78.0938 53.3533 76.2744 51.1156 76.2744ZM51.1156 82.5064C49.9132 82.5064 48.9407 81.5339 48.9407 80.3315C48.9407 79.129 49.9132 78.1565 51.1156 78.1565C52.3181 78.1565 53.2905 79.129 53.2905 80.3315C53.2905 81.5339 52.3181 82.5064 51.1156 82.5064Z" fill="#351C0C"/>
<path d="M82.4004 58.102C82.4004 60.3396 84.2198 62.159 86.4574 62.159C88.6951 62.159 90.5145 60.3396 90.5145 58.102C90.5145 55.8643 88.6951 54.0449 86.4574 54.0449C84.2198 54.0449 82.4004 55.8643 82.4004 58.102ZM88.6323 58.102C88.6323 59.3044 87.6599 60.2769 86.4574 60.2769C85.255 60.2769 84.2825 59.3044 84.2825 58.102C84.2825 56.8995 85.255 55.9271 86.4574 55.9271C87.6599 55.9271 88.6323 56.8995 88.6323 58.102Z" fill="#351C0C"/>
<path d="M18.2411 49.4961C16.5053 49.4961 15.0938 50.9077 15.0938 52.6434C15.0938 54.3792 16.5053 55.7908 18.2411 55.7908C19.9768 55.7908 21.3884 54.3792 21.3884 52.6434C21.3884 50.9077 19.9768 49.4961 18.2411 49.4961ZM18.2411 53.9086C17.5405 53.9086 16.9759 53.344 16.9759 52.6434C16.9759 51.9429 17.5405 51.3782 18.2411 51.3782C18.9417 51.3782 19.5063 51.9429 19.5063 52.6434C19.5063 53.344 18.9417 53.9086 18.2411 53.9086Z" fill="#351C0C"/>
<path d="M39.363 69.2167C39.363 67.4809 37.9514 66.0693 36.2157 66.0693C34.48 66.0693 33.0684 67.4809 33.0684 69.2167C33.0684 70.9524 34.48 72.364 36.2157 72.364C37.9514 72.364 39.363 70.9524 39.363 69.2167ZM36.2157 70.4819C35.5151 70.4819 34.9505 69.9172 34.9505 69.2167C34.9505 68.5161 35.5151 67.9515 36.2157 67.9515C36.9163 67.9515 37.4809 68.5161 37.4809 69.2167C37.4809 69.9172 36.9163 70.4819 36.2157 70.4819Z" fill="#351C0C"/>
<path d="M41.329 74.0684C39.5932 74.0684 38.1816 75.48 38.1816 77.2157C38.1816 78.9514 39.5932 80.363 41.329 80.363C43.0647 80.363 44.4763 78.9514 44.4763 77.2157C44.4763 75.48 43.0647 74.0684 41.329 74.0684ZM41.329 78.4809C40.6284 78.4809 40.0638 77.9163 40.0638 77.2157C40.0638 76.5151 40.6284 75.9505 41.329 75.9505C42.0295 75.9505 42.5942 76.5151 42.5942 77.2157C42.5942 77.9163 42.0295 78.4809 41.329 78.4809Z" fill="#351C0C"/>
<path d="M86.9286 68.8408C85.1928 68.8408 83.7812 70.2524 83.7812 71.9882C83.7812 73.7239 85.1928 75.1355 86.9286 75.1355C88.6643 75.1355 90.0759 73.7239 90.0759 71.9882C90.0759 70.2524 88.6643 68.8408 86.9286 68.8408ZM86.9286 73.2534C86.228 73.2534 85.6634 72.6887 85.6634 71.9882C85.6634 71.2876 86.228 70.723 86.9286 70.723C87.6292 70.723 88.1938 71.2876 88.1938 71.9882C88.1938 72.6887 87.6292 73.2534 86.9286 73.2534Z" fill="#351C0C"/>
<path d="M66.1005 70.3984C64.3647 70.3984 62.9531 71.81 62.9531 73.5458C62.9531 75.2815 64.3647 76.6931 66.1005 76.6931C67.8362 76.6931 69.2478 75.2815 69.2478 73.5458C69.2478 71.81 67.8362 70.3984 66.1005 70.3984ZM66.1005 74.811C65.3999 74.811 64.8353 74.2463 64.8353 73.5458C64.8353 72.8452 65.3999 72.2806 66.1005 72.2806C66.801 72.2806 67.3657 72.8452 67.3657 73.5458C67.3657 74.2463 66.801 74.811 66.1005 74.811Z" fill="#351C0C"/>
<path d="M69.4977 55.7701C68.6822 55.9897 68.0025 56.5021 67.5843 57.234C67.166 57.9555 67.051 58.8025 67.2601 59.618C67.4797 60.4336 67.992 61.1133 68.724 61.5315C69.205 61.8139 69.7487 61.9603 70.3029 61.9603C70.5747 61.9603 70.8466 61.9289 71.108 61.8557C72.781 61.4165 73.7848 59.6912 73.3457 58.0078C72.9065 56.3348 71.1812 55.331 69.4977 55.7701ZM71.3903 59.4507C71.223 59.7435 70.9512 59.9527 70.6166 60.0363C70.2924 60.12 69.9474 60.0781 69.6546 59.9108C69.3618 59.7435 69.1527 59.4717 69.069 59.1371C68.9854 58.8129 69.0272 58.4679 69.1945 58.1751C69.3618 57.8823 69.6337 57.6732 69.9683 57.5895C70.0728 57.5582 70.1879 57.5477 70.2924 57.5477C70.8466 57.5477 71.359 57.9241 71.5158 58.4888C71.5995 58.8129 71.5576 59.158 71.3903 59.4507Z" fill="#351C0C"/>
<path d="M25.3096 69.4883C23.9294 69.4883 22.8105 70.6071 22.8105 71.9873C22.8105 73.3676 23.9294 74.4864 25.3096 74.4864C26.6898 74.4864 27.8086 73.3676 27.8086 71.9873C27.8086 70.6071 26.6898 69.4883 25.3096 69.4883ZM25.3096 72.6042C24.9645 72.6042 24.6927 72.3219 24.6927 71.9873C24.6927 71.6527 24.975 71.3704 25.3096 71.3704C25.6442 71.3704 25.9265 71.6527 25.9265 71.9873C25.9265 72.3219 25.6442 72.6042 25.3096 72.6042Z" fill="#351C0C"/>
<path d="M62.335 79.3906C60.9548 79.3906 59.8359 80.5094 59.8359 81.8897C59.8359 83.2699 60.9548 84.3887 62.335 84.3887C63.7152 84.3887 64.834 83.2699 64.834 81.8897C64.834 80.5094 63.7152 79.3906 62.335 79.3906ZM62.335 82.5066C61.9899 82.5066 61.7181 82.2243 61.7181 81.8897C61.7181 81.5551 61.9899 81.2727 62.335 81.2727C62.68 81.2727 62.9519 81.5551 62.9519 81.8897C62.9519 82.2243 62.68 82.5066 62.335 82.5066Z" fill="#351C0C"/>
<path d="M7.26172 57.1924C7.26172 58.5726 8.38054 59.6915 9.76077 59.6915C11.141 59.6915 12.2598 58.5726 12.2598 57.1924C12.2598 55.8122 11.141 54.6934 9.76077 54.6934C8.38054 54.6934 7.26172 55.8122 7.26172 57.1924ZM10.3777 57.1924C10.3777 57.5375 10.0954 57.8093 9.76077 57.8093C9.42617 57.8093 9.14385 57.527 9.14385 57.1924C9.14385 56.8578 9.42617 56.5755 9.76077 56.5755C10.0954 56.5755 10.3777 56.8578 10.3777 57.1924Z" fill="#351C0C"/>
<path d="M16.3906 61.8662C16.3906 63.2465 17.5094 64.3653 18.8897 64.3653C20.2699 64.3653 21.3887 63.2465 21.3887 61.8662C21.3887 60.486 20.2699 59.3672 18.8897 59.3672C17.5094 59.3672 16.3906 60.486 16.3906 61.8662ZM19.5066 61.8662C19.5066 62.2113 19.2243 62.4832 18.8897 62.4832C18.5551 62.4832 18.2728 62.2008 18.2728 61.8662C18.2728 61.5316 18.5551 61.2493 18.8897 61.2493C19.2243 61.2493 19.5066 61.5316 19.5066 61.8662Z" fill="#351C0C"/>
<path d="M9.77249 69.4883C8.39226 69.4883 7.27344 70.6071 7.27344 71.9873C7.27344 73.3676 8.39226 74.4864 9.77249 74.4864C11.1527 74.4864 12.2715 73.3676 12.2715 71.9873C12.2715 70.6071 11.1527 69.4883 9.77249 69.4883ZM9.77249 72.6042C9.42743 72.6042 9.15557 72.3219 9.15557 71.9873C9.15557 71.6527 9.43789 71.3704 9.77249 71.3704C10.1071 71.3704 10.3894 71.6527 10.3894 71.9873C10.3894 72.3219 10.1071 72.6042 9.77249 72.6042Z" fill="#351C0C"/>
<path d="M75.4902 52.6436C75.4902 54.0238 76.6091 55.1426 77.9893 55.1426C79.3695 55.1426 80.4883 54.0238 80.4883 52.6436C80.4883 51.2634 79.3695 50.1445 77.9893 50.1445C76.6091 50.1445 75.4902 51.2634 75.4902 52.6436ZM78.6062 52.6436C78.6062 52.9886 78.3343 53.2605 77.9893 53.2605C77.6442 53.2605 77.3724 52.9782 77.3724 52.6436C77.3724 52.309 77.6442 52.0267 77.9893 52.0267C78.3343 52.0267 78.6062 52.309 78.6062 52.6436Z" fill="#351C0C"/>
<path d="M59.8359 53.1563C59.8359 54.5365 60.9548 55.6553 62.335 55.6553C63.7152 55.6553 64.834 54.5365 64.834 53.1563C64.834 51.7761 63.7152 50.6572 62.335 50.6572C60.9548 50.6572 59.8359 51.7761 59.8359 53.1563ZM62.9519 53.1563C62.9519 53.5013 62.68 53.7732 62.335 53.7732C61.9899 53.7732 61.7181 53.4909 61.7181 53.1563C61.7181 52.8217 61.9899 52.5394 62.335 52.5394C62.68 52.5394 62.9519 52.8217 62.9519 53.1563Z" fill="#351C0C"/>
<path d="M31.5518 78.2822C30.1716 78.2822 29.0527 79.4011 29.0527 80.7813C29.0527 82.1615 30.1716 83.2803 31.5518 83.2803C32.932 83.2803 34.0508 82.1615 34.0508 80.7813C34.0508 79.4011 32.932 78.2822 31.5518 78.2822ZM31.5518 81.3982C31.2067 81.3982 30.9349 81.1159 30.9349 80.7813C30.9349 80.4467 31.2172 80.1644 31.5518 80.1644C31.8864 80.1644 32.1687 80.4467 32.1687 80.7813C32.1687 81.1159 31.8864 81.3982 31.5518 81.3982Z" fill="#351C0C"/>
<path d="M56.3858 69.4883C55.0055 69.4883 53.8867 70.6071 53.8867 71.9873C53.8867 73.3676 55.0055 74.4864 56.3858 74.4864C57.766 74.4864 58.8848 73.3676 58.8848 71.9873C58.8848 70.6071 57.766 69.4883 56.3858 69.4883ZM56.3858 72.6042C56.0407 72.6042 55.7688 72.3219 55.7688 71.9873C55.7688 71.6527 56.0407 71.3704 56.3858 71.3704C56.7308 71.3704 57.0027 71.6527 57.0027 71.9873C57.0027 72.3219 56.7308 72.6042 56.3858 72.6042Z" fill="#351C0C"/>
</svg>
