<svg width="96" height="96" viewBox="0 0 96 96" fill="none" xmlns="http://www.w3.org/2000/svg">
<path fill-rule="evenodd" clip-rule="evenodd" d="M24.2318 51.4456H25.5309C27.5164 51.4456 29.4183 52.2358 30.8246 53.6388C31.1594 53.9736 31.7018 53.9736 32.0367 53.6388C32.3716 53.3039 32.3715 52.7615 32.0367 52.4266C30.309 50.7023 27.9719 49.7313 25.531 49.7313H24.2319V44.749C24.2319 44.2769 23.8502 43.8918 23.3747 43.8918H19.3065C19.119 43.8918 18.9449 43.7914 18.8511 43.6307C18.7574 43.4699 18.7574 43.269 18.8478 43.105L24.1213 33.8236C24.195 33.693 24.2318 33.549 24.2318 33.3983V30.1706C24.2318 25.2754 26.1772 20.5806 29.6393 17.122C33.0982 13.6598 37.7925 11.7144 42.688 11.7144H48.7686C58.9611 11.7144 67.2242 19.978 67.2242 30.1701V37.9181C67.2242 42.2608 66.0356 46.5232 63.7922 50.2399L60.3836 55.8952C60.1392 56.2936 60.0119 56.7524 60.0119 57.2211V65.1566C60.0119 67.3967 61.4082 69.3989 63.5109 70.1724C67.6159 71.6858 75.1701 74.4716 80.5402 76.4538C83.9086 77.696 86.1453 80.9071 86.1453 84.4964V85.1427C86.1453 85.6148 86.5304 85.9998 87.0025 85.9998C87.4746 85.9998 87.8596 85.6148 87.8596 85.1427V84.4964C87.8596 80.1872 85.1743 76.3366 81.1329 74.843C75.7622 72.8642 68.2085 70.0784 64.1035 68.565C62.6738 68.0393 61.7263 66.6766 61.7263 65.1564V57.2209C61.7263 57.0635 61.7698 56.9128 61.8502 56.7789L65.2621 51.1269C67.6662 47.1391 68.9386 42.572 68.9386 37.918V30.17C68.9386 19.0302 59.9083 10 48.7686 10H42.688C37.3408 10 32.2075 12.1262 28.4273 15.9097C24.6437 19.69 22.5176 24.8226 22.5176 30.1704V33.1738L17.3579 42.2581C16.9628 42.9512 16.9695 43.805 17.3713 44.4914C17.7731 45.1812 18.5097 45.6064 19.3066 45.6064H22.5176V57.4628C22.5176 58.3467 22.8692 59.1905 23.492 59.8166C24.1148 60.4394 24.9618 60.7876 25.8425 60.7876H36.3196V65.1103C36.3196 66.6506 35.3486 68.0233 33.8955 68.5356L15.865 74.8975C11.7533 76.3473 9.00098 80.2347 9.00098 84.5937V85.1428C9.00098 85.6149 9.38603 86 9.85814 86C10.3303 86 10.7153 85.6149 10.7153 85.1428V84.5937C10.7153 80.9608 13.0089 77.723 16.4342 76.5109C22.0929 74.5153 30.1558 71.6726 34.4682 70.1524C36.6044 69.3957 38.0342 67.3767 38.0342 65.1099V59.93C38.0342 59.4579 37.6524 59.0729 37.177 59.0729H25.8427C25.4174 59.0729 25.0056 58.9055 24.7043 58.6008C24.4029 58.2994 24.2322 57.8909 24.2322 57.4624L24.2318 51.4456ZM34.7218 25.0243H31.5074C31.0353 25.0243 30.6502 25.4094 30.6502 25.8815V32.9531C30.6502 33.4252 31.0353 33.8103 31.5074 33.8103H34.7218V36.1875C34.7218 36.663 35.1068 37.0447 35.579 37.0447H58.2939C58.766 37.0447 59.151 36.663 59.151 36.1875V22.6434C59.151 22.1713 58.766 21.7863 58.2939 21.7863H35.579C35.1068 21.7863 34.7218 22.1713 34.7218 22.6434V25.0243ZM54.9492 23.5009H57.437V35.3306H54.9492V23.5009ZM50.8777 35.3306H53.2349V23.5009H50.8777V35.3306ZM36.4361 23.5009V35.3306H49.1633V23.5009H36.4361ZM34.7218 26.7386H32.3646V32.0959H34.7218V26.7386Z" fill="#351C0C"/>
</svg>
