<svg xmlns="http://www.w3.org/2000/svg" data-name="Layer 2" viewBox="0 0 675.46 130.61"><path d="M5.91 23.51c.29-.57 1.43-2.63 1.94-4.6l4.53-16.85h-1.81c-2.28 0-5.65 3.65-6.41 4.16h-.13L5.49.79h18.28l-1.46 5.43h-.13c-.48-.51-1.87-4.16-4.16-4.16h-1.74l-4.51 16.85c-.54 1.97-.51 4.03-.57 4.6v.13H5.87l.03-.13ZM25.19 5.2c.54-1.97.51-3.93.44-4.51v-.1l4.6-.6-3.49 12.95c1.59-2.7 3.9-5.36 6.79-5.36 2.25 0 4.06 1.59 3.05 5.24l-2.06 7.49c-.51 1.81 1.81.54 3.74-2.28l.25.19c-1.3 3.14-3.49 5.68-5.71 5.68-1.78 0-2.54-1.4-1.9-3.68l1.9-6.79c.7-2.54-.03-3.46-1.11-3.46-2.13 0-4.89 3.55-6.41 8.44l-1.4 5.24h-3.62l4.92-18.43Zm15.48 9.93c1.43-4.98 5.43-7.55 9.01-7.55 2.86 0 5.11 1.52 4.51 3.97-.57 2.6-4.03 4.92-10.06 4.57-.57 3.17.48 5.33 2.85 5.33 1.81 0 4.44-1.11 6.25-3.97l.35.22c-1.74 3.68-5.04 6.22-8.22 6.22-3.59 0-6.25-3.4-4.7-8.79m3.66.16c4.28-.22 6.16-2.03 6.66-3.78.41-1.49-.13-2.79-1.46-2.79-2.22 0-4.25 3.24-5.08 6.09-.03.16-.09.32-.13.48M0 30.32h39.14c15.48 0 26.05 9.05 26.05 20.82 0 10.25-8.18 15.26-16.46 17.77 10.03 2.18 20.17 7.52 20.17 19.62 0 13.85-13.19 20.28-27.58 20.28H0v-.44c0-.44 3.38-9.92 3.38-18.21V48.95C3.38 40.67 0 31.18 0 30.74v-.44Zm42.52 20.82c0-6.32-3.49-15.48-11.12-15.48h-6.21v31.07h6.21c7.63 0 11.12-9.38 11.12-15.59m3.81 37.06c0-7.96-2.94-16.24-12.75-16.24h-8.39v31.51h8.39c8.72 0 12.75-5.78 12.75-15.26m27.47 3.7c0-11.12 9.81-18.1 20.71-18.1 3.16 0 8.29.65 12.54 2.4v-6c0-7.41 0-12.21-2.4-12.21-6.1 0-25.51 15.48-25.51 15.48h-.55V56.26c11.01-2.51 21.37-3.71 27.36-3.71 16.24 0 21.59 8.72 21.59 19.3V90.6c0 6.98 1.2 10.47 6.87 7.52l.33.33c-.44 6.32-5.12 11.45-13.41 11.45-6.76 0-11.45-3.38-13.3-9.48-2.29 4.25-7.63 9.48-16.57 9.48-11.77 0-17.66-9.48-17.66-17.99m29.44 6.98c1.53 0 2.83-.44 4.14-1.42-.22-1.2-.33-2.4-.33-3.82V79.91c-1.09-.33-2.18-.44-3.27-.44-6.32 0-8.72 3.92-8.72 9.16 0 5.78 2.83 10.25 8.18 10.25m61.59 9.93h-27.25v-.44c0-.44 3.38-9.92 3.38-18.21v-42.3c0-8.29-3.6-17.33-3.6-17.77l-.11-.44 3.38-.44 20.82-2.18v63.12c0 8.29 3.38 17.77 3.38 18.21v.44Zm2.73-16.9c0-11.12 9.81-18.1 20.71-18.1 3.16 0 8.29.65 12.54 2.4v-6c0-7.41 0-12.21-2.4-12.21-6.1 0-25.51 15.48-25.51 15.48h-.55V56.26c11.01-2.51 21.37-3.71 27.36-3.71 16.24 0 21.59 8.72 21.59 19.3V90.6c0 6.98 1.2 10.47 6.87 7.52l.33.33c-.44 6.32-5.12 11.45-13.41 11.45-6.76 0-11.45-3.38-13.3-9.48-2.29 4.25-7.63 9.48-16.57 9.48-11.77 0-17.66-9.48-17.66-17.99M197 98.89c1.53 0 2.83-.44 4.14-1.42-.22-1.2-.33-2.4-.33-3.82V79.91c-1.09-.33-2.18-.44-3.27-.44-6.32 0-8.72 3.92-8.72 9.16 0 5.78 2.83 10.25 8.18 10.25m62.03 9.93h-27.25v-.44c0-.44 3.38-9.92 3.38-18.21V71.84c0-8.28-3.38-17.77-3.38-18.21v-.44h23.87v9.27c2.83-4.91 8.61-9.92 17.44-9.92 10.14 0 18.1 6.54 18.1 18.1v19.51c0 8.29 3.38 17.77 3.38 18.21v.44h-27.25v-.44c0-.44 3.38-9.92 3.38-18.21V73.58c0-6.43-3.82-8.5-7.85-8.61-2.51-.11-5.02.65-7.2 1.64v23.55c0 8.29 3.38 17.77 3.38 18.21zm39.57-27.58c0-18.32 12.1-28.67 29.65-28.67 9.81 0 18.42 3.71 22.67 4.91l.33 19.08h-.55c-4.14-6.54-14.06-18.97-21.91-18.97-6.32 0-8.07 8.07-7.96 16.79.22 13.3 4.36 22.57 16.35 22.57 4.47 0 9.81-1.31 16.03-4.8l.44.33c-2.29 7.09-10.9 17.66-25.95 17.66-13.41 0-29.11-8.5-29.11-28.89m88.64 27.57h-27.25v-.44c0-.44 3.38-9.92 3.38-18.21V71.85c0-8.29-3.38-17.77-3.38-18.21v-.44h23.87v36.96c0 8.29 3.38 17.77 3.38 18.21zm-23.67-74.94c0-5.76 4.74-10.31 10.5-10.31s10.5 4.55 10.5 10.31-4.83 10.31-10.5 10.31-10.5-4.55-10.5-10.31m55.83 74.94h-27.25v-.44c0-.44 3.38-9.92 3.38-18.21V71.84c0-8.28-3.38-17.77-3.38-18.21v-.44h23.87v9.27c2.83-4.91 8.61-9.92 17.44-9.92 10.14 0 18.1 6.54 18.1 18.1v19.51c0 8.29 3.38 17.77 3.38 18.21v.44h-27.25v-.44c0-.44 3.38-9.92 3.38-18.21V73.58c0-6.43-3.81-8.5-7.85-8.61-2.51-.11-5.01.65-7.19 1.64v23.55c0 8.29 3.38 17.77 3.38 18.21v.44Zm57.13-18.21c-2.4.76-4.25 1.96-4.25 3.71 0 1.85 2.18 2.07 6.21 2.07h17.99c12.43 0 18.86 6.21 18.86 16.46 0 14.28-15.15 17.77-29.76 17.77-6.65 0-25.4-.76-25.4-11.88 0-2.73 1.09-5.34 2.94-7.52-2.51-2.73-3.05-6.1-3.05-8.61 0-7.09 4.47-11.34 12.43-13.3-6.98-2.94-12.65-8.5-12.65-17.22 0-13.85 14.39-19.51 25.29-19.51 4.25 0 8.94.76 13.19 2.62 2.62-7.41 8.18-13.74 18.75-12.21l-2.73 15.26-.33.22c-3.27-1.85-7.63-3.05-12.65-1.74 5.34 3.05 9.27 8.07 9.27 15.37 0 13.85-14.61 19.73-25.51 19.73-2.73 0-5.67-.33-8.61-1.2m-5.88 24.62c.98 5.56 5.23 10.14 16.46 10.14 6.1 0 16.35-1.2 16.35-5.78 0-2.51-2.07-3.6-7.85-3.6h-18.1c-2.62 0-4.91-.22-6.87-.76m20.29-43.06c0-6.87-1.2-14.83-5.78-14.83s-5.56 7.96-5.56 14.83.98 14.94 5.56 14.94 5.78-8.07 5.78-14.94m36.61 18.31 18.1-49.6c1.53-4.36.11-8.72-.76-10.25v-.33h13.3l23.77 62.58c2.4 6.54 4.58 11.56 7.41 15.59v.33h-17.88v-.33c.54-2.94.98-9.27-1.42-15.7l-4.03-10.79h-30.74l-2.83 7.74c-2.73 7.74-1.53 15.26-.65 18.64v.44h-12.21v-.33c2.18-3.38 5.23-10.47 7.96-17.99m36.83-12.64-14.06-37.39-13.52 37.39zm24.64 3.92c0-17.66 10.9-27.8 25.84-27.8 7.63 0 14.06 2.83 18.75 5.34l.11 12.97h-.44c-3.71-6.21-9.81-14.61-18.32-14.61-9.7 0-14.72 10.14-14.72 21.8.11 13.63 6.76 23 18.53 23 4.91 0 10.9-1.63 17.22-7.41l.33.11c-3.82 8.61-11.77 14.5-21.91 14.5-13.52 0-25.4-9.92-25.4-27.91m58.22 12.88V58.66h-7.96v-2.94c9.48-2.94 13.85-9.16 17.01-16.57h1.2v15.48h15.26v4.03h-15.26l.11 34.67c0 6.21 2.84 9.27 7.96 9.27 2.51 0 6.21-.76 9.92-3.38-2.73 6-8.18 10.47-15.26 10.47-8.39 0-12.97-6-12.97-15.04" data-name="Layer 1" style="fill:#170c0f"/></svg>