<svg xmlns="http://www.w3.org/2000/svg" viewBox="0 0 1400 711.9"><path fill="#c9cbce" fill-rule="evenodd" d="M834 1.961c0 1.421-1.035 2.241-3.75 2.973-2.062.556-5.325 2.407-7.25 4.112-12.484 11.059-24.611 24.147-26.517 28.618-.666 1.56-2.171 3.693-3.346 4.741S791 44.881 791 45.578s-1.141 2.624-2.535 4.281-3.242 5.394-4.106 8.304-2.424 6.375-3.465 7.699c-1.042 1.324-1.894 3.032-1.894 3.794 0 .763-1.518 5.315-3.374 10.116s-3.664 10.346-4.017 12.324-1.497 5.366-2.541 7.528c-1.045 2.162-2.369 7.308-2.943 11.435s-1.994 9.651-3.154 12.275c-1.336 3.02-2.411 8.329-2.929 14.468-.45 5.334-1.791 12.623-2.98 16.198-2.267 6.816-3.954 35.279-4.03 68.008-.03 12.457-.227 13.873-2.532 18.204-1.375 2.583-2.5 5.223-2.5 5.866s-1.8 3.865-4 7.16-4 6.432-4 6.972-.841 2.176-1.869 3.636-2.214 3.779-2.637 5.154c-.422 1.375-1.855 3.8-3.184 5.39s-2.677 4.193-2.995 5.785-1.411 3.479-2.427 4.191-2.525 2.915-3.353 4.896-2.013 3.915-2.633 4.299c-.621.383-1.961 2.58-2.979 4.88-1.018 2.301-2.767 5.013-3.887 6.026-1.12 1.014-2.036 2.406-2.036 3.093 0 .688-1.462 3.041-3.25 5.23-1.788 2.188-4.15 5.478-5.25 7.311-4.828 8.044-5.791 9.511-7.478 11.399-.984 1.1-2.527 3.462-3.431 5.25S690.522 340 690 340s-1.68 1.414-2.573 3.142c-.894 1.728-3.822 5.433-6.507 8.233s-6.803 7.667-9.151 10.815-4.719 5.584-5.269 5.414c-1.784-.551-.774-17.255 1.393-23.048 1.085-2.9 2.486-9.049 3.114-13.664.798-5.865 1.746-9.04 3.149-10.543 1.369-1.467 2.297-4.466 2.921-9.436.503-4.007 1.852-9.083 2.998-11.281 1.145-2.197 2.686-7.426 3.423-11.62s2.226-9.173 3.308-11.068 2.264-5.848 2.627-8.786c.366-2.958 1.722-6.974 3.04-9 1.465-2.252 2.638-5.964 3.054-9.658.371-3.3 1.739-8.302 3.039-11.115 1.56-3.375 2.594-7.966 3.04-13.5.371-4.612 1.524-10.569 2.561-13.238 3.346-8.613 3.494-15.497.456-21.204-1.443-2.71-2.623-5.478-2.623-6.15 0-3.321-6.337-8.338-13.143-10.405l-6.929-2.105L676 174c-4.024 1.505-6.823 3.349-8.714 5.743-6.656 8.424-5.379 8.098-10.886 2.771-2.695-2.607-6.587-5.819-8.65-7.139-2.062-1.32-3.75-2.81-3.75-3.31s-1.687-1.455-3.75-2.122-5.55-2.254-7.75-3.526c-2.2-1.273-6.025-2.625-8.5-3.006s-6.3-1.641-8.5-2.802c-6.087-3.21-31.695-3.174-35.793.05-1.51 1.187-5.005 2.469-7.767 2.849-3.004.413-6.139 1.63-7.799 3.027-1.526 1.284-3.933 2.626-5.349 2.981-1.415.355-3.831 1.959-5.37 3.565-1.538 1.605-3.182 2.919-3.653 2.919-.687 0-18.465 17.506-23.491 23.132a73 73 0 0 1-2.221 2.368c-2.643 2.649-7.057 8.36-7.058 9.132-.001.477-1.185 2.218-2.632 3.868s-3.484 4.894-4.527 7.209-2.267 4.437-2.72 4.717-1.614 2.661-2.581 5.291-2.834 7.009-4.149 9.729c-1.314 2.721-2.39 5.776-2.39 6.79s-.905 3.618-2.012 5.787-2.633 6.909-3.393 10.532c-.761 3.633-2.293 7.565-3.414 8.767-1.118 1.198-2.351 3.528-2.741 5.178-.83 3.514-4.607 9.946-9.19 15.646-1.788 2.224-3.25 4.522-3.25 5.107 0 1.657-19.674 20.395-24.334 23.177-24.531 14.642-48.314 15.229-61.712 1.523-1.625-1.662-2.954-3.422-2.954-3.911s-1.156-2.263-2.57-3.943c-5.879-6.986-3.891-18.698 2.202-12.976 3.696 3.471 23.534 3.61 28.149.197 1.622-1.199 5.204-2.59 7.96-3.091 5.232-.951 12.325-4.79 17.513-9.479 1.673-1.512 3.449-2.75 3.946-2.75 2.35 0 33.8-32.245 33.8-34.655 0-.665 1.3-2.134 2.889-3.266 1.589-1.131 3.192-3.299 3.563-4.818s1.785-4.381 3.143-6.36c1.758-2.564 2.71-5.751 3.306-11.073.461-4.11 1.384-8.492 2.05-9.737 2.547-4.759-1.484-30.831-5.427-35.091-1.272-1.375-2.61-3.91-2.972-5.634-.444-2.106-3.182-5.595-8.356-10.646-12.268-11.975-14.193-13.564-17.935-14.799-1.943-.641-5.065-2.206-6.938-3.477-2.101-1.425-5.592-2.537-9.114-2.901-3.14-.325-7.984-1.042-10.764-1.595-7.382-1.466-30.281 1.17-34.887 4.016-1.862 1.151-5.655 2.767-8.429 3.59-2.774.824-5.318 1.943-5.654 2.486s-2.493 1.947-4.793 3.118c-2.3 1.172-4.77 2.965-5.489 3.986-.718 1.021-1.929 1.856-2.689 1.856-3.143 0-25.057 20.876-27.214 25.924-.804 1.883-2.548 4.278-3.876 5.322s-2.414 2.48-2.414 3.189-1.35 2.989-3 5.065-3 4.372-3 5.103-1.35 2.865-3 4.744c-2.2 2.506-3 4.424-3 7.191 0 2.524-.862 4.903-2.602 7.185-1.904 2.496-2.843 5.337-3.501 10.594-.539 4.308-1.668 8.225-2.82 9.787-1.057 1.433-2.447 4.583-3.089 7-.642 2.418-1.974 5.296-2.96 6.396-.987 1.1-2.492 3.383-3.345 5.073s-2.233 3.638-3.066 4.33c-.833.691-2.043 2.908-2.689 4.927s-1.997 4.576-3.003 5.684c-1.006 1.107-2.5 3.618-3.319 5.579-.82 1.962-2.221 4.173-3.114 4.914s-2.335 2.73-3.205 4.42-2.384 3.973-3.365 5.073c-3.502 3.928-7.535 9.041-9.092 11.526-2.327 3.715-8.253 6.697-10.161 5.114-3.364-2.791-4.458-7.641-5.108-22.64-1.055-24.345-3.564-54.808-4.737-57.5-.744-1.71-1.284-32.262-1.706-96.67l-.618-94.171-2.169-2.329c-1.193-1.282-2.492-4.079-2.887-6.217s-1.45-4.619-2.345-5.514c-.894-.894-2.644-3.056-3.888-4.803-1.245-1.748-3.264-3.481-4.487-3.852s-3.272-1.635-4.554-2.809c-3.744-3.431-17.695-3.714-21.731-.441-1.616 1.311-4.177 2.919-5.689 3.573-1.512.655-2.75 1.632-2.75 2.171 0 .54-1.171 2.067-2.602 3.394-2.229 2.067-2.741 3.686-3.567 11.29-.53 4.883-1.872 13.378-2.98 18.878-1.582 7.848-2.21 16.641-2.917 40.86-.495 16.973-1.356 32.498-1.912 34.5s-1.013 6.949-1.016 10.994c-.005 6.581-1.005 23.423-2.605 43.854-.562 7.188-.58 7.225-6.482 13.295-3.256 3.347-5.919 6.468-5.919 6.935 0 1.958-42.731 44.379-44.153 43.834-1.249-.48-1.638-9.592-2.616-61.418-.885-46.85-1.48-62.046-2.582-66.036-.788-2.85-1.737-12.3-2.109-21-1.002-23.429-2.281-35.785-4.143-40.031-.913-2.083-2.24-7.505-2.95-12.049-.966-6.193-1.935-9.029-3.868-11.327-1.419-1.685-2.598-4.042-2.622-5.238C104.835 30.573 87.878 18 79.772 18c-4.054 0-16.409 5.96-18.093 8.727-.452.742-2.133 2.691-3.736 4.331s-3.211 4.211-3.572 5.712c-.361 1.502-1.687 4.791-2.945 7.311-1.259 2.52-2.571 7.245-2.917 10.5C47.355 65.449 49.754 153.608 51.46 163c.849 4.675 1.78 16.375 2.068 26 .622 20.776 2.161 37.163 3.945 42 .71 1.925 1.589 7.325 1.952 12 1.288 16.566 2.75 27.548 4.169 31.309.79 2.094 1.869 10.419 2.398 18.5 1.374 21.013 2.104 27.176 3.656 30.89.778 1.863 2.02 12.208 2.876 23.968.829 11.38 2.181 23.198 3.005 26.262s1.984 13.446 2.579 23.071c.824 13.359 1.526 18.452 2.965 21.523 1.037 2.212 2.503 7.287 3.257 11.276.818 4.327 2.189 8.152 3.398 9.478 1.114 1.223 2.554 3.875 3.2 5.893 1.464 4.576 2.346 5.302 10.152 8.361 10.203 3.999 17.199 2.176 24.532-6.391 4.99-5.829 5.279-10.668 4.161-69.64-1.015-53.526-.94-54.883 3.296-59.65 1.638-1.843 3.979-4.618 5.204-6.168s4.968-5.6 8.319-9c3.35-3.4 6.679-7.307 7.398-8.682 1.716-3.283 5.178-7.555 12.51-15.436 3.3-3.547 7.125-7.865 8.5-9.595 7.092-8.923 11.975-12.057 12.027-7.719.173 14.301 2.062 31.948 3.935 36.771 1.171 3.013 2.558 9.443 3.081 14.288.896 8.282 3.545 15.978 8.5 24.691.782 1.375 2.157 4.073 3.055 5.996.899 1.922 2.729 4.847 4.067 6.5s4.715 5.835 7.505 9.296 6.787 7.166 8.883 8.235c2.096 1.07 4.116 2.438 4.489 3.041.373.604 2.541 1.955 4.818 3.003s5.715 2.834 7.64 3.967c5.15 3.033 23.376 2.545 27.82-.744 1.638-1.213 4.051-2.475 5.361-2.803 2.541-.638 17.819-14.486 17.819-16.151 0-.545 1.112-2.036 2.471-3.313 1.359-1.276 2.999-3.942 3.645-5.924s2.234-4.875 3.529-6.43S306 338.241 306 337.5s1.159-2.724 2.577-4.409 3.02-4.668 3.562-6.632c1.668-6.04 7.912-5.055 9.346 1.474.363 1.65 1.697 4.529 2.965 6.398s2.821 4.959 3.451 6.868c1.482 4.492 20.623 23.695 25.817 25.901 2.089.887 4.41 2.349 5.157 3.249s3.218 2.134 5.491 2.742c2.274.607 6.159 2.037 8.634 3.176 11.615 5.345 59.669 5.285 66.494-.084 1.49-1.172 4.351-2.419 6.357-2.772s5.713-1.939 8.237-3.526 5.095-2.885 5.715-2.885 2.665-1.35 4.544-3 3.753-3 4.163-3c.955 0 6.322-4.49 17.036-14.25 10.246-9.334 11.219-9.519 12.988-2.471.382 1.522 1.476 3.32 2.431 3.994s2.441 2.577 3.301 4.227c2.376 4.559 11.262 13.276 15.218 14.929 1.934.808 3.516 1.87 3.516 2.359 0 2.293 5.834 3.212 20.397 3.212h15.302l4.401-2.982c2.42-1.64 4.928-2.99 5.573-3s2.449-1.092 4.009-2.404c1.559-1.312 4.406-3.055 6.326-3.874 3.26-1.389 24.992-21.646 24.992-23.295 0-1.144 5.994-9.073 10.723-14.183 6.096-6.588 6.245-5.885 3.328 15.738-.557 4.125-1.444 9.75-1.972 12.5-1.836 9.567-1.305 19.882 1.375 26.73 1.35 3.449 2.721 8.365 3.047 10.925.375 2.946 1.493 5.626 3.046 7.301 1.349 1.456 2.453 3.036 2.453 3.511 0 3.657 13.543 13.991 20.341 15.522 4.589 1.034 7.691 3.476 4.492 3.536-.733.014-60.508.127-132.833.25l-131.5.225-5.871 2.75c-3.229 1.512-7.054 2.751-8.5 2.752s-4.204.869-6.129 1.93a813 813 0 0 1-7.75 4.198c-2.338 1.248-4.25 2.617-4.25 3.044 0 .426-1.238 1.421-2.75 2.21-4.639 2.423-23.25 21.425-23.25 23.739 0 .599-1.113 2.411-2.474 4.028-1.36 1.617-2.957 4.737-3.549 6.934-.591 2.197-2.178 6.069-3.526 8.604-2.049 3.852-2.454 6.021-2.466 13.21-.022 12.337 3.027 11.289-32.808 11.28-30.815-.007-33.148-.182-33.208-2.488-.017-.655-1.138-3.441-2.491-6.191s-2.464-6.175-2.469-7.61-1.108-4.23-2.451-6.209-2.919-6.182-3.503-9.34c-.584-3.159-2.185-7.364-3.558-9.346-1.478-2.133-2.499-5.008-2.501-7.049-.003-2.152-1.128-5.136-2.996-7.946-1.934-2.909-2.993-5.776-2.996-8.11-.002-1.985-1.323-6.26-2.934-9.5-1.612-3.239-3.204-7.564-3.54-9.611-.335-2.046-1.717-5.036-3.07-6.644-1.405-1.67-2.46-4.197-2.46-5.895 0-2.001-1.364-4.647-4.177-8.105L206.646 395H200.4c-6.314 0-12.383 3.1-12.41 6.339-.005.639-1.145 3.601-2.534 6.584s-2.995 8.809-3.571 12.948-1.971 9.338-3.101 11.553c-1.131 2.216-2.415 7.231-2.853 11.144s-1.707 8.875-2.817 11.024-2.49 7.733-3.067 12.408c-.72 5.841-1.711 9.398-3.167 11.371-1.447 1.961-2.427 5.45-3.089 11-.556 4.656-1.775 9.442-2.853 11.202-1.037 1.693-2.529 7.375-3.321 12.65-.792 5.266-2.169 10.689-3.061 12.051-.892 1.361-2.244 6.64-3.004 11.731-1.635 10.939-3.105 13.173-6.992 10.626-1.87-1.225-2.56-2.546-2.562-4.904 0-1.775-.87-4.802-1.933-6.727-3.438-6.229-3.928-7.441-4.541-11.221-.332-2.046-1.625-4.971-2.874-6.5s-2.835-4.726-3.524-7.107c-2.135-7.376-.322-7.174-64.344-7.157-47.685.012-56.664.239-58.782 1.484-1.375.808-3.288 1.754-4.25 2.102C.231 508.15 0 509.654 0 519.003v10.77l3.25.645c12.75 2.532 17.539 2.695 60 2.047 24.612-.376 44.75-.471 44.75-.211 0 3.322 2.451 11.609 3.902 13.194 1.034 1.129 2.396 4.516 3.027 7.528s2.024 6.41 3.097 7.552 2.395 4.418 2.938 7.281 1.947 6.504 3.121 8.092c1.173 1.587 2.537 5.045 3.03 7.684s1.777 5.735 2.853 6.881 2.469 4.471 3.095 7.391c5.161 24.066 29.519 25.528 32.966 1.979.59-4.035 2.124-9.811 3.408-12.836s2.634-8.65 3-12.5c.405-4.254 1.478-8.373 2.736-10.5 1.19-2.011 2.464-6.692 2.995-11 .508-4.125 1.861-9.3 3.006-11.5 1.164-2.237 2.472-7.445 2.967-11.816s1.821-9.65 3.008-11.976c1.167-2.288 2.487-7.41 2.932-11.381.467-4.159 1.893-9.509 3.364-12.62 1.405-2.97 2.575-7.157 2.599-9.303s.734-5.704 1.578-7.904 1.893-5.575 2.331-7.5c2.176-9.564 4.886-9.444 6.683.295.69 3.735 2.158 8.254 3.264 10.044 1.106 1.789 2.32 5.187 2.698 7.55s1.703 5.504 2.945 6.979c1.455 1.73 2.512 4.722 2.974 8.421.394 3.156 1.559 6.809 2.587 8.116 1.029 1.308 2.363 4.675 2.965 7.483 1.353 6.309 5.797 11.642 11.912 14.295 4.198 1.821 6.944 1.938 43.603 1.851 43.345-.102 40.617-.545 42.282 6.866.534 2.376 2.048 5.508 3.364 6.96s2.918 3.877 3.56 5.39 1.618 2.75 2.168 2.75c.551 0 1.869 1.688 2.93 3.75s3.208 4.924 4.77 6.358c4.179 3.836 15.483 12.369 18.354 13.854 1.368.708 3.415 2.13 4.547 3.158 1.133 1.029 4.733 2.401 8 3.05s7.216 2.114 8.775 3.255l2.834 2.075H1259.5l4.899-2.75c2.694-1.513 6.109-2.75 7.589-2.75 1.479 0 4.225-1.151 6.101-2.558 1.876-1.408 6.492-4.542 10.258-6.967 7.994-5.146 20.228-17.442 22.361-22.475.816-1.925 2.292-4.4 3.28-5.5s2.1-3.439 2.472-5.198 1.966-4.822 3.543-6.806c1.578-1.985 3.021-4.068 3.208-4.629.223-.669 11.363-.983 32.32-.91 35.109.12 36.736-.101 40.228-5.478 2.897-4.461 4.025-4.393 4.513.271.215 2.063.467-1.29.56-7.45.143-9.537-.08-11.339-1.503-12.136-.918-.514-2.381-2.43-3.25-4.258-2.199-4.628-2.718-4.694-37.638-4.806-36.573-.118-34.009.696-35.767-11.345-.955-6.538-1.813-9.236-3.411-10.724-1.241-1.156-2.415-3.862-2.805-6.465-.473-3.154-1.378-4.939-3.065-6.044-1.316-.862-2.393-2.171-2.393-2.907 0-3.453-15.136-19.938-20.28-22.087-2.006-.839-4.13-2.425-4.719-3.526s-1.653-2.002-2.365-2.002c-.711 0-3.283-1.304-5.715-2.899s-6.974-3.419-10.094-4.055c-7.807-1.591-10.666-6.693-4.795-8.556 2.354-.747 16.968-15.202 16.968-16.783 0-.622 1.139-2.274 2.532-3.669 5.14-5.152 8.488-9.886 9.078-12.839.334-1.668 1.908-4.279 3.498-5.803s2.892-3.551 2.892-4.506 1.206-3.169 2.679-4.921c1.474-1.751 3.386-4.439 4.25-5.974 4.822-8.565 8.364-13.995 9.128-13.995.476 0 1.559-2.334 2.406-5.187s2.399-6.116 3.449-7.25 2.398-3.904 2.994-6.154 1.979-4.9 3.07-5.887c1.092-.988 2.275-3.342 2.629-5.231s1.669-4.652 2.921-6.14 2.793-4.624 3.425-6.968 2.25-6.337 3.598-8.872 2.451-5.407 2.451-6.383 1.066-3.047 2.369-4.601c1.303-1.555 2.886-5.246 3.516-8.202.631-2.956 2.265-6.703 3.631-8.327s2.484-4.205 2.484-5.737c0-1.59 1.288-4.407 3-6.561 1.782-2.243 3-4.957 3-6.687 0-1.602.716-4.296 1.59-5.988 2.369-4.58-.736-16.457-4.905-18.76-1.558-.861-3.758-2.343-4.888-3.294-5.314-4.472-14.04-2.039-18.651 5.199-.886 1.391-2.324 3.06-3.195 3.708s-2.19 3.017-2.932 5.264-1.946 4.582-2.676 5.188-2.219 4.087-3.309 7.736-2.893 8.417-4.008 10.595c-1.114 2.179-2.026 4.732-2.026 5.674 0 .941-1.081 2.996-2.401 4.566-1.321 1.569-2.943 4.862-3.604 7.317s-2.072 5.685-3.135 7.179c-1.063 1.493-2.439 4.197-3.057 6.009s-1.95 4.365-2.96 5.675-2.287 4.055-2.839 6.102c-.551 2.048-2.087 4.894-3.414 6.325s-2.706 3.941-3.065 5.578-1.329 3.537-2.155 4.222-2.212 2.629-3.081 4.319-2.433 4.198-3.477 5.573c-3.796 4.998-8.55 12.599-9.24 14.773-.78 2.458-3.34 2.996-4.154.874-.572-1.492 1.861-28.262 3.785-41.647.693-4.819 1.239-19.326 1.26-33.5l.037-25-2.738-4.5c-1.506-2.475-2.743-5.331-2.75-6.346s-1.025-3.249-2.262-4.965-2.7-4.1-3.25-5.296c-1.602-3.486-6.768-8.742-10.528-10.711a289 289 0 0 1-6.972-3.805c-5.589-3.173-23.184-2.383-28.601 1.284-2.144 1.451-5.024 2.97-6.399 3.374s-3.934 1.912-5.686 3.35c-1.753 1.438-5.518 4.415-8.367 6.615-10.229 7.898-41.407 39.975-44.71 46-.603 1.1-2.283 3.35-3.734 5-9.47 10.772-14.006 17.151-20.494 28.824-3.419 6.151-4.598 3.703-5.347-11.095-.356-7.03-1.118-15.327-1.693-18.438-1.475-7.977 3.888-16.63 13.491-21.77 1.397-.747 2.54-1.721 2.54-2.164s1.392-1.526 3.094-2.406c7.086-3.664 56.906-50.367 56.906-53.346 0-.405 2.486-3.407 5.525-6.671 3.038-3.264 5.787-7.134 6.108-8.601.321-1.466 1.885-3.913 3.475-5.437s2.892-3.274 2.892-3.889 1.135-2.657 2.522-4.536c1.387-1.88 2.96-5.047 3.496-7.037s1.878-4.661 2.982-5.934 2.484-4.157 3.065-6.407c.582-2.251 1.958-5.35 3.059-6.887s2.449-5.587 2.995-9 1.57-7.106 2.273-8.206c5.455-8.528 6.219-50.373 1.059-57.977-1.3-1.915-2.831-5.22-3.403-7.344s-1.941-4.678-3.044-5.675c-1.102-.998-2.004-2.434-2.004-3.192 0-1.885-18.375-19.947-22.32-21.94-1.749-.883-4.089-2.434-5.2-3.447s-4.71-2.471-8-3.241-7.773-2.364-9.965-3.542c-5.765-3.098-25.153-3.156-30.871-.091-2.104 1.128-6.25 2.499-9.212 3.046-6.182 1.143-20.947 8.197-21.798 10.414-.314.819-1.249 1.489-2.077 1.489-3.848 0-28.557 24.726-28.557 28.577 0 .612-.904 1.931-2.009 2.931s-2.53 3.657-3.167 5.905c-.638 2.248-2.133 5.212-3.324 6.587s-2.708 4.412-3.372 6.75c-1.465 5.153-5.12 5.84-9.496 1.785-1.463-1.356-4.566-2.965-6.896-3.576s-6.261-1.795-8.736-2.632c-6.874-2.322-14.592-2.581-24.5-.821-21.135 3.754-19.399 5.442-20.548-19.977-.848-18.744-1.97-26.804-3.898-27.996-.491-.303-1.382-2.836-1.981-5.629C998.944 15.642 993.532 8.961 988 6c-3.256-1.743-18.676-1.779-21.903-.052-4.186 2.24-10.916 9.947-11.628 13.315-.377 1.78-1.589 4.725-2.693 6.543-1.506 2.479-2.221 6.151-2.857 14.666-.466 6.248-1.776 14.885-2.91 19.194s-2.346 12.688-2.691 18.621c-.725 12.463.107 11.356-9.425 12.539-4.102.51-9.469 1.82-11.926 2.913-5.135 2.283-16.513 4.659-17.978 3.754-1.444-.892-1.213-4.914.649-11.319 1.366-4.699 1.45-6.632.505-11.654-.623-3.311-1.624-12.77-2.225-21.02-.996-13.666-1.352-15.456-4.006-20.122-1.601-2.817-2.912-5.766-2.912-6.553 0-4.078-13.671-19.233-19.75-21.894-2.347-1.027-4.25-2.547-4.25-3.395C872 .209 869.418 0 853 0c-18.209 0-19 .082-19 1.961m17.785 42.595c-1.809.98-3.073 2.801-3.788 5.454-.589 2.19-1.938 4.789-2.997 5.775s-2.561 4.519-3.337 7.849-2.21 7.271-3.184 8.758-2.393 6.589-3.154 11.338c-.76 4.749-1.768 9.115-2.239 9.702-1.76 2.194-3.09 15.853-4.084 41.931-.563 14.775-1.274 27.269-1.581 27.764-.894 1.447-3.379 26.705-3.401 34.564-.023 8.341 1.383 10.239 3.037 4.098.632-2.349 2.018-5.49 3.079-6.981s2.539-4.733 3.283-7.207c.745-2.473 2.268-5.659 3.385-7.078s2.331-4.363 2.699-6.539c.367-2.177 1.723-5.512 3.013-7.412s2.663-5.618 3.054-8.263c.404-2.738 1.726-6.026 3.07-7.636 1.637-1.961 2.367-4.104 2.384-7 .035-6.229 1.542-11.582 3.994-14.192 1.596-1.699 2.415-4.303 3.038-9.654.468-4.03 1.781-9.926 2.916-13.103 4.819-13.486 3.984-50.613-1.314-58.437-3.675-5.428-4.244-5.698-7.873-3.731m308.567 25.437c-1.181.477-2.441 1.342-2.801 1.924-.359.581-2.992 1.74-5.852 2.574-7.793 2.275-15.425 10.479-18.087 19.445-.883 2.973-2.316 6.49-3.185 7.816-.877 1.338-2.017 6.491-2.563 11.579-.541 5.043-1.915 12.544-3.055 16.669-1.981 7.171-3.12 19.657-5.75 63-.451 7.425-1.387 15.446-2.08 17.824-1.915 6.572.324 8.432 5.093 4.229 1.886-1.662 3.758-3.028 4.161-3.037 2.157-.047 41.767-39.397 41.767-41.493 0-.835 1.575-3.188 3.5-5.229s3.5-4.213 3.5-4.828 1.125-2.174 2.5-3.466 2.5-3.174 2.5-4.183c0-1.01 1.35-3.248 3-4.974 1.65-1.727 3-3.56 3-4.074s1.334-3.972 2.963-7.686 3.403-9.864 3.939-13.667c.537-3.804 1.494-9.39 2.127-12.415 1.239-5.912 1.038-7.87-1.868-18.212-1.17-4.165-3.075-8.066-5.023-10.285-1.726-1.965-3.138-3.991-3.138-4.5 0-.51-1.809-1.414-4.021-2.01s-5.649-2.187-7.639-3.538c-3.735-2.535-8.891-3.116-12.988-1.463M1040.5 135.959c-4.585.373-9.444 1.414-11.382 2.44-1.861.984-6.361 2.207-10 2.717-11.13 1.561-13.551 4.012-11.149 11.289.816 2.473 1.444 29.394 2.107 90.309 1.364 125.31 2.232 154.234 4.85 161.693 1.141 3.248 2.081 7.298 2.089 9 .03 5.99-1.3 5.777 35.599 5.714 18.637-.032 34.224-.072 34.636-.089 1.698-.072.578-2.915-1.75-4.44-1.375-.901-2.5-2.224-2.5-2.941s-1.089-2.325-2.42-3.575-2.977-3.692-3.659-5.425-2.254-4.276-3.494-5.651c-1.239-1.375-2.741-4.341-3.336-6.591s-1.93-4.858-2.966-5.796c-1.075-.973-2.401-4.364-3.092-7.908-.665-3.413-2.033-7.555-3.04-9.205s-2.272-6.196-2.81-10.101-1.688-8.475-2.556-10.154c-1.721-3.328-3.152-12.004-4.158-25.215-.355-4.658-1.255-9.649-2-11.09-4.805-9.292-4.713-114.178.114-129.738.802-2.586 1.91-9.652 2.461-15.702.608-6.679 2.038-14.186 3.64-19.11 3.962-12.185 4.222-12.006-15.184-10.431m-107.825 26.952c-2.062 1.051-7.67 2.41-12.462 3.02s-10.288 1.782-12.213 2.605c-1.925.822-7.775 2.05-13 2.729l-9.5 1.235-.816 4c-.448 2.2-2.136 6.556-3.75 9.679s-2.936 6.499-2.938 7.5-.847 3.204-1.877 4.894-2.594 5.548-3.473 8.574c-.88 3.025-2.44 6.261-3.467 7.191s-2.412 4.124-3.077 7.098c-.666 2.975-1.838 5.93-2.604 6.565s-2.185 3.259-3.154 5.828-3.017 6.672-4.553 9.117c-1.535 2.445-2.791 4.951-2.791 5.569s-1.125 2.103-2.5 3.298c-1.384 1.204-2.5 3.258-2.5 4.604 0 1.336-1.053 3.702-2.34 5.256s-2.854 4.333-3.482 6.174-2.5 4.895-4.16 6.785-3.018 4.062-3.018 4.826-1.237 2.863-2.75 4.666c-3.887 4.633-3.782 26.941.165 35.291 1.322 2.797 2.725 6.885 3.118 9.085s1.537 4.906 2.543 6.014c1.006 1.107 2.486 3.582 3.291 5.5 5.027 11.989 16.646 16.324 22.795 8.507 1.091-1.387 2.547-2.521 3.237-2.521 1.238 0 14.44-13.351 17.867-18.068.972-1.338 3.335-4.387 5.25-6.777 1.916-2.389 3.484-4.942 3.484-5.673s1.064-2.601 2.363-4.155c1.3-1.555 3.292-4.657 4.427-6.894s2.772-4.654 3.637-5.372 1.573-2.135 1.573-3.149 1.328-3.202 2.952-4.863 3.241-4.563 3.595-6.45c.354-1.886 1.726-4.446 3.048-5.689 1.323-1.242 2.405-2.792 2.405-3.445 0-.652 1.187-2.936 2.639-5.074s3.087-5.239 3.636-6.89 2-4.126 3.225-5.501 2.677-3.85 3.225-5.501c.549-1.651 2.072-4.67 3.386-6.71 8.482-13.168 8.175-12.352 7.379-19.592-.405-3.683-.877-19.407-1.05-34.941-.372-33.408-.061-32.273-7.765-28.345m-514.052 34.122c-1.582.474-3.699 1.745-4.706 2.825-1.006 1.08-3.116 2.247-4.69 2.592-1.573.346-4.33 2.186-6.125 4.089-1.796 1.904-3.648 3.461-4.116 3.461s-1.114.828-1.435 1.84-1.68 2.426-3.02 3.143c-1.362.729-2.719 2.595-3.079 4.235-.354 1.612-1.882 4.36-3.397 6.106-1.514 1.747-3.013 4.838-3.332 6.869s-1.558 5.017-2.755 6.636c-1.577 2.133-2.442 5.368-3.144 11.758-.533 4.848-1.386 9.595-1.896 10.548-2.746 5.13 3.377 6.791 10.894 2.956 2.058-1.05 6.256-2.374 9.33-2.942s7.285-2.184 9.358-3.591 4.209-2.558 4.748-2.558c.538 0 2.447-1.238 4.243-2.75 1.795-1.512 6.017-4.972 9.382-7.687 3.364-2.716 6.117-5.512 6.117-6.214s2.731-4.195 6.068-7.763c8.103-8.662 10.084-19.445 5.295-28.819-2.672-5.228-14.327-7.552-23.74-4.734m186.114 24.97c-1.519.457-4.699 1.768-7.065 2.914S592.878 227 592.279 227c-.927 0-8.26 5.416-10.496 7.751-6.367 6.652-7.783 8.421-7.783 9.725 0 .848-1.336 2.941-2.97 4.65-1.633 1.709-3.26 4.067-3.615 5.24-.354 1.174-1.451 3.034-2.436 4.134s-2.477 4.338-3.315 7.196-2.404 6.458-3.48 8c-3.457 4.957-5.717 29.572-3.154 34.361 1.487 2.778 2.127 2.529 8.106-3.156 2.95-2.804 6.939-6.128 8.864-7.387 2.849-1.862 11.787-9.767 16.5-14.591.55-.563 1.843-1.788 2.873-2.723s2.38-2.284 3-2.998a36 36 0 0 1 2.449-2.5c.727-.661 2.21-2.102 3.296-3.202s2.741-2.771 3.678-3.713c3.231-3.25 8.493-9.208 12.361-13.997 1.462-1.81 4.717-5.66 7.235-8.557 7.343-8.447 7.059-11.026-2.206-19.983-4.656-4.502-9.257-5.41-16.449-3.247m606.763 48.008c-1.1.441-5.6 5.133-10 10.426s-10.588 12.339-13.75 15.657-5.75 6.664-5.75 7.434-.938 1.904-2.085 2.517c-1.146.614-2.695 2.578-3.442 4.365s-2.091 3.858-2.988 4.603-2.516 2.958-3.598 4.92c-2.027 3.676-5.353 8.69-8.667 13.067-1.041 1.375-2.426 4.056-3.077 5.957s-2.019 4.376-3.04 5.5-2.425 3.843-3.119 6.043-2.069 5.152-3.056 6.561-2.114 3.884-2.505 5.5c-.39 1.616-1.708 4.964-2.929 7.439s-2.793 6.975-3.493 10-2.138 7.222-3.196 9.326c-1.078 2.145-2.369 7.855-2.939 13-.738 6.658-1.544 9.74-2.941 11.238-2.176 2.334-2.558 5.424-.675 5.461 26.786.525 93.229-.104 94.015-.89.705-.705-.131-1.714-2.661-3.206-2.03-1.198-4.564-3.891-5.633-5.985s-2.369-4.072-2.891-4.395-1.684-3.116-2.583-6.207c-.899-3.092-2.281-6.609-3.072-7.817-4.97-7.585-4.539-72.501.548-82.472 1.575-3.087 2.342-7.171 2.979-15.856.504-6.871 1.603-13.652 2.664-16.436 1.966-5.156 1.251-7.1-2.116-5.75M756.532 301.27c-.752 1.799-2.279 4.096-3.393 5.104s-2.324 3.249-2.688 4.98c-.364 1.73-1.698 4.271-2.963 5.646s-3.022 4.075-3.903 6c-.88 1.925-2.708 5.075-4.062 7-5.623 7.994-6.762 9.658-8.842 12.907-1.2 1.874-3.42 5.249-4.935 7.5s-3.539 5.373-4.5 6.939-2.964 4.49-4.453 6.5a1163 1163 0 0 0-5.5 7.499c-1.536 2.115-4.229 5.419-5.984 7.343-1.755 1.923-3.481 4.821-3.837 6.438-.355 1.618-1.714 3.642-3.02 4.497-1.306.856-2.635 2.379-2.955 3.385-.653 2.058-14.617 16.992-15.889 16.992-.451 0-2.156 1.125-3.79 2.5s-3.59 2.5-4.346 2.5c-3.888 0-11.581 2.291-10.688 3.184 1.263 1.263 312.273 1.159 313.538-.106.525-.525.466-2.272-.144-4.236-.571-1.838-1.344-5.312-1.718-7.721s-1.546-5.848-2.606-7.645c-1.068-1.808-2.3-6.548-2.763-10.621-.46-4.045-1.779-9.155-2.933-11.355s-2.562-7.283-3.13-11.295c-.569-4.013-1.88-8.963-2.915-11s-2.45-7.98-3.143-13.205-2.166-11.3-3.273-13.5c-1.308-2.599-2.148-6.626-2.398-11.5-.718-13.972-1.962-17.273-4.148-11.003-.575 1.649-2.194 4.504-3.598 6.345s-2.566 3.979-2.581 4.752-1.365 3.174-3 5.334c-1.635 2.161-2.972 4.68-2.972 5.6s-1.342 3.651-2.982 6.072c-1.64 2.42-2.99 4.896-3 5.502s-1.368 2.514-3.018 4.241-3 4.039-3 5.14-1.311 3.17-2.914 4.598c-1.602 1.428-3.172 3.626-3.488 4.885s-1.705 3.029-3.086 3.934c-1.382.906-2.512 2.249-2.512 2.985 0 2.992-19.371 24.045-25.634 27.861-3.313 2.018-9.996 6.454-13.615 9.036-1.373.98-4.917 2.18-7.874 2.667-2.957.488-6.644 1.373-8.192 1.969-3.817 1.467-7.772 1.36-11.813-.32-1.855-.772-5.991-1.728-9.193-2.125-3.671-.455-6.81-1.531-8.5-2.914-1.473-1.206-4.109-2.767-5.857-3.468s-3.412-1.884-3.699-2.63-1.894-2.067-3.574-2.936c-4.11-2.125-11.711-9.252-14.259-13.37-1.139-1.839-3.019-4.405-4.18-5.702-4.24-4.739-7.61-9.251-7.61-10.19 0-.53-1.321-2.787-2.937-5.017s-3.239-5.785-3.608-7.9-1.744-5.439-3.055-7.387c-1.31-1.948-2.765-5.548-3.233-8s-1.806-6.222-2.973-8.377-2.422-5.98-2.789-8.5-1.509-6.252-2.536-8.292-1.883-4.516-1.901-5.5c-.033-1.888-2.207-5.29-3.379-5.29-.38 0-1.306 1.472-2.057 3.27M610.925 468.831c-11.881 3.556-17.544 12.579-19 30.275-.574 6.978-1.599 12.28-2.997 15.5-1.504 3.465-2.281 7.843-2.662 14.996l-.538 10.102 3.721 3.398c4.55 4.154 9.723 4.963 26.551 4.152 13.971-.673 16.311-2.333 19.888-14.112 3.958-13.031 2.831-15.534-6.472-14.373l-5.916.739-.663 5.426c-.666 5.458-1.286 6.334-7.583 10.725-3.132 2.184-8.578 1.008-11.325-2.446-2.821-3.545-2.296-20.323.919-29.425 1.11-3.141 2.322-7.866 2.693-10.5 1.235-8.752 5.504-13.204 12.709-13.255 5.9-.041 8.75 2.38 8.75 7.432 0 4.428 1.889 5.4 9 4.63l5.5-.595.662-5c1.45-10.939 1.052-15.418-1.412-15.919-19.901-4.047-23.489-4.245-31.825-1.75m259.575.248c-5.78 1.239-9.431 2.554-10.204 3.675-.663.96-2.213 2.744-3.445 3.964s-2.775 4.145-3.429 6.5-1.751 5.642-2.439 7.305c-1.295 3.132 2.565 14.477 4.927 14.477.515 0 2.209 1.044 3.763 2.321 1.555 1.276 5.38 2.875 8.5 3.554 11.937 2.596 16.807 12.078 10.377 20.204-6.824 8.623-15.225 6.976-20.371-3.994-3.673-7.83-14.213-3.709-15.689 6.135-1.62 10.8 6.154 14.991 26.295 14.179 11.514-.465 12-.651 19.545-7.509 9.111-8.28 10.512-29.719 2.15-32.898-1.439-.547-4.048-2.061-5.798-3.365-1.75-1.303-5.176-2.621-7.613-2.927-3.218-.406-5.216-1.398-7.3-3.629-1.579-1.689-3.289-3.071-3.801-3.071-3.438 0-1.397-8.492 2.997-12.468 5.515-4.992 19.035-1.21 19.035 5.324 0 4.361 9.849 6.163 11.975 2.19 3.776-7.056 1.736-19.027-3.248-19.061-1.225-.008-4.027-.664-6.227-1.456-5.243-1.889-9.123-1.782-20 .55m80.52-.012c-8.705 2.409-9.484 2.942-12.21 8.366-1.123 2.237-2.707 4.823-3.519 5.748-.978 1.114-1.796 5.663-2.427 13.5-.624 7.748-1.798 14.319-3.408 19.078-6.331 18.711-2.703 29.928 10.153 31.394 19.505 2.225 30.073-.929 35.089-10.472 3.831-7.289 4.006-7.976 4.711-18.504.381-5.677 1.293-11.752 2.026-13.5 4.089-9.742 5.035-28.207 1.62-31.622-5.088-5.088-20.932-7.06-32.035-3.988m-526.492.68c-3.96.201-7.302.873-7.735 1.554-1.494 2.351-.816 8.367 1.207 10.699 2.406 2.774 2.397 1.578.085 10.833-1.053 4.217-2.227 11.942-2.609 17.167s-1.314 11.3-2.071 13.5c-2.27 6.598.059 18.791 4.225 22.122 1.957 1.566 15.655 2.502 22.934 1.567 6.387-.819 15.436-6.739 15.436-10.097 0-.816 1.132-3.119 2.517-5.116 2.134-3.08 2.656-5.365 3.435-15.054.632-7.863 1.711-13.603 3.462-18.422 1.399-3.85 2.553-8.838 2.565-11.085.017-3.263.624-4.622 3.021-6.757 3.264-2.909 4.159-8.451 1.695-10.497-2.047-1.698-16.894-.41-18.445 1.601-1.874 2.428-1.507 6.695.75 8.738 2.048 1.854 2.807 7.883 1.123 8.924-1.535.949-3.265 9.736-4.087 20.753-.605 8.108-1.273 11.357-2.777 13.5-1.09 1.553-2.517 4.475-3.171 6.493-2.478 7.642-9.551 9.117-15.959 3.328-4.653-4.204-5.444-8.889-2.74-16.228 2.031-5.512 3.584-13.588 4.536-23.58.643-6.757 1.321-9.323 2.909-11.013 2.673-2.845 5.304-9.154 4.592-11.009-.487-1.269-5.607-3.003-7.301-2.472-.344.108-3.763.355-7.597.551m83.339.335c-.986.609-1.341 4.64-1.419 16.115-.092 13.332-.398 16.076-2.378 21.303-1.251 3.3-2.609 9.6-3.018 14-.607 6.521-1.341 8.948-3.971 13.126-2.345 3.727-3.138 6.048-2.904 8.5l.323 3.374 7.582.289c12.893.492 16.314-2.7 12.049-11.24-2.625-5.257-2.651-7.28-.193-14.979a540 540 0 0 0 3.25-10.57c.978-3.353 1.868-4.579 3.494-4.811 2.895-.412 3.91 1.766 4.8 10.305.447 4.286 1.468 8.032 2.637 9.674 1.158 1.625 2.35 5.954 3.031 11.005 1.313 9.743 2.249 10.827 9.341 10.827 6.063 0 7.509-1.163 7.509-6.043 0-2.004.934-6.302 2.075-9.55s2.514-10.802 3.049-16.784 1.674-12.732 2.53-15 2.133-7.184 2.837-10.926 1.445-6.943 1.645-7.114 1.4-.851 2.666-1.511c1.985-1.033 2.261-1.845 2-5.885l-.302-4.687h-9.429c-11.77 0-12.618.619-11.559 8.442.732 5.407.734 17.718.003 21.621-.199 1.065-.396 3.088-.438 4.496-.116 3.866-2.306 6.321-4.903 5.496-1.196-.379-2.18-1.222-2.187-1.872s-1.339-3.799-2.961-6.997c-1.909-3.765-3.341-8.68-4.062-13.95-1.006-7.343-4.679-16.443-6.809-16.866-2.954-.587-13.242-.434-14.288.212m172.081.136c-2.718 1.001-2.686 8.028.052 11.509 2.473 3.144 2.479 3.931.072 9.396-1.244 2.825-2.159 7.923-2.579 14.377-.359 5.5-1.299 11.717-2.091 13.816-.791 2.099-1.206 4.192-.921 4.653.685 1.108-3.751 10.603-6.241 13.358-2.215 2.451-3.369 6.173-2.565 8.269.602 1.567 49.647 2.122 52.06.589 1.886-1.198 5.265-11.964 5.265-16.774 0-4.716-1.607-5.956-6.415-4.951-1.422.297-3.675.765-5.007 1.04-1.681.346-2.776 1.57-3.577 3.996-1.606 4.867-4.392 6.504-11.069 6.504-7.766 0-9.477-1.948-9.239-10.518.324-11.663 3.203-14.482 14.787-14.482 8.204 0 12.52-2.36 12.52-6.848 0-2.631-1.826-3.152-11.059-3.152-8.933 0-11.665-1.987-10.597-7.709.287-1.535.797-4.477 1.133-6.539 1.39-8.504 16.904-9.84 20.147-1.734 1.558 3.895 3.837 4.982 10.442 4.982 3.486 0 3.492-.01 5.383-9.073 2.007-9.619 1.992-9.778-.936-10.513-3.535-.887-47.22-1.06-49.565-.196m84.223.076c-2.302 2.774-2.396 6.662-.259 10.761 1.996 3.831 2.034 4.338.628 8.479-.822 2.422-1.782 8.806-2.132 14.185-.386 5.926-1.545 12.54-2.941 16.781-1.267 3.85-2.622 8.56-3.012 10.468s-2.032 4.703-3.648 6.213c-2.308 2.155-2.871 3.451-2.623 6.032l.316 3.287h21l.128-15.193c.07-8.356.43-17.207.799-19.668 1.141-7.611 5.367-8.769 8.103-2.221.792 1.895 1.884 3.72 2.428 4.056 1.28.791 2.73 6.265 3.98 15.026 1.652 11.574 5.495 17.93 11.063 18.294 8.016.524 9.188-1.751 10.975-21.294.563-6.157 1.874-13.273 2.978-16.162 1.137-2.979 2.353-9.719 2.874-15.937.828-9.89 1.117-10.945 3.516-12.859 3.409-2.718 4.65-8.342 2.231-10.111-2.573-1.882-17.656-.849-19.325 1.324-1.873 2.439-1.508 6.702.75 8.745 3.091 2.798 2.576 10.296-1.37 19.928-5.054 12.337-8.861 12.604-10.103.71-.323-3.101-1.51-7.5-2.637-9.776s-2.438-7.236-2.914-11.022c-1.244-9.91-1.501-10.332-6.333-10.387-2.279-.026-6.24-.234-8.802-.462-2.912-.26-5.038.041-5.67.803m256.756-.076c-2.401.894-2.704 8.373-.459 11.341 1.923 2.542 1.913 6.803-.025 10.55-.942 1.823-1.857 7.427-2.317 14.201-.419 6.154-1.365 12.307-2.103 13.672s-2.127 5.533-3.086 9.261c-1.084 4.215-2.566 7.446-3.918 8.541-1.385 1.121-2.237 3.024-2.347 5.238l-.172 3.478 10.697.283c13.419.356 13.72.041 11.799-12.308-1.761-11.324-.742-15.247 4.751-18.278 12.03-6.638 17.652 2.127 14.304 22.303-1.246 7.512-.332 8.5 7.862 8.5 9.139 0 9.009.27 8.344-17.389-.529-14.028-.697-15.007-2.909-16.93-3.337-2.901-2.919-5.293 1.402-8.039 7.467-4.745 7.75-5.445 7.75-19.197 0-8.785-.374-12.72-1.298-13.645-1.456-1.458-44.794-2.878-48.275-1.582m89.461.282c-2.438 1.858-3.136 5.687-1.829 10.028 1.541 5.123.533 15.444-2.341 23.972-1.112 3.3-2.451 10.597-2.975 16.215-.814 8.737-1.344 10.729-3.664 13.77-3.25 4.262-4.538 10.294-2.476 11.6.768.486 12.751.891 26.628.9l25.231.015.465-2.25c.874-4.223 1.267-17.628.551-18.785-2.002-3.24-7.568-1.45-13.5 4.341-3.743 3.655-6.753 5.75-8.405 5.85-11.011.665-12.605-2.413-9.262-17.888 1.492-6.907 2.155-7.268 13.333-7.268 10.934 0 12.993-1.334 11.464-7.426-.626-2.495-.891-2.574-8.58-2.574-12.604 0-15.27-2.048-12.01-9.229 1.066-2.349 1.948-5.214 1.96-6.366.081-7.697 16.365-7.414 20.522.357 4.451 8.32 13.035 4.166 15.542-7.522 1.882-8.778 2.798-8.463-25.05-8.611-14.862-.079-24.802.259-25.604.871m85.352-.62c-4.397 1.35-5.995 6.078-3.272 9.679 2.12 2.802 1.865 11.062-.536 17.379-1.283 3.376-2.422 9.791-3.002 16.916-.874 10.714-1.235 12.075-5.433 20.473-6.724 13.453-7.464 12.98 19.518 12.49l17.485-.317 4.682-3.275c6.691-4.68 9.423-8.327 10.137-13.532.339-2.48 1.512-6.239 2.606-8.351 1.415-2.733 2.348-7.738 3.234-17.342 2.208-23.914 1.114-31.691-4.659-33.13-3.15-.785-38.62-1.646-40.76-.99m-243.696 12.922c-2.241 2.241-2.95 4.092-3.543 9.25-.408 3.546-1.65 8.698-2.76 11.448-2.512 6.226-3.651 24.888-1.793 29.375 1.169 2.823 4.065 4.125 9.174 4.125 3.804 0 9.722-6.731 10.394-11.821.34-2.573 1.477-6.851 2.527-9.505 2.221-5.614 4.493-25.003 3.531-30.132-1.196-6.372-12.18-8.09-17.53-2.74m87.85-1.688c-4.953 1.818-7.963 16.08-4.505 21.356 5.667 8.649 25.887-5.962 21.059-15.217-.789-1.514-1.438-3.3-1.442-3.968-.015-3-9.241-4.325-15.112-2.171m172.558.282c-3.865 2.707-6.424 9.814-7.463 20.724-1.15 12.06-1.955 16.989-3.004 18.38-4.535 6.014-.284 14.405 7.331 14.468 9.165.077 15.666-8.074 15.701-19.686.01-3.18.737-8.932 1.617-12.782 2.677-11.715 2.747-13.372.734-17.177-2.737-5.174-10.295-7.163-14.916-3.927M.378 519c0 6.325.163 8.913.361 5.75s.198-8.337 0-11.5-.361-.575-.361 5.75m430.65 115.059c-4.409 1.857-5.547 9.37-2.516 16.624.959 2.296 2.081 11.489 3.069 25.151 1.008 13.928 2.063 22.51 2.988 24.3.787 1.522 1.431 3.439 1.431 4.261 0 4.246 4.51 7.068 9.118 5.704 4.68-1.384 7.882-3.659 7.882-5.599 0-.655.904-2.008 2.009-3.008s2.53-3.657 3.167-5.905c.638-2.248 2.161-5.212 3.386-6.587s2.548-4.075 2.941-6 1.571-4.436 2.619-5.579c1.048-1.144 2.472-4.035 3.164-6.424 3.183-10.995 7.988.549 9.539 22.916.919 13.263 1.801 15.202 7.564 16.648 3.887.976 11.388-3.216 13.61-7.607l4.001-7.906c1.1-2.173 2-4.811 2-5.862s1.313-3.563 2.918-5.583 3.22-5.462 3.59-7.65c.393-2.325 1.436-4.388 2.51-4.963 1.017-.544 2.536-3.383 3.4-6.356.859-2.955 2.229-5.926 3.045-6.604s1.776-2.873 2.132-4.88c.357-2.008 1.439-5 2.405-6.65 5.972-10.199.415-16.625-10.452-12.085-3.939 1.646-5.048 3.407-6.035 9.585-.395 2.475-1.74 5.625-2.987 7s-2.58 3.85-2.96 5.5c-.381 1.65-1.748 4.575-3.037 6.5-1.29 1.925-2.65 5.41-3.024 7.745-1.206 7.538-3.928 6.598-5.054-1.745-.335-2.475-1.251-6.83-2.036-9.677-.786-2.848-1.829-9.128-2.318-13.957-.732-7.221-1.284-9.099-3.104-10.573-5.385-4.36-15.388-.574-17.797 6.736-.717 2.176-2.217 4.929-3.335 6.119s-2.468 4.117-3.002 6.507-1.733 5.47-2.665 6.845-2.369 4.253-3.194 6.396c-1.999 5.192-4.596 6.806-6.602 4.104-1.966-2.648-2.103-3.566-3.096-20.725-.507-8.766-1.324-15.197-2.018-15.891-1.577-1.577-10.196-2.114-13.256-.825m107.264.449c-1.421.995-2.55 3.42-3.32 7.125-.641 3.089-2.043 8.148-3.116 11.242s-2.429 10.797-3.014 17.119c-.603 6.514-1.891 13.593-2.973 16.338-5.202 13.197-3.306 24.668 4.077 24.668 7.451 0 13.054-8.136 13.054-18.954 0-8.227 2.06-21.287 4.045-25.645 2.989-6.561 4.038-30.136 1.425-32.046-2.457-1.797-7.502-1.721-10.178.153m18.458-.346c-2.009.734-2.78 1.724-2.861 3.671-.421 10.154 1.235 12.167 10.012 12.167 4.506 0 7.235.459 7.965 1.339 1.415 1.705-.303 20.717-2.59 28.661-6.302 21.89-5.343 31 3.262 31 4.995 0 10.462-5.052 10.462-9.669 0-1.905.506-4.408 1.125-5.564.618-1.156 1.497-7.096 1.953-13.201.538-7.215 1.51-12.669 2.776-15.583 1.072-2.466 2.262-6.857 2.645-9.759.925-7.011 2.126-8.063 8.509-7.449 2.94.282 6.841-.065 9.099-.81 2.767-.913 4.269-.989 5.006-.252 1.711 1.711-.627 23.486-3.566 33.213-3.357 11.105-3.69 26.392-.613 28.039 5.347 2.861 11.213.589 12.898-4.997.575-1.907 1.814-5.493 2.753-7.968.938-2.475 1.978-7.65 2.311-11.5l.604-7h28l-.244 6.5c-.135 3.575-1.24 9.34-2.457 12.811-2.552 7.281-2.118 8.714 3.481 11.503 3.546 1.766 3.762 1.761 8.144-.177 4.894-2.165 5.058-2.515 6.065-12.867.333-3.427 1.492-8.233 2.575-10.682 1.38-3.119 2.29-8.59 3.039-18.27.732-9.458 1.674-15.199 2.983-18.195 4.866-11.13-.311-18.514-10.6-15.118-4.532 1.495-6.474 5.27-6.53 12.695-.057 7.64-1.401 14.334-3.094 15.406-1.816 1.151-24.97 1.112-26.797-.045-1.231-.779-1.242-1.495-.074-5.035 1.849-5.602 1.938-20.195.137-22.369-3.546-4.28-14.128-.459-14.128 5.1 0 1.209-.281 1.255-1.5.243-.825-.685-1.5-1.795-1.5-2.467 0-4.162-2.526-4.536-30.079-4.454-14.981.045-27.612.514-29.171 1.083m162.548.088c-2.863 3.782-6.456 17.038-7.386 27.25-.551 6.05-1.428 12.35-1.949 14-2.572 8.141-4.013 15.325-4.573 22.787-.885 11.797.519 13.02 14.248 12.418 19.59-.859 36.362-3.937 36.362-6.673 0-.493.976-1.207 2.17-1.586 2.911-.924 16.83-14.932 16.83-16.938 0-.874.906-2.815 2.014-4.313 4.958-6.706 5.274-25.393.523-30.905-5.812-6.743-10.519-11.147-12.606-11.795-1.337-.415-4.554-1.821-7.148-3.125-5.556-2.792-36.536-3.694-38.485-1.12m76.001.253c-2.666 1.867-3.952 5.974-4.698 14.997-.318 3.85-1.666 11.278-2.996 16.507-1.329 5.23-2.739 13.78-3.133 19s-1.336 11.01-2.094 12.865c-3.449 8.441.939 14.548 8.768 12.202 6.265-1.877 7.445-3.701 8.196-12.664.703-8.403 4.071-16.91 6.694-16.91 2 0 7.628 10.946 8.998 17.5 1.466 7.018 3.281 9.816 7.512 11.584 13.065 5.459 17.368-4.022 9.034-19.907-3.952-7.531-4.525-11.405-1.83-12.36 6.572-2.328 16.25-16.532 16.25-23.849C846 639.86 834.56 633 811.868 633c-11.215 0-14.9.334-16.569 1.503m109.09-.523c-2.823 1.14-3.4 2.916-4.433 13.635-.484 5.014-1.747 11.318-2.808 14.009-1.062 2.695-2.23 8.93-2.601 13.884-.818 10.921-2.231 18.762-4.268 23.68-3.541 8.553 1.189 12.279 14.604 11.503 19.693-1.139 32.962-3.382 36.219-6.123 1.678-1.413 3.476-2.568 3.996-2.568 1.242 0 10.806-9.541 14.035-14 3.013-4.16 4.867-9.195 4.867-13.215 0-1.604.507-3.865 1.128-5.024 1.16-2.168-.164-13.087-2.286-18.854-2.041-5.546-9.816-11.621-19.012-14.856-8.987-3.163-33.548-4.452-39.441-2.071m75.032 3.77a422 422 0 0 1-3.116 8.202c-.754 1.898-2.007 9.323-2.784 16.5-.786 7.262-2.352 15.669-3.532 18.958-3.004 8.378-3.958 25.478-1.556 27.88 2.88 2.88 10.127 2.312 12.272-.962 2.187-3.338 6.264-15.947 6.282-19.429.015-3.059 1.911-8.899 2.888-8.899.922 0 5.466 3.149 6.286 4.357.364.536.967 3.037 1.339 5.558.373 2.522 1.53 6.16 2.572 8.085 1.041 1.925 2.331 4.714 2.866 6.198 1.391 3.857 5.455 6.148 11.053 6.231 7.865.116 11.553-5.093 7.021-9.917-1.094-1.164-2.441-4.499-2.993-7.411-.571-3.014-2.084-6.578-3.511-8.274-3.108-3.693-3.195-6.391-.258-7.954 10.193-5.425 15.767-13.514 15.964-23.17.189-9.267-1.571-12.066-10.753-17.114l-6.53-3.589h-31.766zm63.2-3.462c-1.236.903-2.049 3.597-2.721 9.013-.528 4.248-1.424 8.946-1.991 10.438-1.802 4.739-3.909 16.216-3.909 21.288 0 2.693-1.119 8.401-2.487 12.685-2.402 7.522-3.297 17.657-1.748 19.808 3.015 4.187 40.794 5.265 48.45 1.384 6.641-3.367 7.859-7.921 3.33-12.449-2.38-2.381-2.893-2.455-16.95-2.455-16.622 0-16.577.024-15.812-8.347.688-7.545.437-7.434 17.614-7.814 17.879-.396 18.603-.705 18.603-7.926 0-6.453-1.08-6.913-16.234-6.913-15.383 0-16.582-.889-13.46-9.972l1.194-3.472 12.717.31c13.572.332 19.087-.698 20.791-3.88 1.38-2.579 1.243-10.335-.208-11.786-1.769-1.769-44.749-1.689-47.179.088m56.149-.602c-4.446 1.165-4.819 22.049-.675 37.814 1.307 4.972 2.362 13.059 2.788 21.366.636 12.39.857 13.505 3.028 15.263 5.647 4.573 15.439 2.127 17.703-4.422.721-2.086 2.165-5.011 3.21-6.5s2.434-4.359 3.088-6.377c.655-2.019 1.819-4.192 2.588-4.83s1.926-2.811 2.571-4.83c.645-2.018 2.025-5.245 3.066-7.17s2.458-5.491 3.15-7.924c2.638-9.285 4.682-4.633 4.702 10.704.015 11.204 4.243 28.812 7.676 31.97 5.936 5.459 16.906-.926 18.723-10.899.365-2.006 1.598-4.834 2.738-6.284s2.677-4.926 3.416-7.725c.738-2.8 2.228-6.047 3.311-7.216s2.457-3.967 3.053-6.217 1.979-4.9 3.07-5.887c1.092-.988 2.275-3.342 2.629-5.231s1.641-4.639 2.86-6.112c4.696-5.677 5.961-14.753 2.535-18.179-3.532-3.532-10.009-1.969-12.791 3.087-.94 1.707-2.946 4.698-4.459 6.646s-2.75 4.537-2.75 5.754-1.342 4.192-2.982 6.613c-1.735 2.561-2.989 5.726-3 7.573-.011 1.914-1.02 4.365-2.544 6.175-1.389 1.652-3.02 4.42-3.624 6.153-1.933 5.544-2.698 1.928-3.598-17.002-.726-15.258-1.202-18.992-2.714-21.301-3.289-5.02-11.075-7.374-14.707-4.448-1.83 1.475-8.83 12.055-8.834 13.354-.002.493-1.577 4.02-3.5 7.839-1.923 3.818-3.497 7.695-3.497 8.615s-.926 2.85-2.058 4.289-2.595 4.458-3.25 6.709c-2.108 7.239-3.164 4.5-3.965-10.288-1.282-23.67-1.473-24.714-5.224-28.465-3.256-3.256-6.519-3.984-11.733-2.617m-364.646 16.237c-1.493.923-3.121 5.783-3.146 9.392-.012 1.752-.908 5.137-1.99 7.522-2.521 5.555-4.427 23.929-2.698 26.012.931 1.122 3.038 1.285 10.121.782 9.687-.687 10.53-1.057 18.246-8.005l5.158-4.645.694-9.257c1.1-14.67.068-17.113-8.281-19.611-7.055-2.111-16.402-3.242-18.104-2.19m261.943.054c-1.427.914-5.287 10.858-4.629 11.923 1.013 1.639 6.621 2.257 12.562 1.384 4.993-.733 5.684-1.151 7.497-4.526l1.997-3.718-2.652-2.652c-2.55-2.55-12.121-4.112-14.775-2.411m-186.674 1.001c-2.597 1.05-4.773 8.443-3.297 11.201 1.338 2.5 11.953 2.543 16.904.069 3.818-1.907 5.427-7.824 2.942-10.818-1.331-1.603-12.916-1.92-16.549-.452m108.003.394c-1.811 1.323-2.198 2.971-2.784 11.832-.445 6.752-1.553 12.954-3.219 18.019-4.239 12.893-2.536 14.287 14.56 11.918 6.939-.962 17.028-7.201 17.056-10.548.005-.601 1.116-3.343 2.469-6.093 4.93-10.023 1.8-21.385-6.748-24.492-5.556-2.02-18.896-2.418-21.334-.636m-71.61 42.181c-2.792 1.516-5.554 8.004-4.536 10.657.287.748 2.297 2.59 4.467 4.094l3.944 2.733 4.573-2.022c4.816-2.131 6.766-5.332 6.766-11.108 0-5.333-8.78-7.846-15.214-4.354"/></svg>