<svg xmlns="http://www.w3.org/2000/svg" viewBox="0 0 300 77"><path d="M171.5.5q14.4.1 28.8 0v11.1c-5.7-.1-11.4 0-17.1-.1v22.4h13.1v10.2h-13.2v22.6c6.1 0 12.1-.1 18.2 0q-.1 5.1 0 10.2-14.9.1-29.8 0-.1-9.5 0-19zM290.2 0h9.8l-11.2 39.4c-.3 1.3-.9 2.6-1.1 4 0 11.1.1 22.2 0 33.2h-11.8c-.1-11.1 0-22.1-.1-33.2-1.1-4.3-2.5-8.4-3.8-12.7q-4-13.4-8.1-26.9c-.4-1.2-.8-2.3-1.1-3.5H274c1.1 4.7 2.4 9.4 3.6 14.1l4.2 16.2zM81.1.5h11.6l6.6 43c1.3-9.6 2.5-19.1 3.8-28.6q1-7.2 1.9-14.4h10.6c.1.3.1.6.1.9 2.1 13.8 4.3 27.5 6.4 41.3.5-3.2.8-6.4 1.2-9.5q2.1-16.4 4.2-32.7h9.8c-3.2 25.5-6.5 50.9-9.8 76.4h-10.9c-2.1-15.3-4.3-30.4-6.4-45.7-2.5 15.2-4.9 30.5-7.3 45.7H92Q86.6 38.7 81.1.5m58 0c9.6 0 19.1.1 28.7 0-.1 3.6-.1 7.1-.2 10.7h-16.9v22.3c4.4.1 8.8 0 13.2.1q-.1 5 0 10.1-6.6.1-13.3 0v22.7c6.1-.1 12.1 0 18.2-.1.1 3.6.1 7.1.1 10.6-6.3.1-12.7 0-19.1 0-3.6-.1-7.1 0-10.7 0zM204 .4c3.7 0 7.4-.1 11.2-.1-.1 9.7-.1 19.4-.1 29.1 4.1-9.7 8.1-19.4 12.2-29.1 3.9.1 7.7 0 11.5 0-4.2 9.9-8.6 19.8-12.9 29.8q-.1.3 0 .6c5.2 15.3 10.5 30.6 15.7 46h-11.3q-5-15.5-10.1-30.9l-5.1 9.9c-.1 7.1 0 14.1 0 21.2H204zm39.2-.1h11.7c-.1 11.6 0 23.1-.1 34.7.1 10.5 0 21 .1 31.6 5.8-.1 11.7 0 17.6-.1v10.1h-29.3zM.1 76.7C.1 51.3 0 25.9.1.5 8.5.6 17 .5 25.4.6 42.6.5 59.8.6 77 .5c.1 5.2 0 10.4 0 15.6v60.5s-.1.1-.2.1h-65c-3.9 0-7.8.1-11.7 0" style="fill:#000"/><path fill-rule="evenodd" d="M63.1 5c.4 3.7 1 7.3 1.5 10.9q3 22 6.1 44c.5 4.2 1.2 8.4 1.7 12.7H60.5c-.7-4.7-1.2-9.5-1.8-14.2h-9.3c-.6 4.6-1.3 9.3-1.9 14-3.8.1-7.5.1-11.2.1C39.9 50 43.4 27.5 47.1 5zm-11 31.6c-.4 3.9-1 7.8-1.5 11.7h7.1c-.2-.2-.2-.5-.3-.8L54.1 22c-.7 4.9-1.3 9.7-2 14.6M19.6 5v53.7c0 1.1 0 2.2-.1 3.3h14.9q.1 5.2 0 10.5H5.7c.1-4.1 0-8.2.1-12.2V5c4.6.1 9.2 0 13.8 0" style="fill:#fff"/></svg>