<svg xmlns="http://www.w3.org/2000/svg" viewBox="0 0 237.364 71.967"><g style="fill:#f51a50;fill-opacity:1"><path d="M-124.371 256.617h2.143c9.79 0 15.98-5.239 24.818-18.045h.159l-6.43 20.109h-40.27v-.159c3.864-2.222 4.816-4.286 6.192-9.948l9.948-39.873c.609-2.487.953-4.286.953-5.662 0-1.879-.503-3.096-2.143-4.286v-.16h22.754v.16c-3.863 2.222-4.816 4.286-6.191 9.974zm42.016-5.741a8.4 8.4 0 0 0-.16 1.64c0 1.455.689 2.408 2.065 2.408a4.4 4.4 0 0 0 2.222-.688v.159c-2.672 3.704-6.006 5.159-9.71 5.159-5.583 0-7.99-3.36-7.99-7.911a14.6 14.6 0 0 1 .423-3.704l5.503-22.41c.688-2.752 1.111-4.393 1.111-5.583 0-1.535-.502-2.567-1.799-3.599v-.185h17.013zm4.71-55.298c4.391 0 7.46 3.175 7.46 7.302.027 4.525-3.624 8.229-8.149 8.255h-.079c-4.392 0-7.461-3.175-7.461-7.302a8.114 8.114 0 0 1 8.017-8.255c.053-.027.132-.027.211 0" style="fill:#f51a50;fill-opacity:1;stroke-width:.26458332" transform="matrix(.86536 0 0 .85696 124.57 -166.061)"/><path d="M-52.484 216.162h6.456l-1.032 2.143h-5.847l-9.631 39c-3.519 14.34-9.71 20.267-22.41 20.452v-.159c4.55-3.095 6.535-10.556 10.477-27.754l7.303-31.512h-3.943l.265-.953 4.366-1.878.767-2.408c3.096-12.277 12.356-19.315 22.172-19.315 5.424 0 9.79 2.673 9.79 7.118 0 5.08-3.705 7.91-7.99 7.91-2.832 0-4.816-1.534-5.24-3.36 2.567-.423 5.424-2.672 5.424-7.566 0-1.64-.846-2.752-2.407-2.752-3.096 0-5.662 4.286-7.303 14.34z" style="fill:#f51a50;fill-opacity:1;stroke-width:.26458332" transform="matrix(.86536 0 0 .85696 124.57 -166.061)"/><path d="M-52.299 243.811c0-13.652 11.245-28.601 25.93-28.601 7.037 0 10.556 3.598 10.556 8.678 0 9.63-10.398 13.732-22.41 14.261a34 34 0 0 0-.423 4.895c0 6.88 3.254 10.213 7.805 10.213 3.863 0 6.535-1.879 9.79-6.191h.529c-3.599 8.334-9.79 12.461-17.251 12.461-8.52 0-14.526-5.397-14.526-15.716m14.34-6.932c7.224-2.222 12.621-10.557 12.621-17.357 0-1.72-.608-2.751-1.72-2.751-3.862 0-9.101 10.557-10.9 20.108m35.295 11.483a6 6 0 0 0-.264 1.8c0 2.486 1.64 3.941 3.704 3.941 1.376 0 3.175-.767 4.815-2.328l.08.159C2.497 256.987-1.71 259.5-7.134 259.5c-6.192 0-9.446-3.598-9.446-9.181.053-1.429.238-2.831.609-4.207l6.958-27.834h-3.095l.264-1.111c8.917-2.302 14.684-7.303 20.188-15.981h.767l-3.704 14.949h8.07l-.953 2.143H4.798Zm25.427 2.514c-.106.529-.16 1.084-.186 1.64 0 1.455.688 2.408 2.064 2.408a4.4 4.4 0 0 0 2.223-.688v.159c-2.673 3.704-6.006 5.159-9.71 5.159-5.583 0-7.991-3.36-7.991-7.911a14.6 14.6 0 0 1 .423-3.704l5.504-22.41c.688-2.752 1.111-4.393 1.111-5.583 0-1.535-.53-2.567-1.8-3.599v-.185h17.013Zm4.71-55.298c4.391 0 7.46 3.175 7.46 7.302a8.226 8.226 0 0 1-8.175 8.229h-.053c-4.366 0-7.461-3.175-7.461-7.303a8.114 8.114 0 0 1 8.017-8.255c.079 0 .132 0 .211.027m59.187 55.298a5.8 5.8 0 0 0-.264 1.64c0 1.455.688 2.408 2.143 2.408a4.1 4.1 0 0 0 2.143-.688v.159c-2.566 3.704-5.927 5.159-9.604 5.159-5.662 0-8.15-3.36-8.15-7.911 0-1.217.265-2.408.53-3.704l4.895-19.659c.317-1.032.502-2.09.529-3.175 0-1.376-.53-2.222-1.879-2.222-2.672 0-5.424 3.519-7.302 10.742l-6.192 25.082H49.672l7.567-30.4c.317-.98.503-1.985.529-3.017 0-1.455-.609-2.407-2.064-2.407-2.672 0-5.318 3.519-7.223 10.98l-6.165 24.818H28.4l8.255-33.153c.609-2.751 1.032-4.392 1.032-5.582 0-1.535-.53-2.567-1.72-3.599v-.185H52.9l-2.487 9.87c3.175-6.774 7.117-10.743 13.044-10.743 5.662 0 8.149 3.863 8.149 8.837-.027.609-.08 1.217-.186 1.8 3.255-6.774 7.382-10.637 13.23-10.637 5.768 0 8.149 3.704 8.149 8.6a23 23 0 0 1-.609 4.814zm7.197-7.065c0-13.652 11.245-28.601 25.93-28.601 7.037 0 10.556 3.598 10.556 8.678 0 9.63-10.398 13.732-22.41 14.261a34 34 0 0 0-.423 4.895c0 6.88 3.254 10.213 7.805 10.213 3.863 0 6.535-1.879 9.79-6.191h.502c-3.598 8.334-9.79 12.461-17.25 12.461-8.467 0-14.5-5.397-14.5-15.716m14.34-6.932c7.224-2.222 12.621-10.557 12.621-17.357 0-1.72-.608-2.751-1.72-2.751-3.836 0-9.075 10.557-10.9 20.108" style="fill:#f51a50;fill-opacity:1;stroke-width:.26458332" transform="matrix(.86536 0 0 .85696 124.57 -166.061)"/></g></svg>