<svg xmlns="http://www.w3.org/2000/svg" viewBox="98 436 1804 1130"><path fill="#d8323b" fill-rule="evenodd" d="M523.5 437.069c-2.2.461-8.275 1.346-13.5 1.965-5.225.62-11.957 1.766-14.96 2.546-3.003.781-7.014 1.42-8.912 1.42s-5.742.646-8.54 1.435c-2.798.79-7.338 1.93-10.088 2.533s-7.7 1.781-11 2.616-8.475 2.135-11.5 2.888-6.962 1.854-8.75 2.448-4.712 1.57-6.5 2.168-4.854 1.482-6.815 1.964c-1.962.481-4.887 1.564-6.5 2.405-1.614.842-3.835 1.548-4.935 1.569s-2.874.698-3.941 1.506c-1.068.807-2.894 1.468-4.059 1.468s-2.991.661-4.059 1.468c-1.067.808-2.616 1.498-3.441 1.534s-3.3.935-5.5 1.998-4.407 1.947-4.904 1.966-3.421 1.199-6.5 2.624A1569 1569 0 0 1 369 480.215c-8.792 3.976-28.59 13.943-34.5 17.368-3.3 1.912-7.35 4.153-9 4.979s-4.189 2.275-5.642 3.22c-2.259 1.469-9.967 6.248-15.694 9.73-3.113 1.893-7.662 4.94-8.164 5.468-.275.289-2.525 1.874-5 3.523-2.475 1.648-4.95 3.339-5.5 3.756s-6.233 4.692-12.628 9.5c-29.276 22.007-61.523 52.799-80.369 76.741-2.164 2.75-4.183 5.225-4.485 5.5-.929.844-5.432 6.593-7.018 8.96-.825 1.231-3.224 4.556-5.331 7.389-6.206 8.345-17.949 26.428-23.802 36.651-7.262 12.683-19.532 37.839-23.901 49-1.184 3.025-2.636 6.625-3.226 8-2.285 5.319-7.924 21.674-8.648 25.077-.418 1.967-1.11 4.143-1.538 4.835s-1.368 3.807-2.091 6.923a1434 1434 0 0 1-2.768 11.665c-4.365 18.007-5.662 24.623-6.742 34.38-.449 4.059-1.409 9.684-2.134 12.5-.995 3.863-1.319 16.042-1.319 49.62 0 38.972.217 45.394 1.75 51.697.962 3.959 1.75 8.644 1.75 10.413 0 1.768.64 5.504 1.423 8.302.782 2.798 1.866 7.338 2.409 10.088 2.401 12.176 7.115 28.451 10.799 37.284.753 1.806 1.369 3.782 1.369 4.39 0 .609.949 3.181 2.108 5.716s2.674 5.96 3.366 7.61 2.513 5.7 4.046 9 3.401 7.35 4.149 9 1.782 3.675 2.297 4.5 3.546 5.933 6.735 11.35c9.729 16.526 9.75 16.558 21.197 31.549 11.893 15.577 30.535 35.344 41.595 44.105 2.196 1.74 4.221 3.496 4.5 3.903s4.107 3.407 8.507 6.666 8.15 6.265 8.333 6.677c.184.412.745.75 1.247.75s4.066 2.25 7.92 5 7.366 5 7.804 5 1.338.542 2.001 1.205c3.143 3.143 33.803 18.612 47.195 23.811 3.025 1.175 6.85 2.707 8.5 3.404 4.407 1.864 9.411 3.633 14.5 5.127 4.943 1.45 8.67 2.638 14 4.462 1.925.658 5.525 1.557 8 1.998 2.475.44 5.625 1.29 7 1.889s4.975 1.499 8 2.001c5.45.903 11.382 2.005 22 4.086 3.025.593 10.45 1.518 16.5 2.055s13.25 1.399 16 1.915c18.37 3.446 87.273 1.197 107.164-3.498 3.39-.8 7.893-1.455 10.007-1.455s5.414-.467 7.336-1.039c1.921-.571 6.643-1.672 10.493-2.446 14.858-2.987 18.107-3.769 21.284-5.119 1.806-.768 4.416-1.396 5.8-1.396s3.73-.615 5.216-1.366c1.485-.752 4.5-1.692 6.7-2.09s4.468-1.109 5.039-1.581c.572-.472 2.822-1.292 5-1.822 4.326-1.053 9.291-2.698 13.961-4.624 1.65-.68 5.7-2.227 9-3.437s7.469-2.836 9.265-3.613c1.795-.777 4.72-2.024 6.5-2.77 1.779-.747 4.81-2.063 6.735-2.925 4.277-1.914 33.914-16.551 36-17.779.825-.486 6.379-3.72 12.341-7.188 5.963-3.468 11.885-6.98 13.162-7.805 1.276-.825 4.498-2.816 7.159-4.424s6.638-4.221 8.838-5.807c13.459-9.701 23.197-16.868 24.5-18.031.825-.737 4.641-3.792 8.481-6.789s7.69-6.124 8.556-6.949c.867-.825 7.25-6.587 14.184-12.805 11.415-10.236 24.94-24.079 35.405-36.238 2.151-2.499 4.947-5.649 6.213-7 3.107-3.314 27.161-34.639 27.161-35.37 0-.319 2.138-3.645 4.75-7.392 5.627-8.069 5.119-7.251 14.73-23.695 4.179-7.15 8.001-13.675 8.492-14.5s2.751-5.325 5.021-10 4.552-9.175 5.073-10 1.205-2.175 1.521-3 1.478-3.525 2.582-6c3.955-8.869 4.67-10.562 6.331-15 .926-2.475 2.255-5.85 2.952-7.5 1.138-2.692 2.403-6.112 6.473-17.5.689-1.925 1.685-5.282 2.216-7.461.53-2.178 1.338-4.428 1.796-5 .458-.571 1.151-2.614 1.54-4.539.39-1.925 1.308-5.525 2.041-8 3.563-12.025 7.079-26.842 8.068-34 .342-2.475 1.25-6.719 2.018-9.432s1.396-6.845 1.396-9.184.629-7.32 1.398-11.069c1.887-9.202 2.816-43.264 1.7-62.315-.851-14.52-1.813-22.448-4.184-34.5-.541-2.75-1.396-7.25-1.901-10-.504-2.75-1.623-7.359-2.485-10.243a804 804 0 0 1-3.181-11c-.887-3.166-2.171-7.332-2.853-9.257-2.571-7.252-5.727-15.604-6.989-18.5-3.654-8.381-8.661-19.172-9.513-20.5-.529-.825-1.63-2.85-2.447-4.5-2.579-5.209-13.468-23.657-14.461-24.5-.324-.275-1.938-2.525-3.587-5-1.648-2.475-3.348-4.95-3.777-5.5s-2.454-3.275-4.5-6.055c-2.046-2.781-4.291-5.706-4.989-6.5-.697-.795-2.18-2.57-3.295-3.945-8.32-10.259-22.412-24.433-40.883-41.12-7.574-6.843-37.514-28.27-44.553-31.886-1.1-.565-4.025-2.19-6.5-3.611-9.765-5.607-37.769-19.383-39.401-19.383-.39 0-2.597-.82-4.904-1.823-8.68-3.772-17.504-6.942-23.156-8.318-2.178-.53-4.428-1.338-5-1.796-.571-.458-3.064-1.31-5.539-1.895a622 622 0 0 1-18.5-4.674c-5.5-1.482-12.336-2.774-26-4.914-4.95-.775-11.025-1.886-13.5-2.47-5.393-1.272-92.459-1.308-98.5-.041m482.556 9.875c-1.07 1.07-2.159 3.432-2.422 5.25-.262 1.818-.956 6.681-1.542 10.806-2.427 17.081-3.981 26.753-4.982 31-.584 2.475-1.072 6.226-1.086 8.336-.013 2.11-.68 6.61-1.481 10-.802 3.39-1.921 9.539-2.487 13.664-2.339 17.047-4.069 27.7-5.033 30.993-.563 1.922-1.023 5.448-1.023 7.836s-.656 7.117-1.457 10.507c-.802 3.39-1.914 9.539-2.473 13.664-2.201 16.259-4.054 27.661-5.038 30.993-.568 1.922-1.032 5.448-1.032 7.836s-.652 7.117-1.449 10.507-1.951 9.764-2.564 14.164c-2.385 17.114-3.831 26.179-4.863 30.5-.591 2.475-1.086 6.226-1.1 8.336-.013 2.11-.676 6.61-1.473 10s-1.951 9.764-2.564 14.164c-2.385 17.114-3.831 26.179-4.863 30.5-.591 2.475-1.086 6.226-1.1 8.336-.013 2.11-.68 6.61-1.481 10-.802 3.39-1.921 9.539-2.487 13.664-2.339 17.047-4.069 27.7-5.033 30.993-.563 1.922-1.023 5.563-1.023 8.091 0 2.529-.67 6.807-1.489 9.507s-1.501 6.709-1.515 8.909-.661 6.7-1.437 10-1.714 8.925-2.084 12.5-1.303 9.04-2.074 12.144-1.401 7.315-1.401 9.357-.648 6.702-1.439 10.356c-.792 3.654-1.91 10.018-2.487 14.143-2.524 18.077-4.099 27.74-5.051 30.993-.563 1.922-1.023 5.232-1.023 7.357s-.644 6.853-1.431 10.507-1.949 10.243-2.583 14.643c-2.235 15.526-3.71 25.066-4.792 31-1.911 10.48-3.352 19.787-4.181 27.006-.442 3.853-1.277 8.803-1.855 11-.577 2.197-1.353 6.919-1.723 10.494s-1.294 8.957-2.054 11.96-1.381 7.186-1.381 9.295-.643 6.626-1.429 10.039c-.786 3.414-1.924 9.806-2.528 14.206-1.879 13.675-5.383 35.941-7.16 45.5-.563 3.025-1.424 8.875-1.913 13s-1.389 9.313-1.999 11.53c-.609 2.216-.964 6.041-.789 8.5l.318 4.47 94.724.255 94.723.255 1.427-2.255c1.693-2.675 3.626-11.414 3.626-16.39 0-1.945.652-6.311 1.449-9.701s1.955-9.764 2.574-14.164c2.842-20.225 3.961-27.287 4.908-31 .562-2.2 1.032-5.726 1.045-7.836s.68-6.61 1.481-10c.802-3.39 1.921-9.539 2.487-13.664 2.339-17.047 4.069-27.7 5.033-30.993.563-1.922 1.023-5.448 1.023-7.836s.656-7.117 1.457-10.507c.802-3.39 1.921-9.539 2.487-13.664 2.066-15.048 3.909-26.602 4.946-31 .584-2.475 1.072-6.226 1.086-8.336.013-2.11.68-6.61 1.481-10 .802-3.39 1.921-9.539 2.487-13.664 2.339-17.047 4.069-27.7 5.033-30.993.563-1.922 1.023-5.448 1.023-7.836s.652-7.117 1.449-10.507c1.37-5.827 2.824-15.008 4.411-27.863.387-3.134.949-5.943 1.248-6.243.3-.299 1.546 1.365 2.769 3.699s3.982 6.943 6.129 10.243c2.148 3.3 4.487 6.991 5.199 8.201 2.853 4.85 15.39 25.567 16.795 27.751.825 1.283 3.075 4.905 5 8.048s4.266 6.904 5.202 8.358a186 186 0 0 1 3 4.833c.714 1.205 3.548 5.858 6.298 10.34 6.685 10.895 9.188 15.075 10.459 17.469.584 1.1 2.853 4.7 5.041 8s4.44 6.9 5.004 8 1.807 3.189 2.761 4.642 3.31 5.215 5.235 8.358 4.281 6.904 5.235 8.358c.954 1.453 2.215 3.542 2.802 4.642 1.65 3.096 11.086 18.618 14.198 23.358.954 1.453 2.197 3.542 2.761 4.642s2.816 4.7 5.004 8 4.44 6.9 5.004 8 1.807 3.209 2.761 4.688 4.21 6.815 7.235 11.861c3.025 5.045 6.283 10.36 7.239 11.812s2.054 3.314 2.438 4.139 2.105 3.525 3.823 6 3.439 5.175 3.823 6 1.587 2.85 2.673 4.5 2.436 3.9 3 5 2.808 4.7 4.987 8c2.178 3.3 4.648 7.35 5.487 9s2.314 4.189 3.278 5.642 3.327 5.215 5.252 8.358 4.281 6.904 5.235 8.358c.954 1.453 2.197 3.542 2.761 4.642s2.816 4.7 5.004 8 4.426 6.9 4.972 8 2.123 3.8 3.504 6 2.808 4.675 3.172 5.5 1.83 2.496 3.257 3.714l2.595 2.214 120.316.036c81.092.024 120.946-.301 122.25-.999 2.671-1.43 2.427-5.226-.566-8.783-1.375-1.634-2.5-3.431-2.5-3.993s-.346-1.172-.77-1.356c-.676-.292-6.95-9.333-9.73-14.019-.55-.927-2.8-4.302-5-7.5s-4.45-6.573-5-7.5c-2-3.372-9.21-14.098-15.831-23.554-2.018-2.882-3.669-5.409-3.669-5.616 0-.409-10.516-16.13-16.171-24.176-1.925-2.738-3.686-5.438-3.914-6.001s-3.565-5.649-7.415-11.304c-3.85-5.654-7.49-11.151-8.089-12.215s-1.777-2.725-2.619-3.691-1.702-2.213-1.912-2.77c-.209-.558-4.43-7.013-9.38-14.346s-9.45-14.035-10-14.893-12.812-19.323-27.25-41.032c-14.437-21.71-26.25-39.658-26.25-39.884 0-.447-4.162-6.513-5.03-7.332-.69-.651-14.316-21.131-14.97-22.5-.275-.576-4.55-7.03-9.5-14.342s-9.45-14.052-10-14.977c-.55-.924-5.05-7.682-10-15.017s-9.45-14.033-10-14.885-8.763-13.244-18.25-27.536S1320 791.25 1320 790.632s76.5-77.629 170-171.135 170-170.515 170-171.131c0-3.35-1.656-3.393-119.157-3.128l-116.422.262-2.96 3.117c-5.933 6.245-14.209 15.155-25.434 27.384-13.331 14.523-18.19 19.797-23.027 24.996-7.53 8.093-22.856 24.656-25.449 27.503-3.535 3.881-20.165 21.841-24.051 25.974a2832 2832 0 0 0-24.5 26.437c-5.225 5.705-10.85 11.793-12.5 13.529s-7.953 8.534-14.007 15.108c-9.746 10.583-12.976 14.118-20.993 22.977-1.1 1.215-6.99 7.557-13.09 14.093-9.903 10.611-16.019 17.243-23.525 25.508-1.312 1.444-7.785 8.413-14.385 15.485-6.6 7.073-14.25 15.308-17 18.3s-6.35 6.871-8 8.619c-8.472 8.973-20.747 22.426-21.893 23.993-2.197 3.005-2.584.185-.974-7.096.843-3.81 1.905-10.527 2.359-14.927.455-4.4 1.318-9.267 1.918-10.815s1.09-4.716 1.09-7.04.633-6.682 1.408-9.685 1.715-8.61 2.091-12.46 1.318-9.54 2.093-12.644 1.408-7.646 1.408-10.091c0-2.446.67-6.656 1.489-9.356s1.501-6.709 1.515-8.909.661-6.7 1.437-10 1.723-8.925 2.104-12.5 1.314-8.957 2.074-11.96 1.381-7.186 1.381-9.295.64-6.626 1.421-10.039c.782-3.414 1.942-10.031 2.577-14.706 2.554-18.797 3.844-26.935 4.414-27.857.329-.533 1.012-4.721 1.517-9.306.506-4.585 1.382-10.812 1.948-13.837 1.068-5.711 2.273-13.162 4.611-28.5 2.086-13.688 3.499-22.386 4.713-29 2.219-12.093 2.257-11.375-.655-12.483-1.745-.663-34.852-1.017-95.111-1.017-90.218 0-92.482.047-94.379 1.944m683.694-.864c-1.659.966-1.75 13.449-1.75 239.888 0 131.378.273 239.58.607 240.45.547 1.427 9.581 1.582 91.965 1.582 89.299 0 91.381-.044 92.393-1.934.705-1.318 1.035-77.79 1.035-239.944V448.113l-2.223-1.556c-1.971-1.382-12.259-1.554-91.25-1.527-58.608.02-89.625.379-90.777 1.05M522.913 619.417c-.322.324-5.947 1.243-12.5 2.042-12.811 1.561-21.13 3.073-25.913 4.707-1.65.564-5.025 1.43-7.5 1.923s-5.4 1.33-6.5 1.857c-1.1.528-3.575 1.403-5.5 1.946-5.804 1.635-12.441 4.19-13.45 5.178-.522.512-1.592.93-2.377.93-1.252 0-14.077 5.653-18.173 8.011-.825.475-3.975 2.128-7 3.673-3.025 1.546-6.095 3.374-6.821 4.063-.727.689-1.712 1.253-2.188 1.253-1.249 0-19.196 12.292-27.456 18.805-10.813 8.525-32.286 30.565-40.624 41.695-9.98 13.324-18.947 27.278-21.526 33.5-.342.825-2.144 4.705-4.004 8.623s-3.395 7.742-3.413 8.5c-.017.757-.692 2.251-1.5 3.318-.807 1.068-1.468 2.74-1.468 3.716s-.643 3.253-1.428 5.059c-2.224 5.115-4.721 13.791-5.55 19.284-.415 2.75-1.25 7.025-1.856 9.5s-1.632 11.617-2.281 20.315c-1.878 25.174.599 49.144 7.458 72.185 9.615 32.302 28.107 59.559 54.337 80.095 4.5 3.523 8.514 6.405 8.922 6.405.407 0 1.451.63 2.319 1.399 3.858 3.42 22.076 12.565 32.079 16.103 36.729 12.992 75.559 15.075 114 6.114 10.849-2.529 15.346-3.782 18.784-5.231 1.806-.762 4.083-1.385 5.059-1.385s2.648-.661 3.716-1.468c1.067-.808 2.567-1.483 3.331-1.5 2.403-.055 33.743-15.279 39.11-18.998.825-.572 5.14-3.433 9.589-6.357 13.736-9.029 25.388-18.639 38.411-31.679 13.498-13.516 14.987-15.165 22.561-24.998 11.163-14.49 18.625-26.59 27.136-44 5.46-11.169 12.303-28.065 12.303-30.379 0-.766.672-2.681 1.494-4.257.821-1.575 1.496-3.847 1.5-5.049.003-1.202.508-3.452 1.122-5s1.729-5.965 2.478-9.815 1.861-9.25 2.472-12c1.523-6.849 1.49-49.657-.042-55.5-.648-2.475-1.744-7.2-2.433-10.501-.69-3.3-1.78-6.983-2.422-8.184S706 730.063 706 728.757s-.661-3.248-1.468-4.316c-.808-1.067-1.483-2.477-1.5-3.133-.032-1.191-7.059-16.074-9.33-19.758-.661-1.073-2.664-4.106-4.452-6.74s-3.25-5.207-3.25-5.716-.337-1.077-.75-1.261-1.925-1.908-3.361-3.833c-8.174-10.959-25.988-27.244-38.916-35.576-6.477-4.174-7.042-4.49-16.693-9.302-4.829-2.408-9.974-4.995-11.434-5.75s-3.26-1.387-4-1.406-3.146-.903-5.346-1.966-4.772-1.947-5.716-1.966-3.194-.662-5-1.43c-3.838-1.631-10.589-3.11-23.784-5.212-9.6-1.529-47.003-3.065-48.087-1.975M1762.5 965.914c-11.107 1.402-19.701 4.239-34 11.224-21.528 10.517-40.168 29.189-51.706 51.796-2.087 4.089-3.797 7.914-3.8 8.5-.004.586-.636 2.273-1.406 3.749s-1.708 4.175-2.085 6c-.377 1.824-1.378 5.342-2.224 7.817-2.221 6.498-2.231 42.57-.013 49 .853 2.475 1.878 6.073 2.276 7.996.399 1.923 1.39 5.073 2.202 7 3.41 8.087 4.523 10.584 5.351 12.004.481.825 1.548 2.85 2.37 4.5 5.603 11.246 20.945 28.565 33.035 37.294 5.185 3.743 10.025 6.604 16.5 9.753 3.025 1.471 6.305 3.089 7.288 3.596 1.986 1.024 14.483 4.896 22.212 6.883 8.265 2.125 31.997 2.475 39.391.58 3.449-.883 7.132-1.606 8.186-1.606 2.094 0 12.65-3.346 17.423-5.523 14.839-6.768 15.936-7.405 25.997-15.093 8.867-6.776 16.502-14.29 23.251-22.884 3.886-4.947 10.235-15.972 13.534-23.5 7.107-16.219 8.718-24.706 8.718-45.939 0-12.685-.412-19.255-1.396-22.276-.768-2.357-1.685-5.953-2.038-7.993s-1.296-4.964-2.097-6.5-1.459-3.282-1.463-3.882c-.003-.599-2.22-5.439-4.927-10.755-8.507-16.708-22.036-32.133-37.294-42.52-7.657-5.213-20.294-12.131-22.177-12.141-.609-.004-2.365-.662-3.9-1.463-1.536-.801-4.461-1.769-6.5-2.151-2.04-.381-5.184-1.31-6.987-2.063-3.854-1.608-34.342-2.587-43.721-1.403m-380.929 244.657c-1.33 1.331-1.571 4.847-1.571 22.929s.241 21.598 1.571 22.929c1.358 1.357 5.544 1.569 30.75 1.556 16.64-.009 29.824-.423 30.679-.964 1.261-.797 1.5-4.544 1.5-23.521s-.239-22.724-1.5-23.521c-.855-.541-14.039-.955-30.679-.964-25.206-.013-29.392.199-30.75 1.556m-1187.116 58.512c-3.875.453-8.375 1.516-10 2.364s-3.472 1.543-4.103 1.547c-3.072.016-16.337 9.26-19.006 13.245-1.015 1.515-2.184 2.757-2.596 2.758-.412.002-.75-2.681-.75-5.962 0-4.874-.354-6.154-1.934-7-2.89-1.546-54.306-1.395-55.866.165-1.591 1.591-1.752 195.9-.165 198.866.987 1.843 2.385 1.934 29.845 1.934 26.641 0 28.935-.138 30.465-1.829 1.501-1.658 1.655-7.357 1.65-61.25-.005-61.141-.039-60.479 3.655-70.421 1.42-3.819 4.782-7.554 9.905-11 5.626-3.786 6.411-4.019 14.64-4.347 7.531-.301 9.335-.033 13.471 2 6.3 3.097 9.669 6.46 11.868 11.847.337.825 1.367 3.075 2.289 5 1.503 3.137 1.709 9.966 1.989 65.798l.311 62.298 2.689 1.088c4.002 1.62 58.975 2.43 60.509.892.88-.884 1.179-17.059 1.179-63.88V1350.5l2.651-5.5c5.609-11.635 13.982-16.973 26.654-16.99 14.445-.02 22.857 7.182 26.657 22.821 1.293 5.323 1.538 15.517 1.538 64.027 0 50.602.191 57.97 1.557 59.919 1.546 2.208 1.743 2.223 29.928 2.223 24.46 0 28.589-.217 29.944-1.571 1.4-1.4 1.571-9.569 1.571-74.87 0-70.563-.075-73.537-2.004-79.679-1.103-3.509-2.443-7.28-2.98-8.38a90 90 0 0 1-1.993-4.5c-1.3-3.191-2.57-5.183-7.639-11.981-11.824-15.854-28.017-24.795-49.134-27.131-11.743-1.299-28.899.006-33.819 2.571-1.612.841-3.888 1.531-5.059 1.535-1.17.003-2.687.681-3.372 1.506s-2.035 1.5-3 1.5-2.315.675-3 1.5-1.677 1.5-2.204 1.5c-2.335 0-16.963 13.356-20.536 18.75-1.998 3.017-2.903 2.84-4.864-.951-2.232-4.315-17.376-19.347-20.443-20.289-1.349-.415-3.044-1.229-3.767-1.808-2.47-1.979-11.681-4.636-19.66-5.669-9.004-1.166-16.786-1.152-27.071.05m327.043-.071c-3.851.407-9.155 1.471-11.785 2.364s-5.207 1.624-5.726 1.624c-1.802 0-16.52 7.275-21.987 10.868-12.798 8.412-21.753 17.695-30.009 31.106-7.04 11.437-9.625 17.684-13.57 32.804-2.151 8.242-2.418 11.367-2.397 28 .013 10.297.485 20.522 1.049 22.722.563 2.2 1.624 6.475 2.357 9.5 1.732 7.154 3.112 10.795 7.767 20.5 4.47 9.32 5.162 10.495 9.714 16.5 12.237 16.141 28.963 28.171 47.709 34.313 2.817.922 10.643 2.394 17.391 3.269 11.248 1.459 13.445 1.458 26.354-.019 7.746-.887 14.523-2.051 15.059-2.587.537-.537 1.674-.98 2.526-.985 4.011-.024 14.761-6.623 21.8-13.382l5.25-5.041v7.241c0 6.852.138 7.293 2.565 8.216 1.44.547 14.594.975 30 .975 26.102 0 27.532-.097 29.435-2 1.973-1.973 2-3.333 2-99.443v-97.444l-2.223-1.556c-1.882-1.319-6.483-1.557-30.065-1.557-17.281 0-28.577.393-29.778 1.035-1.606.86-1.934 2.132-1.934 7.5 0 3.556-.224 6.465-.499 6.465-.274 0-2.412-1.862-4.75-4.137-6.436-6.263-16.117-12.142-22.099-13.42-1.733-.371-3.644-1.068-4.245-1.55-2.806-2.251-26.052-3.346-39.909-1.881m254.516.042c-26.887 2.809-56.084 22.408-70.68 47.446-3.047 5.228-8.733 17.317-9.406 20a84 84 0 0 1-1.799 6c-1.969 5.647-4.021 16.998-4.609 25.5-.865 12.49 2.178 37.22 5.251 42.684.676 1.202 1.229 2.898 1.229 3.771 0 2.64 7.502 17.585 12.656 25.214 9.794 14.494 22.715 25.894 37.344 32.947 13.221 6.375 19.786 8.267 32.577 9.391 12.911 1.134 32.908-.172 37.285-2.436 1.671-.864 3.934-1.571 5.029-1.571s2.262-.438 2.592-.973c.331-.536 2.236-1.749 4.232-2.696 1.997-.948 6.49-4.398 9.985-7.667s6.631-5.666 6.97-5.328.101 3.177-.527 6.307c-.629 3.13-1.143 6.765-1.143 8.079 0 2.293-2.248 8.127-5.801 15.053-2.623 5.111-10.075 11.792-17.199 15.417-6.405 3.26-6.697 3.308-20 3.308-12.277 0-13.947-.22-18.441-2.432-4.905-2.413-13.559-10.412-13.559-12.531 0-.608-1.307-1.878-2.904-2.821-2.583-1.526-6.489-1.716-35.278-1.716-27.682 0-32.695.226-34.595 1.557-2.538 1.777-2.797 4.814-.723 8.443.786 1.375 1.445 3.556 1.465 4.846.019 1.29.641 3.54 1.382 5a520 520 0 0 1 3.75 7.654c3.569 7.427 12.156 18.299 19.19 24.3 6.409 5.466 18.854 13.2 21.242 13.2.744 0 1.597.395 1.895.877.49.794 6.789 2.877 22.664 7.497 8.055 2.344 48.161 2.341 57.748-.004 15.428-3.775 27.733-8.1 36.819-12.943 12.721-6.781 30.409-22.145 34.626-30.077 9.08-17.077 11.289-23.383 12.739-36.35.461-4.125.87-52.372.909-107.215.069-97.599.03-99.737-1.863-100.75-1.202-.643-12.587-1.035-30.066-1.035s-28.864.392-30.066 1.035c-1.513.81-1.934 2.115-1.934 6 0 2.731-.422 4.965-.938 4.965s-2.429-1.378-4.25-3.063c-4.114-3.805-14.675-9.829-21.312-12.155-9.361-3.281-26.602-4.388-42.486-2.728m240 0c-23.497 2.455-48.267 17.215-64.066 38.178-5.767 7.651-15.948 26.97-15.948 30.261 0 .938-.614 3.123-1.364 4.856-4.162 9.612-5.839 37.484-3.169 52.651.919 5.225 2.136 10.85 2.704 12.5.567 1.65 1.252 4.125 1.521 5.5.735 3.75 4.534 13.281 6.011 15.079.713.868 1.297 2.275 1.297 3.127s.675 2.109 1.5 2.794 1.5 1.62 1.5 2.078c0 1.885 9.145 13.838 15.145 19.795 5.857 5.815 9.734 9.127 10.686 9.127.551 0 1.152.338 1.336.75.636 1.432 6.374 4.927 13.833 8.426 17.844 8.372 34.829 10.913 56.161 8.405 7.513-.884 14.938-2.273 16.5-3.088 1.561-.814 3.306-1.483 3.878-1.487 2.991-.018 12.632-6.201 18.323-11.752 2.399-2.34 4.761-4.254 5.25-4.254s.888 2.63.888 5.845c0 9.468-1.082 9.155 31.638 9.155 22.587 0 28.354-.274 29.921-1.419 1.899-1.389 1.941-3.57 1.941-99.917 0-54.174-.374-98.872-.832-99.331-1.302-1.304-58.255-1.624-60.653-.341-1.674.896-2.015 2.087-2.015 7.043 0 4.015-.397 5.965-1.216 5.965-.668 0-3.256-1.986-5.75-4.413-4.348-4.232-16.544-11.58-19.241-11.593-.711-.004-2.604-.69-4.205-1.525-5.594-2.917-25.63-4.081-41.574-2.415m557.441.029c-3.875.453-8.375 1.516-10 2.364s-3.461 1.543-4.079 1.547c-2.575.014-10.832 5.6-15.92 10.77-3.001 3.049-5.496 5.137-5.545 4.64s-.018-2.994.069-5.549c.264-7.792.017-7.855-30.768-7.855-16.247 0-27.085.397-28.278 1.035-1.892 1.013-1.934 3.173-1.934 99.345 0 93.971.081 98.383 1.829 99.965 1.61 1.457 5.182 1.655 29.889 1.655 25.262 0 28.269-.175 30.149-1.75 2.072-1.735 2.092-2.266 2.361-63.25l.272-61.5 2.785-5.5c4.46-8.808 6.942-11.159 14.823-14.04 10.771-3.936 26.823-1.876 32.926 4.228 8.071 8.071 8.964 16.628 8.965 85.907.001 49.683.102 52.687 1.83 54.25 1.61 1.458 5.189 1.655 30 1.655 26.838 0 28.266-.095 30.171-2 1.962-1.962 1.999-3.303 1.956-71.25-.024-38.088-.43-71.05-.903-73.25s-1.375-6.576-2.003-9.724-1.793-6.973-2.59-8.5-1.45-3.314-1.454-3.972c-.015-2.908-7.974-14.365-14.44-20.787-10.663-10.589-25.002-16.94-41.957-18.581-10.666-1.032-18.408-.992-28.154.147m204.664.033c-4.059.471-7.884 1.26-8.5 1.754-.615.495-2.694 1.205-4.619 1.578-3.664.712-5.926 1.619-15 6.014-15.213 7.369-27.921 17.791-38.453 31.538-4.001 5.223-11.547 17.439-11.547 18.694 0 .323-.838 2.436-1.861 4.696-11.201 24.731-11.447 57.545-.623 83.11 13.006 30.721 36.84 52.38 69.174 62.858 2.855.925 10.716 2.366 17.471 3.202 11.027 1.365 13.495 1.363 24.189-.025 14.224-1.845 20.034-3.519 33.15-9.549 15.839-7.283 32.66-21.985 43.048-37.627 4.75-7.153 10.452-18.292 10.452-20.419 0-5.097 1.011-4.94-31.878-4.94h-30.665l-5.869 6.078c-3.227 3.343-6.818 6.492-7.978 6.998-1.161.505-2.785 1.316-3.61 1.802-3.874 2.278-12.14 4.131-18.412 4.127-15.659-.011-29.306-6.846-37.093-18.579-3.407-5.133-7.036-14.411-5.647-14.439.359-.008 33.201-.12 72.983-.25 70.301-.23 72.37-.291 73.75-2.178 1.086-1.486 1.409-5.587 1.375-17.5-.024-8.558-.448-17.359-.943-19.559-2.316-10.289-4.609-17.551-7.579-24-.759-1.65-1.85-4.125-2.422-5.5s-1.93-3.85-3.016-5.5-2.274-3.675-2.641-4.5c-2.445-5.494-17.058-21.133-26.855-28.739-7.848-6.093-22.043-13.149-33.5-16.65-11.108-3.395-30.316-4.417-46.881-2.495m-585.888 6.922-2.269.911.269 22.747.269 22.746 2.5 1.288c1.918.988 11.115 1.264 39.5 1.186 20.35-.056 36.996.277 36.992.741-.009 1.023-3.865 6.465-16.992 23.985-5.5 7.341-14.5 19.463-20 26.939a4281 4281 0 0 1-19.5 26.258c-5.225 6.966-10.85 14.59-12.5 16.942s-4.676 6.627-6.725 9.498l-3.724 5.221-.026 19.693c-.024 19.231.027 19.73 2.198 21.25 1.961 1.374 10.66 1.557 74.065 1.557 47.611 0 72.496-.349 73.778-1.035 1.824-.976 1.934-2.313 1.934-23.429 0-19.165-.23-22.623-1.595-23.988-1.402-1.402-5.828-1.586-36.617-1.522-19.262.04-35.245-.15-35.517-.422s1.131-2.478 3.117-4.902c1.987-2.424 3.612-4.698 3.612-5.052 0-.355 2.813-4.411 6.25-9.013 3.438-4.603 10.3-14.157 15.25-21.231s11.138-15.668 13.75-19.097 4.75-6.526 4.75-6.881c0-.354 2.25-3.472 5-6.928s5-6.594 5-6.973c0-.38 1.515-2.566 3.368-4.859 1.852-2.292 5.677-7.432 8.5-11.422l5.132-7.253v-22.797c0-16.397-.337-23.133-1.2-23.996-1.472-1.472-144.918-1.628-148.569-.162m189.992.519-2.223 1.556v195.774l2.223 1.556c1.884 1.32 6.525 1.557 30.5 1.557 26.944 0 28.371-.094 30.277-2 1.973-1.973 2-3.333 2-99s-.027-97.027-2-99c-1.906-1.906-3.333-2-30.277-2-23.975 0-28.616.237-30.5 1.557M1783 1323.642c-8.423 2.779-13.493 5.733-18.537 10.799-5.251 5.274-9.463 12.213-9.463 15.59 0 1.927.88 1.969 40.941 1.969 22.518 0 41.166-.364 41.441-.81 1.024-1.656-5.648-12.847-10.321-17.311-5.48-5.234-8.975-7.214-17.561-9.945-7.262-2.31-19.959-2.449-26.5-.292m-1252.5 6.488c-15.944 5.721-25.699 16.706-29.925 33.701-3.672 14.762-.404 30.948 8.579 42.491 4.679 6.013 9.458 9.847 16.71 13.408 5.134 2.521 6.806 2.796 18.775 3.094 13.766.342 14.966.088 25.88-5.488 8.297-4.238 15.765-14.179 20.16-26.836 3.585-10.321 1.766-28.676-3.824-38.596-3.579-6.35-13.235-16.89-15.483-16.899-.62-.003-1.663-.651-2.319-1.441-.655-.789-2.623-1.741-4.372-2.115-1.75-.374-3.811-1.189-4.582-1.812-.804-.65-6.131-1.245-12.5-1.396-9.283-.22-12.081.089-17.099 1.889m253.662.355c-3.486 1.26-6.838 2.791-7.45 3.403s-1.584 1.118-2.162 1.124c-1.381.017-8.506 6.801-11.07 10.541-2.006 2.925-3.775 6.462-6.869 13.731-2.283 5.362-2.282 28.072.001 33.432 6.113 14.354 12.863 22.266 22.388 26.241 1.375.574 3.4 1.592 4.5 2.263 1.157.704 6.972 1.382 13.791 1.606 10.415.342 12.516.119 18-1.91 14.609-5.405 24.921-17.607 28.238-33.416 1.863-8.874 1.853-14.163-.044-23.253-3.495-16.752-13.929-28.52-30.239-34.105-8.587-2.941-20.385-2.801-29.084.343m240.838-.203c-7.287 2.974-9.723 4.355-14.537 8.243-4.366 3.525-12.463 14.598-12.463 17.042 0 .827-.73 2.618-1.622 3.979-2.451 3.741-2.432 26.645.028 32.625 6.391 15.541 13.412 23.051 26.539 28.385 5.451 2.215 7.687 2.525 18.12 2.518 11.83-.008 12.491-.143 21.935-4.466 6.777-3.102 15.904-12.33 18.898-19.108 4.47-10.12 4.602-10.831 4.549-24.481-.04-10.171-.437-14.287-1.597-16.531a684 684 0 0 1-3.947-7.831c-2.477-4.993-12.323-15.657-14.455-15.657-.662 0-1.763-.675-2.448-1.5s-1.977-1.503-2.872-1.506c-.896-.004-2.978-.758-4.628-1.676-2.197-1.222-6.077-1.751-14.5-1.975-10.053-.268-12.192-.024-17 1.939"/></svg>