<svg xmlns="http://www.w3.org/2000/svg" viewBox="40 428 1917 257"><path fill="#2b2e34" fill-rule="evenodd" d="M440 428.669c-33.021 1.69-68.941 21.418-100 54.922-10.16 10.96-27 32.655-27 34.785 0 .283-5.85 9.546-13 20.586s-13 20.342-13 20.671-1.575 2.745-3.5 5.367-3.5 5.27-3.5 5.884-.45 1.116-1 1.116-1 .502-1 1.116-1.575 3.262-3.5 5.884-3.5 5.018-3.5 5.325c0 .306-3.668 6.23-8.15 13.165-5.142 7.955-8.501 12.259-9.1 11.66-.522-.522-1.345-7.857-1.83-16.299s-1.319-20.526-1.854-26.851c-.534-6.325-1.454-17.8-2.042-25.5s-1.509-17.295-2.047-21.322c-.537-4.028-.977-11.76-.977-17.182 0-9.7.046-9.893 2.852-11.89 3.457-2.462 9.125-3.807 19.789-4.696l8.033-.67 1.789-5.262c.984-2.894 1.48-5.761 1.104-6.37-.488-.789-16.61-1.108-56.005-1.108h-55.319l-1.036 2.75c-1.689 4.486-3.235 9.563-2.962 9.728.14.085 3.739.633 7.998 1.218 8.529 1.173 12.505 3.158 13.146 6.567.846 4.49 2.611 24.47 2.611 29.549 0 5.023-.553 6.076-14.676 27.954-8.071 12.504-15.176 23.634-15.789 24.734-1.435 2.578-11.92 18.76-15.656 24.163-1.584 2.29-2.889 4.54-2.901 5-.012.461-.902 1.962-1.978 3.337l-1.956 2.5-.02-4c-.012-2.2-.452-7.6-.977-12-.526-4.4-1.44-13.175-2.031-19.5-2.514-26.886-3.245-34.134-4.593-45.543-.783-6.623-1.423-17.371-1.423-23.883 0-11.56.063-11.895 2.641-14.111 3.021-2.596 5.274-3.159 16.319-4.08 5.878-.49 8.12-1.079 8.656-2.272 1.368-3.05 3.069-10.093 2.56-10.601-.28-.281-25.626-.51-56.324-.51H43.038l-.6 2.75c-.33 1.512-1.065 3.979-1.633 5.482-1.787 4.727-.766 5.41 9.034 6.045 9.444.611 13.185 2.096 15.409 6.115 1.725 3.118 2.443 9.181 5.696 48.108.552 6.6 1.706 18.75 2.566 27 1.568 15.055 2.731 27.546 4.468 48 1.191 14.022 1.987 22.821 2.577 28.5.257 2.475.909 10.321 1.447 17.435.634 8.362 1.425 13.219 2.239 13.735 1.58 1.003 24.868 1.06 26.359.065.605-.404 4.396-5.91 8.425-12.235 4.028-6.325 8.145-12.429 9.15-13.564 1.004-1.136 1.825-2.36 1.825-2.721s9.515-15.407 21.144-33.436c11.629-18.028 21.867-33.964 22.75-35.412s4.194-6.526 7.356-11.284 5.75-8.903 5.75-9.21.834-1.618 1.854-2.914c1.853-2.356 1.854-2.352 2.517 6.342.365 4.784 1.363 15.674 2.219 24.199s1.956 20.45 2.447 26.5c1.629 20.097 1.967 23.928 2.954 33.5.539 5.225 1.183 13.109 1.432 17.519.248 4.411.918 9.249 1.489 10.75L202.95 677h12.591c12.536 0 16.459-.823 16.459-3.452 0-.76.338-1.531.75-1.715.931-.413 36.233-53.252 38.125-57.064.756-1.523 1.769-2.769 2.25-2.769s.875-.442.875-.983c0-.778 8.132-13.612 11.749-18.541.413-.563 4.169-6.188 8.347-12.5a59730 59730 0 0 1 22.75-34.321C325.181 533.09 332 522.44 332 521.988s.344-.971.764-1.155c.421-.183 3.752-4.843 7.402-10.355 3.651-5.511 8.872-12.036 11.603-14.5 8.083-7.291 16.784-14.269 19.863-15.928 1.582-.852 4.224-2.47 5.872-3.594 8.099-5.527 25.458-11.456 33.541-11.456 6.4 0 21.353 3.377 27.955 6.314 2.981 1.326 12.748 9.253 15.326 12.438 2.696 3.332 9.599 7.709 14.29 9.061 7.974 2.299 15.69.836 21.954-4.162 8.635-6.889 11.384-23.356 5.852-35.042-8.444-17.832-27.832-26.403-56.422-24.94m850.75 45.411c-.963.561-1.75 1.807-1.75 2.77 0 .962-.411 2.178-.914 2.7-1.246 1.295-1.699 5.669-.746 7.2.494.793 3.167 1.25 7.315 1.25 9.466 0 11.696 1.843 13.192 10.902.634 3.841 1.153 10.275 1.153 14.297s.436 8.836.97 10.696c.798 2.784.622 3.87-1 6.147-1.084 1.522-1.97 3.013-1.97 3.314s-2.025 3.445-4.5 6.985-4.5 6.707-4.5 7.035-2.475 4.17-5.5 8.537c-3.025 4.366-5.5 8.176-5.5 8.465s-2.025 3.423-4.5 6.963-4.5 6.732-4.5 7.091-.452 1.196-1.003 1.86c-2.433 2.928-7.997 11.754-7.997 12.684 0 .563-.45 1.024-1 1.024s-1 .373-1 .828c0 1.198-9.253 15.252-9.729 14.777-.219-.22-.823-5.283-1.342-11.252a1539 1539 0 0 0-1.977-20.853c-.569-5.5-1.49-15.175-2.047-21.5a2391 2391 0 0 0-1.951-21c-.516-5.225-1.209-16.475-1.54-25-.595-15.352-.578-15.52 1.743-17.581 2.743-2.437 10.839-4.413 18.169-4.434 2.846-.009 5.624-.346 6.174-.75 1.48-1.087 4.426-10.264 3.811-11.868-.445-1.16-9.538-1.342-56.171-1.125l-55.64.258-1.859 5.874c-2.223 7.023-1.759 7.588 6.243 7.611 6.846.019 12.656 1.755 15.392 4.598 2.481 2.578 4.621 10.742 4.682 17.865.023 2.722.477 8.572 1.009 13 1.202 10.004 2.941 27.586 4.16 42.052.51 6.05 1.365 15.837 1.9 21.75 1.652 18.254 2.82 31.728 3.877 44.75.558 6.875 1.264 13.85 1.569 15.5s.972 8.494 1.483 15.208 1.421 13.127 2.022 14.25c1.009 1.886 2.032 2.042 13.402 2.042 10.493 0 12.529-.258 13.792-1.75 1.221-1.441 31.994-48.553 35.328-54.085.55-.912 3.362-5.184 6.25-9.492s5.25-8.071 5.25-8.363 2.025-3.428 4.5-6.969c2.475-3.54 4.5-6.78 4.5-7.2s.787-1.661 1.75-2.757 2.29-2.869 2.949-3.939c9.895-16.05 17.935-28.436 18.461-28.44.864-.006 2.647 11.518 3.249 20.995.428 6.744 1.505 19.62 3.054 36.5.303 3.3.749 8.7.992 12 1.327 18.05 4.421 49.554 5.032 51.25.33.916 4.047 1.25 13.898 1.25h13.447l2.865-3.75c1.575-2.062 3.489-4.987 4.253-6.5.763-1.513 1.762-2.75 2.219-2.75s.831-.482.831-1.071 1.962-3.851 4.36-7.25c4.472-6.337 39.661-60.382 42.996-66.034 1.02-1.73 2.258-3.295 2.75-3.478.491-.184.894-.733.894-1.221s1.295-2.813 2.877-5.167c7.099-10.557 11.39-17.193 13.2-20.416 1.076-1.916 2.403-4.018 2.949-4.673 1.736-2.083 30.919-46.532 34.474-52.509.55-.924 1.228-1.906 1.506-2.181s1.762-2.186 3.298-4.247c4.074-5.465 10.342-8.015 21.365-8.691 5.042-.309 9.447-.842 9.788-1.184s1.351-3.194 2.246-6.339c1.393-4.898 1.424-5.846.212-6.613-.778-.492-19.27-.902-41.094-.911-34.751-.013-39.873.18-41.25 1.556-.864.865-1.571 2.295-1.571 3.179 0 .885-.549 3.127-1.221 4.984-1.673 4.628-.437 5.215 11.221 5.327 17.778.171 20.412 3.424 13.362 16.505-2.055 3.814-9.052 15.158-15.549 25.21-6.497 10.051-11.813 18.538-11.813 18.86s-2.025 3.482-4.5 7.023-4.5 6.621-4.5 6.846c0 .432-21.928 35.085-25.125 39.705-1.031 1.49-1.875 3.177-1.875 3.75 0 .572-.34 1.04-.756 1.04s-1.353 1.35-2.084 3c-2.705 6.112-2.833 5.47-5.189-26-.514-6.875-1.411-18.8-1.993-26.5s-1.411-19.428-1.843-26.063-1.084-12.546-1.449-13.136-.742-6.07-.838-12.178c-.153-9.681.07-11.376 1.738-13.228 3.057-3.393 6.244-4.286 17.332-4.858 10.318-.532 10.435-.566 12.084-3.537 2.497-4.498 3.198-10.209 1.341-10.922-2.773-1.064-107.73-.583-109.593.502m447.614 2.665c-7.14.401-8.818 1.754-9.829 7.924l-.683 4.169 5.824.67c14.951 1.721 16.439 4.949 10.829 23.492-.915 3.025-2.048 7.075-2.518 9a232 232 0 0 1-1.851 7c-.549 1.925-1.905 6.875-3.013 11-1.761 6.556-5.144 18.813-8.281 30-.54 1.925-1.209 4.625-1.487 6s-.883 3.4-1.345 4.5-1.355 4.025-1.985 6.5a309 309 0 0 1-2.16 8c-.559 1.925-1.398 5.3-1.865 7.5s-1.333 5.688-1.925 7.75c-6.858 23.914-8.703 40.491-5.524 49.62 5.205 14.945 13.794 21.099 29.449 21.1 8.954.001 14.259-1.686 21.847-6.946 7.141-4.951 10.963-8.467 14.698-13.524 4.776-6.466 5.298-6.875 6.983-5.477.81.672 1.472 1.613 1.472 2.091 0 1.256 6.811 9.991 9.778 12.541 1.389 1.193 3.695 2.755 5.124 3.471s3.87 2.161 5.424 3.211c7.941 5.362 31.243 6.723 39.361 2.3 1.547-.843 3.808-1.988 5.023-2.545 5.359-2.454 20.29-19.807 20.29-23.581 0-.896.45-1.351 1-1.011s1 1.928 1 3.529c0 1.602 1.138 5.399 2.528 8.438 5.594 12.231 14.101 17.691 27.563 17.691 13.027 0 22.365-4.453 32.403-15.451 3.578-3.92 6.506-7.708 6.506-8.418s.374-1.289.832-1.289c1.264 0 10.467-18.708 9.763-19.846-.338-.547-2.873-2.384-5.633-4.082-4.499-2.769-5.076-2.906-5.573-1.33-1.594 5.054-10.41 20.227-15.028 25.862-4.128 5.038-11.601 9.902-13.873 9.03-1.087-.418-1.488-2.179-1.488-6.544 0-3.284.402-6.221.894-6.525s1.11-2.243 1.373-4.309 1.697-8.256 3.185-13.756c3.507-12.959 4.35-16.418 7.327-30.077.489-2.242 1.197-4.575 1.573-5.183.376-.609 1.086-3.049 1.578-5.423.939-4.527 3.477-14.866 5.111-20.817a900 900 0 0 0 7.536-29.5c1.439-6.05 3.023-11.781 3.52-12.736s.903-2.671.903-3.813c0-1.141.702-4.41 1.56-7.263s1.983-6.875 2.5-8.938a653 653 0 0 1 4.053-15.25c1.42-5.051 3.887-16.057 3.887-17.337 0-.908-3.047-1.079-12.243-.686-6.734.288-21.982.523-33.884.523-19.721 0-21.691.155-22.22 1.75-.32.962-1.23 3.468-2.023 5.568-1.59 4.213-1.872 3.915 5.37 5.679 7.71 1.879 9.808 3.078 11.455 6.55 1.491 3.141 1.459 3.877-.488 11.158-1.147 4.287-2.47 9.82-2.942 12.295-1.221 6.412-7.839 30.888-8.751 32.364-.293.476-1.763-1.11-3.266-3.525-1.502-2.414-4.386-5.841-6.407-7.616-6.23-5.47-9.79-6.493-22.601-6.497-9.883-.002-12.625.379-19.5 2.712-12.169 4.13-23.533 11.577-34.375 22.528-5.156 5.208-10.368 11.059-11.582 13.002-4.516 7.228-8.124 14.705-9.906 20.532-1.01 3.3-2.241 6.781-2.737 7.736-.495.955-.9 4.019-.9 6.808s-.484 6.993-1.076 9.342c-.749 2.976-.768 6.491-.062 11.581l1.012 7.309-4.823 7.112c-2.653 3.912-5.662 8.066-6.687 9.231a325 325 0 0 0-4.364 5.111c-3.025 3.62-8.297 6.477-10.437 5.656-1.881-.722-2.117-7.558-.475-13.77 2.291-8.668 4.102-15.21 4.876-17.616.789-2.453 2.319-8.056 4.097-15 .493-1.925 2.49-9.125 4.439-16s3.946-14.075 4.439-16c2.853-11.143 5.871-21.625 7.141-24.797.506-1.263.92-3.374.92-4.691s.45-2.672 1-3.012 1-1.92 1-3.512.407-3.928.904-5.191 2.079-6.347 3.516-11.297 3.056-10.382 3.597-12.071.983-4.025.983-5.191.45-2.398 1-2.738 1-1.572 1-2.738.433-3.502.963-5.191c4.111-13.109 6.037-19.947 6.037-21.433 0-.956.495-2.233 1.099-2.837.605-.605.805-2.029.444-3.165-.643-2.026-1.172-2.061-28.349-1.9-15.232.09-30.455.319-33.83.509m-716.607 4.634c-4.483 1.987-9.718 7.763-10.851 11.972-1.648 6.117-.274 12.89 3.498 17.253 2.954 3.418 3.766 3.781 9.367 4.186l6.132.443-.585 3.134c-1.164 6.224-8.964 13.935-19.744 19.516-3.26 1.688-6.29 3.642-6.735 4.343-2.066 3.255.431 7.774 4.294 7.774 5.611 0 25.22-12.187 31.997-19.885 2.202-2.501 5.548-7.76 7.436-11.686 2.964-6.161 3.433-8.151 3.425-14.534-.008-6.355-.426-8.121-2.969-12.555-1.627-2.837-4.211-6.031-5.741-7.097-5.944-4.141-13.984-5.32-19.524-2.864M372.235 534.45c-28.352 6.473-52.222 24.052-65.244 48.05-1.791 3.3-3.565 6.45-3.943 7s-1.263 3.025-1.965 5.5-1.711 5.325-2.241 6.333c-1.315 2.504-1.233 29.067.097 31.554.584 1.09 1.061 2.733 1.061 3.652 0 1.489.992 3.66 6.838 14.961 2.026 3.918 15.81 17.578 19.662 19.486 1.65.817 4.125 2.23 5.5 3.141 2.318 1.535 6.303 2.955 16.549 5.898 9.165 2.632 34.572-.948 45.531-6.415 1.775-.886 3.621-1.61 4.103-1.61 2.031 0 20.74-13.103 25.601-17.931 13.056-12.965 20.81-27.379 24.684-45.884 1.915-9.144 1.934-15.145.076-23.976-2.071-9.847-4.255-15.101-9.648-23.209-4.457-6.702-12.089-14.376-17.146-17.243-2.062-1.169-3.75-2.492-3.75-2.941s-.681-.816-1.514-.816c-.832 0-2.295-.397-3.25-.883-7.792-3.964-13.132-5.213-24.236-5.667-6.978-.286-12.601.05-16.765 1m185.265-.754c-4.811.51-10.679 2.242-15.212 4.49-6.03 2.991-18.347 14.695-22.899 21.761-2.139 3.319-4.242 6.039-4.674 6.044s-.383-.779.109-1.741 1.663-5.35 2.604-9.75c.94-4.4 2.19-9.654 2.776-11.676 2.049-7.059 1.884-7.121-16.963-6.37-9.208.366-20.341.856-24.741 1.087-4.4.232-9.84.43-12.09.44-3.85.018-4.164.244-5.355 3.853-1.957 5.93-1.226 7.615 3.453 7.959 5.794.426 10.36 2.832 11.119 5.859.373 1.483-.298 6.211-1.59 11.207-1.229 4.752-2.616 10.441-3.081 12.641-1.07 5.054-2.536 10.998-3.825 15.5a776 776 0 0 0-2.61 9.5c-.886 3.3-2.074 7.575-2.641 9.5-1.149 3.9-2.702 10.804-3.546 15.759-.305 1.793-.955 3.507-1.444 3.809-.49.303-.89 1.476-.89 2.607s-.653 4.142-1.45 6.691a219 219 0 0 0-2.604 9.134c-.635 2.475-1.557 5.534-2.05 6.797s-.896 3.536-.896 5.05-.429 3.182-.954 3.707-1.088 2.978-1.25 5.45l-.296 4.496 20.055.27 20.054.27 1.75-6.27c.962-3.448 2.205-8.07 2.763-10.27s1.433-5.382 1.946-7.071.935-3.714.939-4.5c.015-2.943 12.236-38.781 16.685-48.929 11.375-25.945 22.143-41.488 32.267-46.573 5.89-2.959 7.045-2.998 10.406-.354 1.874 1.473 2.628 2.99 2.611 5.25-.026 3.477-3.372 18.435-6.974 31.177-.622 2.2-1.527 5.854-2.012 8.12-.484 2.265-1.805 6.864-2.935 10.218S542 615.825 542 616.909c0 1.085-.402 2.222-.894 2.526s-1.121 2.243-1.398 4.309-1.029 5.556-1.672 7.756a211 211 0 0 0-2.023 7.5c-.47 1.925-1.613 5.975-2.54 9s-1.912 6.967-2.19 8.759c-.277 1.793-.904 3.507-1.393 3.809-.49.303-.897 1.761-.905 3.241s-.691 4.633-1.518 7.007c-.826 2.374-1.243 4.737-.926 5.25.326.528 9.202.934 20.396.934 21.711 0 21.578.036 22.641-6.095.325-1.873.951-4.53 1.39-5.905.44-1.375 1.271-4.3 1.846-6.5 1.772-6.772 4.305-15.873 5.15-18.5.442-1.375 1.358-4.525 2.034-7s1.595-5.4 2.04-6.5 2.46-6.5 4.476-12c5.008-13.667 4.541-12.571 11.091-26 3.22-6.6 6.201-12.15 6.624-12.333.424-.184.771-.745.771-1.248 0-1.247 6.648-10.66 10.424-14.758 3.531-3.833 11.409-8.161 14.856-8.161 1.29 0 3.599 1.308 5.131 2.907 2.514 2.624 2.737 3.426 2.29 8.25-.804 8.663-3.595 18.057-8.79 29.582-1.051 2.332-1.911 4.844-1.911 5.583 0 .74-.308 1.653-.685 2.03-.687.686-2.056 4.223-4.898 12.648-.835 2.475-1.894 5.4-2.353 6.5s-1.308 3.8-1.886 6c-4.325 16.48-4.416 17.077-3.777 24.755.604 7.24 1.119 9.299 3.943 15.745 2.074 4.733 8.945 10.604 15.098 12.899 5.467 2.039 6.508 2.123 13 1.04 11.355-1.894 18.605-5.762 27.487-14.666 4.265-4.275 8.552-9.01 9.528-10.523.975-1.513 2.092-2.75 2.481-2.75s1.701 1.989 2.915 4.42c4.469 8.948 19.709 20.18 30.815 22.711 6.952 1.584 21.576 1.956 25.487.649 8.466-2.831 14.48-6.635 20.993-13.28 3.774-3.85 7.526-8.401 8.338-10.112 2.663-5.61 4.042-5.895 5.472-1.13 5.88 19.589 18.76 28.335 36.388 24.709 9.423-1.939 17.905-6.179 23.753-11.875 2.875-2.801 5.399-5.092 5.609-5.092.69 0-.929 7.477-1.829 8.45-1.408 1.522-1.016 4.284.703 4.943.87.334 10.265.607 20.877.607 14.583 0 19.559-.317 20.372-1.296.591-.713 2.02-5.1 3.175-9.75s2.526-10.141 3.047-12.204c.521-2.062 1.369-5.437 1.885-7.5 1.308-5.224 8.025-27.269 9.142-30a422 422 0 0 0 1.803-4.5c12.237-31.175 24.958-50.788 37.397-57.661 4.804-2.654 11.357-2.709 14.72-.122 2.306 1.773 2.493 2.529 2.411 9.728-.09 7.833-1.228 12.218-7.087 27.305-1.388 3.575-2.929 7.281-3.424 8.236s-.9 2.181-.9 2.723c0 .543-1.073 3.361-2.384 6.264-1.312 2.902-2.932 6.852-3.601 8.777s-1.559 4.4-1.977 5.5c-1.249 3.284-2.76 8.58-4.566 16-3.084 12.677-.401 25.138 7.216 33.5 6.355 6.978 17.982 10.602 25.913 8.077 1.594-.507 4.549-1.196 6.566-1.53 2.955-.489 12.996-6.384 20.471-12.019.936-.706 2.246.145 4.775 3.099 3.822 4.465 13.625 9.973 23.087 12.972 5.091 1.613 8.878 1.883 25 1.783 27.762-.172 32.886-1.186 51.439-10.186 7.623-3.697 10.846-6.003 16.75-11.985 4.021-4.073 7.311-7.968 7.311-8.655s.706-2.664 1.569-4.395c.864-1.73 2.047-6.027 2.631-9.547.878-5.301.78-7.224-.57-11.186-.896-2.631-1.63-5.634-1.63-6.674 0-2.754-8.336-12.657-14.328-17.021-4.558-3.319-22.703-12.843-28.172-14.786-6.057-2.153-19.459-9.039-22.386-11.503-6.449-5.429-7.896-13.539-3.557-19.933 2.774-4.088 4.963-6.511 5.882-6.511.321 0 2.715-1.013 5.322-2.25 4.158-1.974 6.211-2.235 16.739-2.127 7.605.077 13.641.665 16.481 1.604l4.481 1.483-2.981 1.556c-5.121 2.672-8.188 6.814-8.939 12.072-.582 4.073-.272 5.694 1.962 10.261 2.122 4.337 3.489 5.799 6.825 7.299 6.544 2.943 10.335 3.392 17.393 2.06 5.337-1.007 7.233-1.913 10.192-4.872 6.236-6.236 7.868-16.514 3.836-24.17-4.552-8.645-12.865-14.485-25.25-17.739a2297 2297 0 0 0-9-2.339c-10.018-2.582-36.435-1.267-47 2.34-14.216 4.853-24.257 11.329-30.64 19.762-8.671 11.457-10.924 20.302-8.347 32.775 1.777 8.604 1.535 8.077 6.731 14.686 6.107 7.768 16.947 14.654 34.756 22.077 18.155 7.567 25.017 12.613 28.412 20.894 2.258 5.507 1.977 8.807-1.084 12.734-2.989 3.834-10.511 8.894-13.223 8.894-.974 0-2.102.337-2.506.75-1.42 1.45-18.198 2.743-27.162 2.093-14.452-1.047-22.97-6.271-15.687-9.619 7.571-3.481 10.25-8.078 10.25-17.589v-7.555l-4.815-4.892c-4.272-4.34-5.541-5.023-11.25-6.057-9.104-1.649-16.668.236-22.107 5.51-5.411 5.248-7.039 9.45-6.648 17.159.297 5.853.142 6.395-2.18 7.633-6.876 3.664-7.867 3.922-9.585 2.496-1.329-1.102-1.554-2.606-1.149-7.66.278-3.459.913-6.847 1.411-7.529s1.479-3.04 2.181-5.24c1.335-4.192 2.773-7.816 4.259-10.736.486-.955.883-2.181.883-2.723 0-.543 1.073-3.361 2.384-6.264 1.312-2.902 2.932-6.852 3.601-8.777s1.562-4.4 1.985-5.5c2.135-5.561 5.136-15.872 6.483-22.275 2.446-11.628-.664-25.033-8.114-34.969-3.357-4.479-12.888-10.699-18.532-12.095-6.005-1.486-17.891-1.496-21.51-.02-11.472 4.682-14.145 6.536-24.547 17.031-5.913 5.965-10.754 10.504-10.758 10.087-.011-.955 2.891-13.565 4.221-18.343 2.013-7.234 1.722-7.418-11.728-7.401-6.592.009-18.51.324-26.485.701s-16.089.707-18.032.734c-3.308.047-3.615.334-4.859 4.545-1.832 6.206-1.104 7.505 4.206 7.505 2.408 0 5.847.733 7.642 1.629 3.225 1.608 3.258 1.696 2.719 7.25-.299 3.091-1.288 8.096-2.196 11.121a676 676 0 0 0-2.566 8.75 990 990 0 0 1-1.858 6.5 481 481 0 0 0-1.892 6.75c-.522 1.925-1.728 6.2-2.68 9.5-.951 3.3-1.949 7.467-2.218 9.259s-.887 3.507-1.376 3.809c-.49.303-.89 1.627-.89 2.944s-.405 3.428-.901 4.691c-.495 1.263-1.568 4.551-2.385 7.306-1.258 4.247-3.365 6.927-13.849 17.62-13.742 14.016-19.886 17.961-22.697 14.574-1.172-1.413 1.18-16.888 4.781-31.453.578-2.337 1.455-5.937 1.948-8 .494-2.062 1.789-7.125 2.879-11.25 1.766-6.682 3.898-15.532 6.265-26 .435-1.925 2.442-10.025 4.459-18s4.12-16.3 4.673-18.5 1.237-5.921 1.519-8.269l.512-4.27-22.232.27-22.233.269-1.275 4.5c-.702 2.475-1.921 6.75-2.709 9.5l-1.434 5-1.611-3.5c-3.185-6.922-7.235-11.448-12.778-14.283-6.588-3.369-15.846-4.877-22.002-3.583-2.437.512-6.353 1.201-8.703 1.531s-4.514.991-4.809 1.468-1.608.867-2.918.867-2.66.45-3 1-1.379 1.01-2.309 1.023c-3.115.042-18.186 9.668-24.363 15.559-13.19 12.582-22.498 25.982-27.807 40.034-3.916 10.364-4.808 15.434-4.963 28.199l-.151 12.493-5.019 7.26c-16.519 23.896-25.816 20.844-16.96-5.568 1.752-5.225 3.797-10.85 4.544-12.5 1.276-2.818 3.785-9.494 6.576-17.5.671-1.925 1.61-4.281 2.086-5.236s.866-2.424.866-3.264.401-2.309.891-3.264c2.611-5.088 4.375-16.694 3.826-25.166-.531-8.198-1.403-11.219-6.042-20.926-1.695-3.545-10.908-11.563-16.082-13.995-3.462-1.628-6.455-2.145-12.332-2.134-15.738.029-29.424 8.099-41.468 24.452-3.858 5.238-6.498 8.01-6.943 7.29-.395-.639-1.023-3.433-1.396-6.209s-1.016-5.498-1.428-6.048c-.413-.55-1.022-2.125-1.354-3.5-2.281-9.44-18.651-17.736-32.172-16.304m949.5 1.923c-4.401.372-7.961 1.229-16.943 4.079-4.03 1.278-19.849 9.041-21.057 10.333-.275.294-2.805 2.203-5.621 4.243-6.116 4.428-21.379 20.378-21.379 22.341 0 .762-.338 1.389-.75 1.393-.79.008-1.196.716-6.184 10.781-5.806 11.717-6.458 14.64-6.514 29.211-.059 15.253.906 19.917 6.308 30.5 6.699 13.122 23.62 27.213 36.85 30.688 7.401 1.943 18.826 2.695 27.29 1.796 15.142-1.609 20.722-3.329 35-10.79 36.506-19.074 56.623-67 40.897-97.43-.493-.955-.897-2.248-.897-2.873 0-1.937-8.522-13.151-13.706-18.037-5.437-5.123-15.418-11.854-17.579-11.854-.76 0-1.69-.308-2.067-.685-2.636-2.636-21.583-4.718-33.648-3.696m175 1.57c-9.92 4.183-17.163 8.71-22 13.75-4.263 4.442-11.583 15.03-12.659 18.311-.316.962-1.002 1.75-1.525 1.75s-.707-.788-.409-1.75c1.344-4.343 5.31-23.77 5.869-28.75.22-1.962-.316-1.997-27.952-1.825-17.371.108-28.926.577-30.132 1.222-1.766.945-2.856 3.96-3.473 9.603-.189 1.724.463 2.043 4.714 2.312 2.905.184 6.091 1.137 7.75 2.318 4.609 3.282 4.035 10.273-3.066 37.37-1.321 5.041-7.022 27.758-8.218 32.75a725 725 0 0 1-1.85 7.5 363 363 0 0 0-1.956 8.25c-.553 2.475-1.752 7.2-2.666 10.5-3.048 11.008-5.648 22.436-5.802 25.5l-.125 2.5 19.728.271 19.728.271 1.522-3.643c.837-2.004 1.522-4.687 1.522-5.962s.45-2.597 1-2.937 1-1.573 1-2.741c0-1.167 1.072-5.303 2.382-9.191 1.31-3.887 2.946-9.093 3.635-11.568 2.849-10.228 3.267-11.576 4.106-13.236.482-.955.877-2.616.877-3.691s.392-2.197.871-2.493 1.136-1.865 1.46-3.486 1.552-5.117 2.729-7.77a759 759 0 0 0 2.993-6.824c6.411-15.019 12.295-25.518 20.131-35.922 6.757-8.97 9.339-11.717 12.709-13.521 2.816-1.507 3.607-.86 2.188 1.792-.595 1.111-1.081 4.575-1.081 7.699 0 7.603 2.858 12.695 8.655 15.42 15.695 7.377 33.528-5.648 32.099-23.444-.683-8.514-3.537-13.163-11.434-18.63-3.82-2.645-4.897-2.888-12.5-2.826-4.576.037-9.445.542-10.82 1.121m-1298.015 9.733c-8.347 1.63-17.717 11.767-25.315 27.387-2.568 5.279-4.67 10.205-4.67 10.945s-.372 1.774-.826 2.296c-.454.523-1.407 2.975-2.116 5.45s-1.673 5.625-2.141 7c-5.979 17.562-9.262 43.283-6.889 53.97 2.22 10.001 6.195 13.23 16.401 13.322 4.888.044 7.005-.488 10.864-2.729 11.222-6.515 22.585-26.661 29.645-52.563 4.682-17.174 6.064-26.465 6.04-40.6-.032-18.843-2.37-22.968-13.978-24.655-1.925-.28-5.082-.2-7.015.177m1126.515 1.649c-6.696 3.636-15.027 14.042-21.376 26.698-3.375 6.727-6.133 13.217-6.13 14.422s-.444 2.469-.994 2.809-1 1.641-1 2.892-.322 2.596-.715 2.99c-1.07 1.069-3.811 11.62-6.525 25.118-1.489 7.4-2.094 32.566-.814 33.846.579.579 1.054 1.78 1.054 2.667 0 1.687 3.912 5.6 7.736 7.737 3.053 1.706 10.249 1.572 14.664-.273 4.604-1.923 10.844-7.53 15.557-13.977 6.097-8.341 14.571-27.458 17.177-38.75.477-2.062 1.34-5.663 1.919-8 3.008-12.146 4.93-26.202 4.938-36.115.008-9.755-.251-11.341-2.533-15.536-1.399-2.569-3.465-5.247-4.592-5.951-3.394-2.119-14.863-2.479-18.366-.577m-744.331 2.875c-3.628 1.315-14.169 9.145-14.169 10.525 0 .47-1.575 3.246-3.5 6.169s-3.5 5.651-3.5 6.062-1.35 3.695-3 7.298-3 7.124-3 7.825-.408 1.703-.907 2.225c-.93.974-2.525 5.862-4.225 12.95-.528 2.2-1.426 5.8-1.996 8-3.168 12.23-4.697 34.831-2.774 41 2.656 8.515 8.275 11.495 17.23 9.137 5.978-1.574 11.785-6.185 17.734-14.082 11.526-15.3 19.104-35.459 23.515-62.555 2.916-17.916-.914-30.593-10.449-34.587-3.923-1.644-6.353-1.636-10.959.033m1095.368.598c-2.179 1.094-5.252 3.219-6.83 4.723-6.46 6.157-14.499 19.647-19.209 32.233-.926 2.475-2.077 5.4-2.558 6.5-2.339 5.354-7.166 21.719-8.111 27.5-.585 3.575-1.262 12.104-1.506 18.953-.473 13.3-.048 15.19 4.566 20.297 2.071 2.292 3.306 2.75 7.413 2.75 9.139 0 18.411-7.352 27.679-21.946 4.514-7.109 5.915-10.262 14.013-31.554.765-2.01 1.831-6.801 4.029-18.098 1.763-9.064.918-30.897-1.376-35.575-3.07-6.259-11.682-9.009-18.11-5.783"/></svg>