<svg width="36" height="36" viewBox="0 0 36 36" fill="none" xmlns="http://www.w3.org/2000/svg">
<path d="M18.7187 0.618652V26.7981C18.7187 31.27 22.3452 34.8966 26.8172 34.8966C31.2892 34.8966 34.9157 31.27 34.9157 26.7981V0.618652H18.7187Z" fill="#85AFD6"/>
<path d="M9.65267 17.7577C5.27437 17.7577 1.72382 21.1463 1.72382 25.325V25.6865C1.72382 30.0655 5.27369 33.6154 9.65267 33.6154C14.0317 33.6154 17.5815 30.0655 17.5815 25.6865V25.325C17.5815 21.1463 14.031 17.7577 9.65267 17.7577Z" fill="#0099FF"/>
<path d="M0.883514 8.71715C0.883514 13.1891 4.51004 16.8157 8.982 16.8157H18.0215V0.618652H8.982C4.51004 0.618652 0.883514 4.24517 0.883514 8.71715Z" fill="#85AFD6"/>
</svg>
