<svg width="36" height="36" viewBox="0 0 36 36" fill="none" xmlns="http://www.w3.org/2000/svg">
<g clip-path="url(#clip0_1_350)">
<path d="M35.9739 0.103882H8.74315C3.96623 0.103882 0.112381 3.95773 0.112381 8.73465C0.112381 13.5116 3.96623 17.3654 8.74315 17.3654H35.9739V0.103882Z" fill="#0099FF"/>
<path d="M18.6893 35.9654H27.3201C32.097 35.9654 35.9508 32.1115 35.9508 27.3346C35.9508 22.5577 32.097 18.7039 27.3201 18.7039H18.6893V35.9654Z" fill="#85AFD6"/>
<path d="M8.74315 35.9654C13.5099 35.9654 17.3739 32.1012 17.3739 27.3346C17.3739 22.5681 13.5099 18.7039 8.74315 18.7039C3.97661 18.7039 0.112381 22.5681 0.112381 27.3346C0.112381 32.1012 3.97661 35.9654 8.74315 35.9654Z" fill="#E4B79F"/>
</g>
<defs>
<clipPath id="clip0_1_350">
<rect width="36.2308" height="36" fill="white" transform="translate(-0.115387)"/>
</clipPath>
</defs>
</svg>
