<svg width="36" height="36" viewBox="0 0 36 36" fill="none" xmlns="http://www.w3.org/2000/svg">
<g clip-path="url(#clip0_1_369)">
<path d="M27.3609 17.3424C32.1275 17.3424 35.9917 13.4781 35.9917 8.71158C35.9917 3.94504 32.1275 0.0808105 27.3609 0.0808105C22.5944 0.0808105 18.7302 3.94504 18.7302 8.71158C18.7302 13.4781 22.5944 17.3424 27.3609 17.3424Z" fill="#8B6956"/>
<path d="M0.130157 8.71158C0.130157 13.4885 4.00708 17.3424 8.76093 17.3424V0.0808105C3.984 0.0808105 0.130157 3.93466 0.130157 8.71158ZM9.43016 8.71158C9.43016 13.4885 13.3071 17.3424 18.0609 17.3424V0.0808105C13.284 0.0808105 9.43016 3.93466 9.43016 8.71158Z" fill="#0099FF"/>
<path d="M8.76114 35.9423C13.5277 35.9423 17.3919 32.0781 17.3919 27.3116C17.3919 22.545 13.5277 18.6808 8.76114 18.6808C3.99437 18.6808 0.130371 22.545 0.130371 27.3116C0.130371 32.0781 3.99437 35.9423 8.76114 35.9423Z" fill="#8B6956"/>
<path d="M35.9917 27.3116C35.9917 22.5346 32.1148 18.6808 27.3609 18.6808V35.9423C32.1379 35.9423 35.9917 32.0885 35.9917 27.3116ZM26.6919 27.3116C26.6919 22.5346 22.815 18.6808 18.0612 18.6808V35.9423C22.8381 35.9423 26.6919 32.0885 26.6919 27.3116Z" fill="#85AFD6"/>
</g>
<defs>
<clipPath id="clip0_1_369">
<rect width="36" height="36.2308" fill="white" transform="translate(0 -0.115356)"/>
</clipPath>
</defs>
</svg>
