<svg width="24" height="24" viewBox="0 0 24 24" fill="none" xmlns="http://www.w3.org/2000/svg">
<path d="M12.0055 3.01926C13.1632 3.00642 14.0571 3.44101 14.6873 4.32301C15.3174 5.20517 15.8671 6.20009 16.3363 7.30776C16.7439 8.28076 17.1478 9.37692 17.5478 10.5963C17.9478 11.8154 18.3664 13.0429 18.8035 14.2788C19.2369 15.4648 19.6991 16.5789 20.1903 17.6213C20.6813 18.6634 21.2492 19.5442 21.894 20.2635C21.976 20.3622 22.0151 20.4698 22.0113 20.5865C22.0074 20.7032 21.9645 20.7981 21.8825 20.8713C21.7877 20.9571 21.6839 21.0019 21.571 21.0058C21.4582 21.0096 21.3549 20.9705 21.2613 20.8885C20.0984 19.8038 19.1209 18.6593 18.3285 17.4548C17.5364 16.2503 16.771 15.2435 16.0325 14.4345C15.4659 13.8012 14.8584 13.298 14.2103 12.925C13.5623 12.552 12.8274 12.3718 12.0055 12.3845C11.1837 12.3718 10.4488 12.552 9.80077 12.925C9.1526 13.298 8.54519 13.8012 7.97852 14.4345C7.24019 15.2435 6.47485 16.2503 5.68252 17.4548C4.89019 18.6593 3.9126 19.8038 2.74977 20.8885C2.6561 20.9705 2.55294 21.0096 2.44027 21.0058C2.32744 21.0019 2.22352 20.9571 2.12852 20.8713C2.04652 20.7981 2.0036 20.7032 1.99977 20.5865C1.99594 20.4698 2.03502 20.3622 2.11702 20.2635C2.76185 19.557 3.32985 18.6794 3.82102 17.6308C4.31202 16.5821 4.77419 15.4648 5.20752 14.2788C5.64469 13.0429 6.06327 11.8154 6.46327 10.5963C6.86327 9.37692 7.2671 8.28076 7.67477 7.30776C8.14394 6.20009 8.6936 5.20517 9.32377 4.32301C9.95394 3.44101 10.8479 3.00642 12.0055 3.01926ZM9.97102 5.11926C9.47985 5.85259 9.05485 6.63334 8.69602 7.46151C8.13435 8.77951 7.63144 10.1555 7.18727 11.5895C6.7431 13.0233 6.23577 14.4486 5.66527 15.8653C6.01127 15.4128 6.35452 14.9634 6.69502 14.5173C7.03535 14.0711 7.39785 13.6499 7.78252 13.2538C8.39268 12.6679 9.03719 12.2099 9.71602 11.8798C10.3949 11.5496 11.158 11.3845 12.0055 11.3845C12.853 11.3845 13.6162 11.5496 14.295 11.8798C14.9739 12.2099 15.6184 12.6679 16.2285 13.2538C16.6132 13.6499 16.9757 14.0711 17.316 14.5173C17.6565 14.9634 17.9999 15.4128 18.346 15.8653C17.7755 14.4486 17.2681 13.0233 16.8238 11.5895C16.3796 10.1555 15.8768 8.77951 15.3153 7.46151C14.9563 6.63334 14.5313 5.85259 14.0403 5.11926C13.5491 4.38592 12.8709 4.01926 12.0055 4.01926C11.1402 4.01926 10.462 4.38592 9.97102 5.11926Z" fill="#111111"/>
</svg>
