<svg width="24" height="24" viewBox="0 0 24 24" fill="none" xmlns="http://www.w3.org/2000/svg">
<path d="M3.99048 21.5V16C3.99048 15.3077 4.23406 14.7179 4.72123 14.2308C5.2084 13.7436 5.79815 13.5 6.49048 13.5H8.49048C9.46481 13.5 10.2917 13.1603 10.9712 12.4808C11.6507 11.8013 11.9905 10.9743 11.9905 10C11.9905 9.5885 11.8434 9.23558 11.5492 8.94125C11.2549 8.64708 10.902 8.5 10.4905 8.5C10.0686 8.5 9.71323 8.35542 9.42423 8.06625C9.13506 7.77725 8.99048 7.42183 8.99048 7V2.5H10.0097V7C10.0097 7.141 10.0546 7.25958 10.1442 7.35575C10.2341 7.45192 10.3495 7.5 10.4905 7.5C11.1828 7.5 11.7726 7.74358 12.2597 8.23075C12.7469 8.71792 12.9905 9.30767 12.9905 10C12.9905 11.2423 12.5511 12.3029 11.6722 13.1818C10.7934 14.0606 9.73281 14.5 8.49048 14.5H6.49048C6.07898 14.5 5.72606 14.6471 5.43173 14.9412C5.13756 15.2356 4.99048 15.5885 4.99048 16V21.5H3.99048ZM8.00973 21.5H7.00973V20C7.00973 19.3077 7.25331 18.7179 7.74048 18.2308C8.22765 17.7436 8.8174 17.5 9.50973 17.5H13.5097C15.0341 17.5 16.3318 16.9644 17.403 15.8932C18.4741 14.8221 19.0097 13.5243 19.0097 12V11C19.0097 9.51417 18.5286 8.226 17.5665 7.1355C16.6043 6.04517 15.3995 5.5 13.952 5.5C13.4148 5.5 12.9568 5.30733 12.578 4.922C12.1991 4.53683 12.0097 4.08208 12.0097 3.55775V2.5H13.0097V3.55775C13.0097 3.81408 13.1026 4.03525 13.2885 4.22125C13.4745 4.40708 13.6956 4.5 13.952 4.5C15.6841 4.5 17.1268 5.14067 18.28 6.422C19.4331 7.7035 20.0097 9.2295 20.0097 11V12C20.0097 13.809 19.3786 15.3446 18.1165 16.6068C16.8543 17.8689 15.3187 18.5 13.5097 18.5H9.50973C9.09823 18.5 8.74531 18.6471 8.45098 18.9413C8.15681 19.2356 8.00973 19.5885 8.00973 20V21.5Z" fill="#111111"/>
</svg>
