<svg width="24" height="24" viewBox="0 0 24 24" fill="none" xmlns="http://www.w3.org/2000/svg">
<path d="M11.1104 13.5H12.1104V7.5H11.1104V13.5ZM14.1104 12H15.1104V8.5H14.1104V12ZM8.11035 11.5H9.11035V8.5H8.11035V11.5ZM6.61035 21V17.2385C5.66035 16.3718 4.92285 15.3977 4.39785 14.3162C3.87285 13.2349 3.61035 12.1248 3.61035 10.986C3.61035 8.76767 4.3881 6.88208 5.9436 5.32925C7.49927 3.77642 9.38819 3 11.6104 3C13.4117 3 15.0396 3.54842 16.4941 4.64525C17.9486 5.74208 18.8919 7.15842 19.3239 8.89425L20.3606 12.9985C20.4271 13.252 20.3796 13.4823 20.2181 13.6895C20.0566 13.8965 19.8412 14 19.5719 14H17.6104V17.3845C17.6104 17.8288 17.4522 18.2092 17.1359 18.5255C16.8195 18.8418 16.4392 19 15.9949 19H13.6104V21H12.6104V18H15.9949C16.1744 18 16.3219 17.9423 16.4374 17.827C16.5527 17.7115 16.6104 17.564 16.6104 17.3845V13H19.3104L18.3604 9.125C17.977 7.5955 17.1539 6.359 15.8911 5.4155C14.6283 4.47183 13.2014 4 11.6104 4C9.67702 4 8.02702 4.67683 6.66035 6.0305C5.29368 7.38433 4.61035 9.03058 4.61035 10.9693C4.61035 11.9659 4.81452 12.9128 5.22285 13.8098C5.63119 14.7069 6.21035 15.5043 6.96035 16.202L7.61035 16.8V21H6.61035Z" fill="#111111"/>
</svg>
