<svg width="24" height="24" viewBox="0 0 24 24" fill="none" xmlns="http://www.w3.org/2000/svg">
<path d="M15.0577 21V20H18.3845C18.5385 20 18.6796 19.9359 18.8078 19.8077C18.9359 19.6796 19 19.5385 19 19.3845V10.6155H5V14.5H4V6.61548C4 6.15514 4.15417 5.77081 4.4625 5.46248C4.77083 5.15414 5.15517 4.99998 5.6155 4.99998H7.3845V2.76923H8.4615V4.99998H15.6155V2.76923H16.6155V4.99998H18.3845C18.8448 4.99998 19.2292 5.15414 19.5375 5.46248C19.8458 5.77081 20 6.15514 20 6.61548V19.3845C20 19.8448 19.8458 20.2291 19.5375 20.5375C19.2292 20.8458 18.8448 21 18.3845 21H15.0577ZM8 23.2885L7.3115 22.6L10.3673 19.5H1.5V18.5H10.3673L7.3115 15.4L8 14.7115L12.2885 19L8 23.2885ZM5 9.61523H19V6.61548C19 6.46148 18.9359 6.32039 18.8078 6.19223C18.6796 6.06406 18.5385 5.99998 18.3845 5.99998H5.6155C5.4615 5.99998 5.32042 6.06406 5.19225 6.19223C5.06408 6.32039 5 6.46148 5 6.61548V9.61523Z" fill="#111111"/>
</svg>
