<svg width="24" height="24" viewBox="0 0 24 24" fill="none" xmlns="http://www.w3.org/2000/svg">
<path d="M4.39988 20.4122L3.69238 19.7044L13.8269 9.56994C13.4884 8.76728 13.4146 7.97878 13.6056 7.20444C13.7968 6.43011 14.227 5.71219 14.8961 5.05069C15.5486 4.39803 16.3653 3.94544 17.3461 3.69294C18.327 3.44028 19.1462 3.64286 19.8039 4.30069C20.4616 4.95836 20.6641 5.77753 20.4114 6.75819C20.1589 7.73903 19.7064 8.55569 19.0539 9.20819C18.3922 9.87753 17.6742 10.3077 16.8999 10.4987C16.1256 10.6897 15.3371 10.6159 14.5346 10.2774L12.7076 12.1044L20.3076 19.7044L19.5999 20.4122L11.9999 12.8622L4.39988 20.4122ZM7.46539 11.9774L4.69613 9.20819C3.94997 8.46203 3.54805 7.57936 3.49038 6.56019C3.43272 5.54103 3.73205 4.61986 4.38838 3.79669L10.0114 9.43144L7.46539 11.9774Z" fill="#111111"/>
</svg>
