<svg width="24" height="24" viewBox="0 0 24 24" fill="none" xmlns="http://www.w3.org/2000/svg">
<path d="M14.8161 19C12.8596 19 11.2025 18.3211 9.84463 16.9633C8.4868 15.6054 7.80788 13.9483 7.80788 11.9918C7.80788 10.0498 8.4868 8.399 9.84463 7.0395C11.2025 5.67983 12.8596 5 14.8161 5C16.758 5 18.4087 5.67983 19.7684 7.0395C21.128 8.399 21.8079 10.0498 21.8079 11.9918C21.8079 13.9483 21.128 15.6054 19.7684 16.9633C18.4087 18.3211 16.758 19 14.8161 19ZM14.8079 18C16.4745 18 17.8912 17.4167 19.0579 16.25C20.2246 15.0833 20.8079 13.6667 20.8079 12C20.8079 10.3333 20.2246 8.91667 19.0579 7.75C17.8912 6.58333 16.4745 6 14.8079 6C13.1412 6 11.7245 6.58333 10.5579 7.75C9.39122 8.91667 8.80788 10.3333 8.80788 12C8.80788 13.6667 9.39122 15.0833 10.5579 16.25C11.7245 17.4167 13.1412 18 14.8079 18ZM17.2751 15.2058L17.9886 14.4923L15.3079 11.8115V8.30775H14.3079V12.2135L17.2751 15.2058ZM3.19238 8.5V7.5H6.80788V8.5H3.19238ZM2.19238 12.5V11.5H6.80788V12.5H2.19238ZM3.19238 16.5V15.5H6.80788V16.5H3.19238Z" fill="#111111"/>
</svg>
