<svg width="24" height="24" viewBox="0 0 24 24" fill="none" xmlns="http://www.w3.org/2000/svg">
<path d="M6.80006 19.2116C6.42823 19.2116 6.11864 19.1007 5.87131 18.8788C5.62381 18.657 5.50006 18.3602 5.50006 17.9883C5.50006 17.7282 5.57439 17.5016 5.72306 17.3086C5.87189 17.1157 6.06164 16.9718 6.29231 16.8768L10.5001 15.2116V11.4616C9.30523 12.8706 8.21131 13.8638 7.21831 14.4413C6.22531 15.0188 5.03714 15.3782 3.65381 15.5193V14.5001C4.67181 14.4359 5.62731 14.1641 6.52031 13.6846C7.41314 13.2051 8.23456 12.532 8.98456 11.6653L10.3346 10.1038C10.4834 9.93466 10.6591 9.80133 10.8616 9.70383C11.0642 9.60633 11.2771 9.55758 11.5001 9.55758H12.5001C12.7231 9.55758 12.9359 9.60633 13.1386 9.70383C13.3411 9.80133 13.5167 9.93466 13.6656 10.1038L15.0156 11.6653C15.7656 12.532 16.587 13.2051 17.4798 13.6846C18.3728 14.1641 19.3283 14.4359 20.3463 14.5001V15.5193C18.963 15.3782 17.7748 15.0188 16.7818 14.4413C15.7888 13.8638 14.6949 12.8706 13.5001 11.4616V15.2116L17.7078 16.8768C17.9385 16.9718 18.1282 17.1157 18.2771 17.3086C18.4257 17.5016 18.5001 17.7282 18.5001 17.9883C18.5001 18.3602 18.3763 18.657 18.1288 18.8788C17.8815 19.1007 17.5719 19.2116 17.2001 19.2116H10.0001V19.0576C10.0001 18.6627 10.1129 18.3525 10.3386 18.1268C10.5642 17.9012 10.8745 17.7883 11.2693 17.7883H14.5001C14.6501 17.7883 14.7709 17.7425 14.8626 17.6508C14.9542 17.5592 15.0001 17.4383 15.0001 17.2883C15.0001 17.1383 14.9542 17.0175 14.8626 16.9258C14.7709 16.8342 14.6501 16.7883 14.5001 16.7883H11.2693C10.6078 16.7883 10.0642 17.0012 9.63856 17.4268C9.21289 17.8525 9.00006 18.3961 9.00006 19.0576V19.2116H6.80006ZM10.7991 7.68183C10.4716 7.35416 10.3078 6.95383 10.3078 6.48083C10.3078 6.00766 10.4716 5.60733 10.7991 5.27983C11.1267 4.95216 11.5271 4.78833 12.0001 4.78833C12.4731 4.78833 12.8734 4.95216 13.2011 5.27983C13.5286 5.60733 13.6923 6.00766 13.6923 6.48083C13.6923 6.95383 13.5286 7.35416 13.2011 7.68183C12.8734 8.00933 12.4731 8.17308 12.0001 8.17308C11.5271 8.17308 11.1267 8.00933 10.7991 7.68183Z" fill="#111111"/>
</svg>
